<svg id="Group_1390" data-name="Group 1390" xmlns="http://www.w3.org/2000/svg" xmlns:xlink="http://www.w3.org/1999/xlink" width="255.533" height="147.253" viewBox="0 0 255.533 147.253">
  <defs>
    <linearGradient id="linear-gradient" x1="0.5" y1="1" x2="0.5" gradientUnits="objectBoundingBox">
      <stop offset="0" stop-color="gray" stop-opacity="0.251"/>
      <stop offset="0.54" stop-color="gray" stop-opacity="0.122"/>
      <stop offset="1" stop-color="gray" stop-opacity="0.102"/>
    </linearGradient>
    <linearGradient id="linear-gradient-2" y1="1" y2="0" xlink:href="#linear-gradient"/>
  </defs>
  <path id="Path_804" data-name="Path 804" d="M191.167,518.03c-15.45-5.338-33.114-9.857-47.549-2.186A10.68,10.68,0,0,0,139,519.862c-2.6,4.792,1.535,11.006-.482,16.071s-9.608,7.615-8.986,13.026a7.551,7.551,0,0,0,1.832,3.8c5.654,6.908,16.02,7.607,24.782,5.893s17.33-5.269,26.249-4.821c8.571.442,16.457,4.554,24.31,8.014,13.24,5.85,28.7,10.047,41.932,4.168,6.061-2.695,11.073-7.283,16.875-10.486a41.533,41.533,0,0,1,25.633-4.7c5.893.83,11.518,2.92,17.284,4.361,13.1,3.27,26.769,3.163,40.266,3.035a26.978,26.978,0,0,0,7.473-.771c3.565-1.071,6.506-3.538,9.337-5.952,3.72-3.169,7.639-6.651,8.839-11.389,1.417-5.625-1.516-11.6-5.866-15.426s-9.91-5.911-15.337-7.926A6.952,6.952,0,0,0,349,516.13a5.648,5.648,0,0,0-2.33,1.492c-3.852,3.707-7.106,9.977-12.359,8.97-1.875-.359-3.41-1.663-4.894-2.869-7.923-6.428-18.581-11.392-28.143-7.84-6.994,2.6-11.93,9.27-19.017,11.625-5.041,1.677-10.519.951-15.822,1.278-7.714.471-15.222,3.2-22.947,3.032-19.7-.423-36.109-19.258-55.726-17.464-1.537.139-3.214.493-4.157,1.709" transform="translate(-127.756 -421.59)" fill="#3598db" opacity="0.5"/>
  <path id="Path_805" data-name="Path 805" d="M254.889,464.468s-16.368,9.881,13.816,25.1c0,0,6.651-12.348-.7-22.416a9.91,9.91,0,0,0-12.857-2.818Z" transform="translate(-216.319 -385.945)" fill="#3598db"/>
  <path id="Path_806" data-name="Path 806" d="M267.73,467.52s14.014,10.714,13.623,25.3" transform="translate(-228.965 -389.203)" fill="none" stroke="#535461" stroke-miterlimit="10" stroke-width="1"/>
  <path id="Path_807" data-name="Path 807" d="M917.518,390.349c3.316,12.126-10.829,46.67-10.829,46.67s-29.764-22.534-33.082-34.66a22.767,22.767,0,1,1,43.909-12.013Z" transform="translate(-671.86 -320.057)" fill="#3598db"/>
  <path id="Path_808" data-name="Path 808" d="M917.518,390.349c3.316,12.126-10.829,46.67-10.829,46.67s-29.764-22.534-33.082-34.66a22.767,22.767,0,1,1,43.909-12.013Z" transform="translate(-671.86 -320.057)" opacity="0.1"/>
  <path id="Path_809" data-name="Path 809" d="M936.21,378.27s18.527,27.969,17.143,62.618" transform="translate(-718.392 -323.859)" fill="none" stroke="#535461" stroke-miterlimit="10" stroke-width="1"/>
  <path id="Path_810" data-name="Path 810" d="M1017.184,517.215s-16.8-9.139-14.673,24.6c0,0,14.014-.5,18.988-11.933a9.911,9.911,0,0,0-4.069-12.522Z" transform="translate(-766.798 -424.761)" fill="#3598db"/>
  <path id="Path_811" data-name="Path 811" d="M1017.969,520.52s-2.17,17.512-14.949,24.538" transform="translate(-767.307 -428.007)" fill="none" stroke="#535461" stroke-miterlimit="10" stroke-width="1"/>
  <path id="Path_812" data-name="Path 812" d="M127.438,502.409s-16.376,9.878,13.81,25.09c0,0,6.651-12.348-.7-22.416a9.91,9.91,0,0,0-12.857-2.818Z" transform="translate(-123.003 -413.715)" fill="#3598db"/>
  <path id="Path_813" data-name="Path 813" d="M140.26,505.49s14.014,10.714,13.623,25.3" transform="translate(-135.638 -417.003)" fill="none" stroke="#535461" stroke-miterlimit="10" stroke-width="1"/>
  <path id="Path_814" data-name="Path 814" d="M410.184,317.317H392.974a5.738,5.738,0,0,0,.6-2.563V236.391a5.761,5.761,0,0,0-5.761-5.761H254.6a5.761,5.761,0,0,0-5.761,5.761v78.365a5.737,5.737,0,0,0,.6,2.563H231.624a1.524,1.524,0,0,0-1.524,1.532v1.229a8.523,8.523,0,0,0,8.523,8.523H403.185a8.523,8.523,0,0,0,8.523-8.523v-1.229a1.524,1.524,0,0,0-1.524-1.535Zm-106.039,4.875-1.484-1.674H339.3l-1.634,1.677Z" transform="translate(-201.414 -215.764)" fill="url(#linear-gradient)"/>
  <rect id="Rectangle_1762" data-name="Rectangle 1762" width="141.457" height="87.852" rx="23.26" transform="translate(49.059 15.975)" fill="#535461"/>
  <rect id="Rectangle_1763" data-name="Rectangle 1763" width="135.203" height="71.771" transform="translate(52.037 28.781)" fill="#fff"/>
  <ellipse id="Ellipse_383" data-name="Ellipse 383" cx="1.192" cy="1.192" rx="1.192" ry="1.192" transform="translate(118.448 21.334)" fill="#fff"/>
  <path id="Path_815" data-name="Path 815" d="M347.551,551.08l-4.645,4.765H310.159l-4.2-4.765H239.269a1.489,1.489,0,0,0-1.489,1.489v1.2a8.33,8.33,0,0,0,8.33,8.33H406.944a8.33,8.33,0,0,0,8.33-8.33v-1.2a1.489,1.489,0,0,0-1.489-1.489Z" transform="translate(-207.037 -450.382)" fill="#535461"/>
  <path id="Path_816" data-name="Path 816" d="M258.77,124.19v61.049H359.723" transform="translate(-189.459 -90.942)" fill="none" stroke="#535461" stroke-miterlimit="10" stroke-width="2"/>
  <rect id="Rectangle_1764" data-name="Rectangle 1764" width="10.422" height="16.082" transform="translate(78.244 75.834)" fill="#3598db" opacity="0.5"/>
  <rect id="Rectangle_1765" data-name="Rectangle 1765" width="10.422" height="30.377" transform="translate(96.112 61.539)" fill="#3598db" opacity="0.7"/>
  <rect id="Rectangle_1766" data-name="Rectangle 1766" width="10.422" height="21.739" transform="translate(113.98 70.174)" fill="#3598db" opacity="0.5"/>
  <rect id="Rectangle_1767" data-name="Rectangle 1767" width="10.422" height="35.142" transform="translate(131.849 56.774)" fill="#3598db" opacity="0.8"/>
  <rect id="Rectangle_1768" data-name="Rectangle 1768" width="10.422" height="47.648" transform="translate(149.717 44.265)" fill="#3598db"/>
  <path id="Path_817" data-name="Path 817" d="M311.02,172.411l18.166-16.379,17.868,15.484,17.571-18.76,17.868-7.446" transform="translate(-227.714 -106.405)" fill="none" stroke="#535461" stroke-miterlimit="10" stroke-width="2"/>
  <ellipse id="Ellipse_384" data-name="Ellipse 384" cx="2.084" cy="2.084" rx="2.084" ry="2.084" transform="translate(81.222 63.923)" fill="#3598db"/>
  <ellipse id="Ellipse_385" data-name="Ellipse 385" cx="2.084" cy="2.084" rx="2.084" ry="2.084" transform="translate(116.959 62.731)" fill="#3598db"/>
  <ellipse id="Ellipse_386" data-name="Ellipse 386" cx="2.084" cy="2.084" rx="2.084" ry="2.084" transform="translate(135.124 44.268)" fill="#3598db"/>
  <ellipse id="Ellipse_387" data-name="Ellipse 387" cx="2.084" cy="2.084" rx="2.084" ry="2.084" transform="translate(99.388 47.244)" fill="#3598db"/>
  <ellipse id="Ellipse_388" data-name="Ellipse 388" cx="2.084" cy="2.084" rx="2.084" ry="2.084" transform="translate(152.695 36.821)" fill="#3598db"/>
  <path id="Path_818" data-name="Path 818" d="M823.539,278.437a10.445,10.445,0,0,0-4.018-.632,20.456,20.456,0,0,1-6.094-3.353,43.926,43.926,0,0,0-.131-5.148c-1.01-11.483,1.262-19.052,1.262-19.052a37.64,37.64,0,0,0,1.588-10.567c.115.217.18.346.18.346a35.573,35.573,0,0,1,2.62-11.076.887.887,0,0,0,.118-.043l1.179-2.8a2.43,2.43,0,0,0,.222-.517l.19-.442-.056-.024c.019-.072.038-.15.056-.228h0a105.113,105.113,0,0,0,1.339-10.738,13.982,13.982,0,0,0-2.775-12.857l-8.137-7a1.029,1.029,0,0,1,.08.287l-.067-.059c-.115-.329-.241-.723-.364-1.173a6.879,6.879,0,0,0,2.628-3.943,12.343,12.343,0,0,0,.121-2.946l-.134-3.378a10.7,10.7,0,0,0-.2-1.969,6.553,6.553,0,0,0-6.115-4.677,22.35,22.35,0,0,0-2.625.139,17.655,17.655,0,0,1-2.143.046.386.386,0,0,1-.23-.062.337.337,0,0,1-.1-.233,1.162,1.162,0,0,1,.284-.871,1.072,1.072,0,0,1,.37-.212l-.2.046a1.073,1.073,0,0,1,.321-.174,6.238,6.238,0,0,0-2.03.737,2.624,2.624,0,0,0-.474.4,2.07,2.07,0,0,0-.686,1.275,2.372,2.372,0,0,1-.723-1.071,1.069,1.069,0,0,1,0-.52q-.072.088-.139.182v-.056a5.416,5.416,0,0,0-1.071,2.18.849.849,0,0,1-.193-.627q-.06.189-.112.378a.874.874,0,0,1,0-.252,8.626,8.626,0,0,0-.421,2.995c0,1.012.45,2.59,1.535,2.946.056.019.113.032.171.046a6.811,6.811,0,0,0,4.594,10.4q.027.185.051.388h.043c.029.268.054.562.07.862a5.8,5.8,0,0,1-.895.718,7.377,7.377,0,0,1-2.979.986,8.866,8.866,0,0,0-3.581,1.071,6.743,6.743,0,0,0-3.182,3.07c-.75,2.143-4.88,5.478-7.65,5.893l-.986-.056-.072-.021v.019l-.241-.013h-.078v.013l-.249-.013s-.024.115-.059.319a24.672,24.672,0,0,1-8.2-5.3c-4.286-3.892-10.085-3.126-12.321-2.636a.383.383,0,0,0-.1.71,12.437,12.437,0,0,0,2.946,1.3s-1.339,1.4.086,2.143a1.034,1.034,0,0,0,1.071-.1c.691-.506,2.612.64,5.394,1.237,0,0,7.853,8.127,11.753,9.375a5.614,5.614,0,0,0,.3.517l.241-.019v.019h.1l.029.268s6.064-.319,8.035-2.52a3.153,3.153,0,0,0,.383-.41l-2.108,26.517h.019l-.019.252h1.551a58.45,58.45,0,0,1-.421,9.766v17.287s-.08,1.521,3.08,3.75a118.142,118.142,0,0,1,9.568,7.417l.383.332c-.581,5.29-1.8,15.15-2.812,15.517l.627.11c-1.071,1.358-4.114,5.089-5.041,5.188-1.136.126-1.894,1.894,0,2.271a21.217,21.217,0,0,0,11.25-1.109,1.717,1.717,0,0,0,1.071-1.827l-.367-2.786a.391.391,0,0,1,.161.169c.252.758,0-1.01,0-1.01a78.946,78.946,0,0,0,2.44-10.178l3.75,3.241s.075-.094.206-.268c.919,2.084,2.558,6.348,2.191,9.471-.5,4.286,4.286.5,3.785-2.02-.407-2.041,1.414-10.693,2.124-13.928a1.438,1.438,0,0,0-.964-1.677Z" transform="translate(-591.231 -175.13)" fill="url(#linear-gradient-2)"/>
  <path id="Path_819" data-name="Path 819" d="M786.075,276.546s-3.573-.616-8.871-5.421c-4.192-3.8-9.846-3.054-12.027-2.574a.372.372,0,0,0-.1.691,12.176,12.176,0,0,0,2.887,1.267s-1.32,1.366.083,2.1a1.01,1.01,0,0,0,1.055-.1c.675-.493,2.55.627,5.269,1.208,0,0,10.6,10.966,13.06,9.107Z" transform="translate(-592.956 -243.236)" fill="#fec3be"/>
  <path id="Path_820" data-name="Path 820" d="M912.11,229.348s.986,4.189,0,7.146l4.436.616,3.943-1.971v-2.587a17.767,17.767,0,0,1-1.355-8.5Z" transform="translate(-700.747 -210.947)" fill="#fec3be"/>
  <path id="Path_821" data-name="Path 821" d="M959,562.677s3.214,6.284,2.711,10.473,4.189.493,3.7-1.971c-.4-1.993,1.379-10.446,2.073-13.591a1.4,1.4,0,0,0-.932-1.637c-1.481-.487-3.962-1.085-5.207-.171C959.5,557.132,959,562.677,959,562.677Z" transform="translate(-735.078 -453.474)" fill="#8b416f"/>
  <path id="Path_822" data-name="Path 822" d="M895.931,607.58s-4.189,5.421-5.3,5.544-1.848,1.848,0,2.218a20.716,20.716,0,0,0,10.982-1.071,1.677,1.677,0,0,0,1.053-1.784l-.707-5.277Z" transform="translate(-684.199 -491.477)" fill="#8b416f"/>
  <path id="Path_823" data-name="Path 823" d="M876.615,393.78l-4.018.536a58.8,58.8,0,0,1-.048,14.124v16.875s-.078,1.487,3.008,3.648a115.381,115.381,0,0,1,9.343,7.232l11.18,9.685s4.436-5.421,3.82-8.625c0,0-7.393-2.341-8.378-6.161-.565-2.186-3.431-4.018-5.778-5.17a7.184,7.184,0,0,1-3.844-8.153,6.29,6.29,0,0,1,.629-1.583,103.15,103.15,0,0,0,4.805-11.212l-5.421-10.334Z" transform="translate(-671.783 -335.214)" fill="#4d4981"/>
  <path id="Path_824" data-name="Path 824" d="M876.615,393.78l-4.018.536a58.8,58.8,0,0,1-.048,14.124v16.875s-.078,1.487,3.008,3.648a115.381,115.381,0,0,1,9.343,7.232l11.18,9.685s4.436-5.421,3.82-8.625c0,0-7.393-2.341-8.378-6.161-.565-2.186-3.431-4.018-5.778-5.17a7.184,7.184,0,0,1-3.844-8.153,6.29,6.29,0,0,1,.629-1.583,103.15,103.15,0,0,0,4.805-11.212l-5.421-10.334Z" transform="translate(-671.783 -335.214)" opacity="0.05"/>
  <path id="Path_825" data-name="Path 825" d="M899.062,451.822s7.27,1.232,7.516,1.971,0-.986,0-.986,4.189-12.691,3.214-23.9,1.232-18.6,1.232-18.6,2.587-8.378,1.109-13.184-17-2.711-17-2.711,5.421,12.691,5.3,18.728c0,0,.616,18.235,1.725,20.33C902.142,433.455,900.417,451.321,899.062,451.822Z" transform="translate(-688.315 -335.342)" fill="#4d4981"/>
  <path id="Path_826" data-name="Path 826" d="M883.053,255.79s.739,4.553,8.132,2.587l-4.918,37.454s-14.292.493-14.169-1.232l2.946-22.668Z" transform="translate(-671.452 -234.185)" fill="#fff"/>
  <path id="Path_827" data-name="Path 827" d="M862.023,254.87a6.005,6.005,0,0,1-3.56,1.69,8.66,8.66,0,0,0-3.5,1.039c-1.267.71-2.679,1.741-3.107,3-.862,2.464-6.284,6.53-8.748,5.668l.863,7.393s7.023-.37,8.255-3.08l-2.092,26.381h1.848s.986-7.146,1.725-8.625,2.218-9.61,2.341-11.582,1.971-13.307,3.573-15.267l2.411-5.853Z" transform="translate(-650.229 -233.512)" opacity="0.1"/>
  <path id="Path_828" data-name="Path 828" d="M861.357,256.25a7.627,7.627,0,0,1-3.806,1.567,8.66,8.66,0,0,0-3.5,1.045c-1.267.71-2.679,1.741-3.107,3-.863,2.464-6.284,6.53-8.748,5.668l.862,7.393s7.023-.37,8.255-3.08L849.223,298.2h1.848s.986-7.146,1.725-8.625,2.218-9.611,2.341-11.582,1.971-13.307,3.573-15.268l2.646-5.743Z" transform="translate(-649.563 -234.522)" opacity="0.1"/>
  <path id="Path_829" data-name="Path 829" d="M861.349,255.33a7.626,7.626,0,0,1-3.806,1.567,8.658,8.658,0,0,0-3.5,1.039c-1.267.71-2.679,1.741-3.107,3-.862,2.464-6.284,6.53-8.748,5.668l.862,7.393s7.023-.37,8.255-3.08l-2.092,26.381h1.848s.986-7.146,1.725-8.625,2.218-9.61,2.341-11.582,1.971-13.307,3.573-15.268l2.649-5.729Z" transform="translate(-649.555 -233.848)" fill="#fd6f8d"/>
  <path id="Path_830" data-name="Path 830" d="M918.825,228.7a12.477,12.477,0,0,1,.308-3.265l-7.023,5.3s.169.715.3,1.762a6.691,6.691,0,0,0,1.071.086C915.916,232.576,917.671,230.672,918.825,228.7Z" transform="translate(-700.747 -211.957)" opacity="0.1"/>
  <ellipse id="Ellipse_389" data-name="Ellipse 389" cx="6.653" cy="6.653" rx="6.653" ry="6.653" transform="translate(206.065 6.945)" fill="#fec3be"/>
  <path id="Path_831" data-name="Path 831" d="M890.043,186.892a8.422,8.422,0,0,1,.536-3.292.822.822,0,0,0,.139,1.071,5.271,5.271,0,0,1,1.671-2.962.906.906,0,0,0-.6,1.13,2.572,2.572,0,0,0,.822,1.157,2.067,2.067,0,0,1,1.015-1.749,6.09,6.09,0,0,1,1.982-.718,1.149,1.149,0,0,0-.761,1.179.33.33,0,0,0,.1.228.378.378,0,0,0,.225.059,17.244,17.244,0,0,0,2.081-.046,21.829,21.829,0,0,1,2.563-.137,6.4,6.4,0,0,1,5.97,4.553,10.466,10.466,0,0,1,.2,1.923l.131,3.3a12.051,12.051,0,0,1-.118,2.882,6.107,6.107,0,0,1-3.137,4.146c-.967-1.4-1.053-3.2-1.387-4.87a2.464,2.464,0,0,0-.418-1.071.94.94,0,0,0-1.031-.348.592.592,0,0,0-.217.943c-.268.316-.769.08-1.071-.2a5.753,5.753,0,0,1-1.669-2.981c-.121-.573-.241-1.28-.8-1.476a1.494,1.494,0,0,0-.595-.04c-1.173.08-3.008.565-4.144.193C890.483,189.424,890.043,187.881,890.043,186.892Z" transform="translate(-684.587 -179.816)" opacity="0.1"/>
  <path id="Path_832" data-name="Path 832" d="M890.5,186.432a8.42,8.42,0,0,1,.536-3.292.822.822,0,0,0,.139,1.071,5.272,5.272,0,0,1,1.671-2.962.906.906,0,0,0-.6,1.13,2.572,2.572,0,0,0,.822,1.157,2.067,2.067,0,0,1,1.015-1.749,6.092,6.092,0,0,1,1.982-.718,1.149,1.149,0,0,0-.761,1.179.33.33,0,0,0,.1.228.378.378,0,0,0,.225.059,17.244,17.244,0,0,0,2.081-.046,21.822,21.822,0,0,1,2.563-.137,6.4,6.4,0,0,1,5.97,4.553,10.466,10.466,0,0,1,.2,1.923l.131,3.3a12.054,12.054,0,0,1-.118,2.882,6.107,6.107,0,0,1-3.137,4.146c-.967-1.4-1.053-3.2-1.387-4.87a2.465,2.465,0,0,0-.418-1.071.94.94,0,0,0-1.031-.348.592.592,0,0,0-.217.943c-.268.316-.769.08-1.071-.2a5.753,5.753,0,0,1-1.669-2.981c-.121-.573-.241-1.28-.8-1.476a1.5,1.5,0,0,0-.595-.04c-1.173.08-3.008.565-4.144.193C890.943,188.961,890.5,187.421,890.5,186.432Z" transform="translate(-684.924 -179.479)" fill="#784f69"/>
  <path id="Path_833" data-name="Path 833" d="M840.282,297.42s-.986,4.553.862,7.393l1.047-.086-.571-7.232Z" transform="translate(-647.966 -264.665)" opacity="0.1"/>
  <path id="Path_834" data-name="Path 834" d="M841.282,297.42s-.986,4.553.862,7.393l1.047-.086-.571-7.232Z" transform="translate(-648.699 -264.665)" fill="#fd6f8d"/>
  <path id="Path_835" data-name="Path 835" d="M917.446,251l7.947,6.838a13.689,13.689,0,0,1,2.711,12.568s-.862,11.335-1.848,11.828c0,0-3.45,6.9-3.7,13.43,0,0-4.62-9.3-6.715-3.635a9.766,9.766,0,0,1-6.964,6.469l2.711-33.524S918.432,253.084,917.446,251Z" transform="translate(-698.383 -230.678)" opacity="0.1"/>
  <path id="Path_836" data-name="Path 836" d="M918.366,251l7.947,6.838a13.69,13.69,0,0,1,2.711,12.568s-.862,11.335-1.848,11.828c0,0-3.45,6.9-3.7,13.43,0,0-4.867-9.8-6.964-4.128A11.148,11.148,0,0,1,909.8,298.5l2.711-33.511S919.352,253.084,918.366,251Z" transform="translate(-699.056 -203.993)" fill="#fd6f8d"/>
  <path id="Path_837" data-name="Path 837" d="M940.7,358.167s1.971-1.355,5.175,2.341L937.989,374.8l-2.649-4S940.946,359.769,940.7,358.167Z" transform="translate(-717.755 -308.963)" fill="#fec3be"/>
  <path id="Path_838" data-name="Path 838" d="M948.22,356.095s4.361,4.9,6.061,4.112l1.575-3.667L949.945,354Z" transform="translate(-727.185 -306.09)" opacity="0.1"/>
  <path id="Path_839" data-name="Path 839" d="M948.22,355.175s4.361,4.9,6.061,4.112l1.575-3.667-5.911-2.539Z" transform="translate(-727.185 -305.416)" fill="#fd6f8d"/>
  <path id="Path_840" data-name="Path 840" d="M934.246,402.51s2.076,4.253,3.182,4.5l-1.607,1.848-2.341-4.436Z" transform="translate(-716.393 -341.606)" opacity="0.1"/>
  <path id="Path_841" data-name="Path 841" d="M933.771,403s2.076,4.254,3.182,4.5l-1.607,1.848L933,404.9Z" transform="translate(-716.042 -341.965)" fill="#4d4981"/>
  <path id="Path_842" data-name="Path 842" d="M948.5,304.78s.246,8.871-.739,12.2" transform="translate(-726.849 -270.053)" opacity="0.1"/>
  <path id="Path_843" data-name="Path 843" d="M876,306.5s1.479-.493,1.479-1.725" transform="translate(-674.309 -270.053)" opacity="0.1"/>
  <path id="Path_844" data-name="Path 844" d="M194.811,316.76a49.707,49.707,0,0,0-2.411,31.722c4.612,17.193,3.147,37.767-1.452,42.856" transform="translate(-172.663 -278.824)" fill="none" stroke="#535461" stroke-miterlimit="10" stroke-width="2"/>
  <ellipse id="Ellipse_390" data-name="Ellipse 390" cx="1.937" cy="1.937" rx="1.937" ry="1.937" transform="translate(20.211 36.002)" fill="#3598db"/>
  <path id="Path_845" data-name="Path 845" d="M194.79,347.989s7.28,1.312,9.217-1.339" transform="translate(-175.562 -300.708)" fill="none" stroke="#535461" stroke-miterlimit="10" stroke-width="2"/>
  <path id="Path_846" data-name="Path 846" d="M180.872,346.212s-4.379-4.845-4.138-7.752" transform="translate(-162.335 -294.712)" fill="none" stroke="#535461" stroke-miterlimit="10" stroke-width="2"/>
  <path id="Path_847" data-name="Path 847" d="M190.82,382.236s3.983,1.05,7.618-6.7" transform="translate(-172.655 -321.86)" fill="none" stroke="#535461" stroke-miterlimit="10" stroke-width="2"/>
  <path id="Path_848" data-name="Path 848" d="M170.723,395.962s-9.91-6.378-8.7-10.492" transform="translate(-151.495 -329.13)" fill="none" stroke="#535461" stroke-miterlimit="10" stroke-width="2"/>
  <path id="Path_849" data-name="Path 849" d="M200.57,418.482s6.943-6.161,6.217-12.222" transform="translate(-179.794 -344.352)" fill="none" stroke="#535461" stroke-miterlimit="10" stroke-width="2"/>
  <path id="Path_850" data-name="Path 850" d="M179.945,450.573s-8.839-2.47-8.571-6.343" transform="translate(-158.413 -372.151)" fill="none" stroke="#535461" stroke-miterlimit="10" stroke-width="2"/>
  <path id="Path_851" data-name="Path 851" d="M205.69,464.3s5.569-5.159,6.294-8.3" transform="translate(-183.542 -380.769)" fill="none" stroke="#535461" stroke-miterlimit="10" stroke-width="2"/>
  <path id="Path_852" data-name="Path 852" d="M190.857,492.258s-5.713-6.669-5.957-10.058" transform="translate(-168.321 -399.951)" fill="none" stroke="#535461" stroke-miterlimit="10" stroke-width="2"/>
  <path id="Path_853" data-name="Path 853" d="M207.14,511.682s6.394-7.1,6.876-10.492" transform="translate(-184.604 -413.855)" fill="none" stroke="#535461" stroke-miterlimit="10" stroke-width="2"/>
  <ellipse id="Ellipse_391" data-name="Ellipse 391" cx="1.937" cy="1.937" rx="1.937" ry="1.937" transform="translate(12.462 42.296)" fill="#3598db"/>
  <ellipse id="Ellipse_392" data-name="Ellipse 392" cx="1.937" cy="1.937" rx="1.937" ry="1.937" transform="translate(10.285 70.142)" fill="#3598db"/>
  <ellipse id="Ellipse_393" data-name="Ellipse 393" cx="1.937" cy="1.937" rx="1.937" ry="1.937" transform="translate(8.589 54.403)" fill="#3598db"/>
  <ellipse id="Ellipse_394" data-name="Ellipse 394" cx="1.937" cy="1.937" rx="1.937" ry="1.937" transform="translate(26.508 43.992)" fill="#3598db"/>
  <ellipse id="Ellipse_395" data-name="Ellipse 395" cx="1.937" cy="1.937" rx="1.937" ry="1.937" transform="translate(26.508 73.774)" fill="#3598db"/>
  <ellipse id="Ellipse_396" data-name="Ellipse 396" cx="1.937" cy="1.937" rx="1.937" ry="1.937" transform="translate(23.361 51.741)" fill="#3598db"/>
  <ellipse id="Ellipse_397" data-name="Ellipse 397" cx="1.937" cy="1.937" rx="1.937" ry="1.937" transform="translate(27.234 86.61)" fill="#3598db"/>
  <ellipse id="Ellipse_398" data-name="Ellipse 398" cx="1.937" cy="1.937" rx="1.937" ry="1.937" transform="translate(14.158 81.523)" fill="#3598db"/>
  <ellipse id="Ellipse_399" data-name="Ellipse 399" cx="1.937" cy="1.937" rx="1.937" ry="1.937" transform="translate(25.298 59.972)" fill="#3598db"/>
</svg>
