<svg id="Group_1405" data-name="Group 1405" xmlns="http://www.w3.org/2000/svg" xmlns:xlink="http://www.w3.org/1999/xlink" width="263.315" height="140.13" viewBox="0 0 263.315 140.13">
  <defs>
    <linearGradient id="linear-gradient" x1="0.5" y1="1" x2="0.5" y2="-0.001" gradientUnits="objectBoundingBox">
      <stop offset="0" stop-color="gray" stop-opacity="0.251"/>
      <stop offset="0.54" stop-color="gray" stop-opacity="0.122"/>
      <stop offset="1" stop-color="gray" stop-opacity="0.102"/>
    </linearGradient>
  </defs>
  <path id="Path_1042" data-name="Path 1042" d="M322.484,283.749q-.44.948-.877,1.871-.683,1.434-1.348,2.812c-.2.407-.395.807-.587,1.206-2.175,4.443-4.205,8.373-5.93,11.6a18.513,18.513,0,0,1-16.136,9.786l-38.349.417h-.4l-3.287.035-2.812.03-8.623.094h-.349l-4.39.048h-.134l-27.058.293-24.152.253-2.809.03-17.449.19h-.02l-11.316.121h-.121l-35.782.387-10.7.116a22.27,22.27,0,0,1-6.744-.966,21.846,21.846,0,0,1-9.885-6.259,50.56,50.56,0,0,1-10.2-17.388q-.488-1.388-.91-2.812c-7.791-26.337,1.707-60.316,18.8-83.055q1.075-1.426,2.185-2.782l.018-.02a70.06,70.06,0,0,1,17.431-15.678c11.127-6.8,23.454-8.722,35.58-3.009a79.59,79.59,0,0,0,29.124,7.725c.938.061,1.876.106,2.809.134,21.3.67,41.262-7,64.7-11.959.933-.2,1.869-.392,2.812-.577,16.723-3.328,35.274-5.083,57.335-1.393a47.818,47.818,0,0,1,6.767,1.618q1.459.47,2.812,1.012c10.53,4.284,16.273,12.2,18.713,22.117q.346,1.381.6,2.809C346.123,226.42,333.452,260.26,322.484,283.749Z" transform="translate(-79.351 -172.945)" fill="#3598db" opacity="0.1"/>
  <g id="Group_1403" data-name="Group 1403" transform="translate(2.756 3.448)" opacity="0.1">
    <path id="Path_1043" data-name="Path 1043" d="M190.689,217V345.871l-10.7.116a22.271,22.271,0,0,1-6.744-.966V232.678h.018A69.765,69.765,0,0,1,190.689,217Z" transform="translate(-152.254 -209.307)" fill="#3598db"/>
    <path id="Path_1044" data-name="Path 1044" d="M405.5,281.8H164.6q1.075-1.426,2.185-2.782V279H404.9Q405.248,280.373,405.5,281.8Z" transform="translate(-145.799 -255.629)" fill="#3598db"/>
    <path id="Path_1045" data-name="Path 1045" d="M1032.512,188.492V296.47h-.877q-.683,1.434-1.348,2.812c-.2.407-.395.807-.587,1.206V187.47Q1031.159,187.94,1032.512,188.492Z" transform="translate(-792.135 -187.245)" fill="#3598db"/>
    <path id="Path_1046" data-name="Path 1046" d="M767.9,186.58v135.1l-2.812.03V187.157C766.023,186.959,766.959,186.765,767.9,186.58Z" transform="translate(-594.438 -186.58)" fill="#3598db"/>
    <path id="Path_1047" data-name="Path 1047" d="M500.919,235.754v123.3l-2.809.03V235.62C499.048,235.681,499.986,235.716,500.919,235.754Z" transform="translate(-394.971 -223.219)" fill="#3598db"/>
    <path id="Path_1048" data-name="Path 1048" d="M329.75,618.52q-.683,1.434-1.348,2.812H91.16q-.488-1.388-.91-2.812Z" transform="translate(-90.25 -509.292)" fill="#3598db"/>
  </g>
  <rect id="Rectangle_1797" data-name="Rectangle 1797" width="4.805" height="14.581" transform="translate(53.506 67.214)" fill="#3f3d56"/>
  <rect id="Rectangle_1798" data-name="Rectangle 1798" width="4.805" height="15.426" transform="translate(182.81 66.455)" fill="#3f3d56"/>
  <path id="Path_1049" data-name="Path 1049" d="M297.528,512.357v3.287L259.111,516l-.41.008-14.6.134-.349.005-4.438.038h-.132l-27.053.25-44.408.412h-.038l-11.291.106-.121,0-50.171.46v-3.793l11.8-7.081,23.669-.2.506,0,.167,0,.506-.008,11.364-.094.508,0,.162,0,.506,0,3.644-.03.1,0,8.99-.076h.073l70.148-.592,1.717-.013h.172l1.31-.013,9.521-.078.506-.008.468-.005h.243l2.961-.023.587-.008.786-.005,2.466-.023,3.912-.033.506-.005.88-.005h.164l18.892-.162Z" transform="translate(-79.272 -377.418)" fill="#65617d"/>
  <path id="Path_1050" data-name="Path 1050" d="M297.528,512.357v3.287L259.111,516l-.41.008-14.6.134-.349.005-4.438.038h-.132l-27.053.25-44.408.412h-.038l-11.291.106-.121,0-50.171.46v-3.793l11.8-7.081,23.669-.2.506,0,.167,0,.506-.008,11.364-.094.508,0,.162,0,.506,0,3.644-.03.1,0,8.99-.076h.073l70.148-.592,1.717-.013h.172l1.31-.013,9.521-.078.506-.008.468-.005h.243l2.961-.023.587-.008.786-.005,2.466-.023,3.912-.033.506-.005.88-.005h.164l18.892-.162Z" transform="translate(-79.272 -377.418)" opacity="0.2"/>
  <path id="Path_1051" data-name="Path 1051" d="M340.2,656.57v6.193a1.55,1.55,0,0,1-.885,1.4,1.517,1.517,0,0,1-.632.152l-8.825.187a1.518,1.518,0,0,1-.683-.144,1.548,1.548,0,0,1-.9-1.409v-6.38Z" transform="translate(-265.324 -534.272)" fill="#3f3d56"/>
  <path id="Path_1052" data-name="Path 1052" d="M340.2,656.57v6.193a1.55,1.55,0,0,1-.885,1.4,1.517,1.517,0,0,1-.632.152l-8.825.187a1.518,1.518,0,0,1-.683-.144,1.548,1.548,0,0,1-.9-1.409v-6.38Z" transform="translate(-265.324 -534.272)" opacity="0.1"/>
  <path id="Path_1053" data-name="Path 1053" d="M342.2,656.57v6.193a1.55,1.55,0,0,1-.885,1.4,1.517,1.517,0,0,1-.632.152l-8.825.187a1.517,1.517,0,0,1-.683-.144,1.548,1.548,0,0,1-.9-1.409v-6.38Z" transform="translate(-266.818 -534.272)" fill="#3f3d56"/>
  <rect id="Rectangle_1799" data-name="Rectangle 1799" width="11.928" height="7.966" transform="translate(172.189 122.298)" fill="#3f3d56"/>
  <rect id="Rectangle_1800" data-name="Rectangle 1800" width="11.928" height="7.966" transform="translate(172.189 122.298)" opacity="0.1"/>
  <rect id="Rectangle_1801" data-name="Rectangle 1801" width="11.928" height="7.966" transform="translate(171.683 122.298)" fill="#3f3d56"/>
  <path id="Path_1054" data-name="Path 1054" d="M216.4,265.82v1.449l-4.8-.124V265.82Z" transform="translate(-158.094 -198.609)" opacity="0.1"/>
  <path id="Path_1055" data-name="Path 1055" d="M272.375,264.377,266.6,305.849a1.087,1.087,0,0,1-1.105.938l-46.226-1.2-.877-.023a1.087,1.087,0,0,1-1.052-1.232l6.481-43.414a1.087,1.087,0,0,1,1.148-.918l46.393,3.141a1.085,1.085,0,0,1,1.012,1.234Z" transform="translate(-182.44 -237.986)" fill="#65617d"/>
  <path id="Path_1056" data-name="Path 1056" d="M161.488,99.16,156.6,137.428l42.483,1.348,5.224-36.92Z" transform="translate(-117.002 -74.094)" fill="#3598db"/>
  <rect id="Rectangle_1802" data-name="Rectangle 1802" width="51.756" height="43.831" rx="5.33" transform="translate(97.254 24.475)" fill="#65617d"/>
  <rect id="Rectangle_1803" data-name="Rectangle 1803" width="47.035" height="36.498" transform="translate(99.697 27.426)" fill="#3598db"/>
  <path id="Path_1057" data-name="Path 1057" d="M727.735,262.82v.958l-4.8.1V262.82Z" transform="translate(-540.12 -196.368)" opacity="0.1"/>
  <path id="Path_1058" data-name="Path 1058" d="M750.527,301.31a.779.779,0,0,1-.759.829l-47.339.979a.779.779,0,0,1-.791-.706l-4.069-42.3a.779.779,0,0,1,.738-.852l46.98-2.337.506-.025a.776.776,0,0,1,.814.708Z" transform="translate(-541.233 -235.666)" fill="#65617d"/>
  <path id="Path_1059" data-name="Path 1059" d="M628.93,96.929l42.906-2.109,3.624,38.437-42.567,1.011Z" transform="translate(-469.891 -70.851)" fill="#3598db"/>
  <path id="Path_1060" data-name="Path 1060" d="M891.52,301.31a.779.779,0,0,1-.759.829l-4.481-45.217.506-.025a.776.776,0,0,1,.814.708Z" transform="translate(-682.226 -235.666)" opacity="0.1"/>
  <path id="Path_1061" data-name="Path 1061" d="M224.978,259.991l-5.707,45.589-.877-.023a1.087,1.087,0,0,1-1.052-1.232l6.481-43.414A1.087,1.087,0,0,1,224.978,259.991Z" transform="translate(-182.44 -237.977)" opacity="0.1"/>
  <rect id="Rectangle_1804" data-name="Rectangle 1804" width="4.805" height="4.319" transform="translate(53.506 77.475)" opacity="0.1"/>
  <path id="Path_1062" data-name="Path 1062" d="M262.858,483.65v1.257l-11.928.319V483.65Z" transform="translate(-187.478 -361.355)" opacity="0.1"/>
  <path id="Path_1063" data-name="Path 1063" d="M311.639,482.319v42.534a1.012,1.012,0,0,1-.974,1l-48.464,1.29h-.013a1.012,1.012,0,0,1-1-1V482.319a1.011,1.011,0,0,1,1-1H310.64A1.011,1.011,0,0,1,311.639,482.319Z" transform="translate(-215.207 -403.339)" fill="#65617d"/>
  <path id="Path_1064" data-name="Path 1064" d="M262.2,481.32v45.821h-.013a1.011,1.011,0,0,1-1-1V482.319a1.011,1.011,0,0,1,1-1Z" transform="translate(-215.207 -403.339)" opacity="0.1"/>
  <path id="Path_1065" data-name="Path 1065" d="M194.6,319.15h44.886v37.489L194.6,357.651Z" transform="translate(-145.393 -238.453)" fill="#d4dfec"/>
  <rect id="Rectangle_1805" data-name="Rectangle 1805" width="4.805" height="4.405" transform="translate(182.81 77.475)" opacity="0.1"/>
  <path id="Path_1066" data-name="Path 1066" d="M690.858,483.65v1.621l-11.928-.319v-1.3Z" transform="translate(-507.247 -361.355)" opacity="0.1"/>
  <path id="Path_1067" data-name="Path 1067" d="M718.609,482.319v43.824a1.011,1.011,0,0,1-1.012,1h0l-48.474-1.29a1.011,1.011,0,0,1-.974-1V482.319a1.011,1.011,0,0,1,1-1H717.6a1.011,1.011,0,0,1,1.009,1Z" transform="translate(-519.256 -403.339)" fill="#65617d"/>
  <path id="Path_1068" data-name="Path 1068" d="M864.7,482.319v43.824a1.012,1.012,0,0,1-1.012,1h0V481.32h0a1.012,1.012,0,0,1,1.012,1Z" transform="translate(-665.349 -403.339)" opacity="0.1"/>
  <path id="Path_1069" data-name="Path 1069" d="M642.986,319.15H598.1v37.489l44.886,1.012Z" transform="translate(-446.857 -238.453)" fill="#d4dfec"/>
  <path id="Path_1070" data-name="Path 1070" d="M514.139,482.319v42.534a1.012,1.012,0,0,1-.974,1l-48.464,1.29h0a1.011,1.011,0,0,1-1.012-1V482.319a1.011,1.011,0,0,1,1-1H513.14A1.012,1.012,0,0,1,514.139,482.319Z" transform="translate(-366.499 -403.339)" fill="#65617d"/>
  <path id="Path_1071" data-name="Path 1071" d="M397.1,319.15h44.886v37.489L397.1,357.651Z" transform="translate(-296.685 -238.453)" fill="#d4dfec"/>
  <path id="Path_1072" data-name="Path 1072" d="M297.528,533.65v3.287l-38.417.354-.41.008-14.6.134-.349.005-4.438.038h-.132l-27.053.25-44.408.412h-.038l-11.291.106-.121,0-50.171.46v-3.793l51.21-.336h.121l10.365-.071h.048l71.584-.473h.073l.043,0h.119l1.211-.008h.369l18.837-.126,1.113-.005.248,0Z" transform="translate(-79.272 -398.711)" opacity="0.1"/>
  <ellipse id="Ellipse_411" data-name="Ellipse 411" cx="12.98" cy="12.98" rx="12.98" ry="12.98" transform="translate(110.234 55.834)" fill="#fbbebe"/>
  <path id="Path_1073" data-name="Path 1073" d="M383.74,443.345a.314.314,0,0,1,.025-.089c.253-.908.7-2.443,1.039-3.669.043-.152.083-.3.121-.443.372-1.383,1.095-4.623,1.5-6.643.142-.711.253-1.264.276-1.543a42.1,42.1,0,0,1,1.674-4.357c.6-1.477,1.264-3.09,1.747-4.451a15.522,15.522,0,0,0,.741-2.491,1.29,1.29,0,0,0,0-.539,3.712,3.712,0,0,1-.121-.885h0a10.45,10.45,0,0,1,1.133-5.085c.885-1.264,1.517-5.983,1.517-5.983s1.31.19,1.517-.893a1.556,1.556,0,0,0,.025-.354,1.871,1.871,0,0,0-.023-.281c-.225-1.578,3.722-3.257,5.943-3.619a4.975,4.975,0,0,1,.759-.071,6.888,6.888,0,0,0,1.58-.364q.354-.109.759-.253c.931-.314,2.043-.728,3.224-1.183,4.441-1.722,9.817-4.046,9.817-4.046.038-.18.081-.352.129-.521a7.007,7.007,0,0,1,4.135-4.787h0v-.506c0-.872-.038-1.77-.076-2.665,0-.174-.015-.349-.025-.523v-.286c0-.177-.018-.354-.028-.529l-.046-.035a4.149,4.149,0,0,1-.986-1.062,3.858,3.858,0,0,1-.359-.759,23.168,23.168,0,0,1-.6-2.718l-.046-.187a21.242,21.242,0,0,0-1.012-2.675c-.559-1.371-.989-2.782-1.416-4.21q-.389-1.3-.786-2.6l-.4-1.325c-.076-.253-.152-.506-.21-.759h0a3.359,3.359,0,0,1-.066-.354h0a2.529,2.529,0,0,1,.061-1.166,8.12,8.12,0,0,1,.334-.759,1.988,1.988,0,0,0,.126-.349h0a.741.741,0,0,0,.02-.081,1.425,1.425,0,0,0,.028-.273,4.669,4.669,0,0,0-.132-.984.018.018,0,0,1,0-.013.641.641,0,0,0-.013-.068,6.446,6.446,0,0,1-.091-.759,7.194,7.194,0,0,1,.877-3.937l.048-.091a6.372,6.372,0,0,1,.465-.7h0a3.548,3.548,0,0,1,.253-.309,1.01,1.01,0,0,1-1.4-.364.955.955,0,0,1-.058-.114c-.013-.03-.023-.063-.033-.1a2.066,2.066,0,0,1,.536-1.783,4.676,4.676,0,0,1,1.452-1.189h0a.973.973,0,0,1,.1-.053,4.329,4.329,0,0,1,.668-.268h0a3.8,3.8,0,0,1,.412-.111l-.938-.086-.379-.035a3.664,3.664,0,0,1,3.287-2.759h.273a2.966,2.966,0,0,1,.4.033,1.123,1.123,0,0,1-.67-1.095,3.644,3.644,0,0,0,2.324.774h.1a7.582,7.582,0,0,1-.086-.827h0a8.389,8.389,0,0,1,0-1.128,2.134,2.134,0,0,0,1.715.572l-.526-.733a2.4,2.4,0,0,0,1.659.518l.121-.013a1.771,1.771,0,0,0,.3-.058h.023c-.048-.061-.091-.124-.134-.19l-.015-.03a2.446,2.446,0,0,1-.253-.529,1.666,1.666,0,0,1-.061-.22h0a2.213,2.213,0,0,1,.114-1.378c.817.683,1.712,1.616,2.782.91s1.105-2,2.782-1.869a2.579,2.579,0,0,1,2.127,1.548,1.707,1.707,0,0,1,1.94-.443,1.732,1.732,0,0,1,.981,1.742,3.494,3.494,0,0,1,2.111-.083,1.233,1.233,0,0,1,.718,1.684.36.36,0,0,1-.035.051c-.311.4-1,.622-.926,1.128l.106.076.329.238q1.935,1.4,3.768,2.933a3.05,3.05,0,0,1,1.338,1.98,2.188,2.188,0,0,1-.061.6h0c-.04.2-.1.395-.139.592a4.935,4.935,0,0,0-.086,1.53h0c.018.149.04.3.068.445.387,1.955,1.95,3.568,2.1,5.563v.142a4.491,4.491,0,0,1-.018.64,13.652,13.652,0,0,1-1.133,3.54c-.028.071-.056.142-.081.212a35.23,35.23,0,0,0-1.77,7.121,25.356,25.356,0,0,1-.506,2.552,6.76,6.76,0,0,1-1.287,2.637,4.1,4.1,0,0,1-.85.759,4.723,4.723,0,0,1-.67.357v.015c.028.154.051.309.078.463.015.081.028.162.043.253h0a.035.035,0,0,0,0,.015c.212,1.2.455,2.367.711,3.48l.129.554c3.186,1.151,3.563,3.507,3.586,4.41a2.441,2.441,0,0,1,0,.362s4.8.126,6.7,1.517a5.143,5.143,0,0,0,1.14.582,20.99,20.99,0,0,0,2.339.731c.407.106.832.21,1.264.311.759.174,1.563.344,2.339.506,2.071.417,4.021.759,5.01,1.012,2.359.6,7.756,5.771,7.756,5.771s.632,5.219,1.264,5.981a22.555,22.555,0,0,1,1.77,3.437L478,422.369l1.77,3.128h1.138a1.935,1.935,0,0,1,.812.531c.3.268.635.6.928.905l.486.518.3.336a2.625,2.625,0,0,1,2.337,1.5,11.414,11.414,0,0,1,4.623.632,3.577,3.577,0,0,1,.506.273,2.2,2.2,0,0,1,1.044,1.431,2.113,2.113,0,0,1,.046.364v.43a7.052,7.052,0,0,1-2.483,4.58l.081.144s-.038.091-.111.253c-.02.048-.046.1-.073.162h0c-.149.319-.387.8-.7,1.355a16.01,16.01,0,0,1-2.42,3.33l-.073.076-14.6.134-.043-.051-2.832-3.378-1.409-1.679-.043-.053-.04.4-.137,1.34-.329,3.239-.018.162v.043l-.038.374.028-.374h-.073l-27.058.253-44.41.491v.212h-.035v-.212l-11.316.121Z" transform="translate(-306.767 -303.72)" fill="url(#linear-gradient)"/>
  <path id="Path_1074" data-name="Path 1074" d="M550.221,467.866s-25.161,3.035-22.759,0c.87-1.1,1.11-4.349,1.062-8.054-.015-1.125-.056-2.291-.114-3.452-.278-5.563-.948-11-.948-11s22-10.368,19.472-2.149c-1.011,3.32-.68,7.983.089,12.361.225,1.277.485,2.529.759,3.717a87.146,87.146,0,0,0,2.44,8.578Z" transform="translate(-414.024 -372.499)" fill="#fbbebe"/>
  <path id="Path_1075" data-name="Path 1075" d="M550.221,522.953s-25.161,3.035-22.759,0c.87-1.1,1.11-4.35,1.062-8.054,3.836-1.639,8.717-.417,8.717-.417,5.138-1.024,8.433-.824,10.54-.106A87.14,87.14,0,0,0,550.221,522.953Z" transform="translate(-414.024 -427.586)" opacity="0.1"/>
  <path id="Path_1076" data-name="Path 1076" d="M395.527,568.768v-.212l44.41-.483,27.058-.253h.076l-.028.374.038-.374h.048v-.043l.346-3.4.132-1.287.04-.4.035-.336,1.563-5.212,1.563-5.2,1.315-4.382,2.008-6.7a22.468,22.468,0,0,0-1.77-3.414c-.632-.759-1.264-5.943-1.264-5.943s-5.4-5.141-7.756-5.733c-.989-.253-2.941-.589-5.015-1.012-.776-.157-1.573-.324-2.339-.506-.432-.1-.857-.2-1.264-.306a22.242,22.242,0,0,1-2.339-.723,5.232,5.232,0,0,1-1.138-.579c-1.859-1.363-6.517-1.517-6.7-1.517h0a.107.107,0,0,1,0-.018v-.023a2.587,2.587,0,0,0,0-.319,2.033,2.033,0,0,0-.023-.354.319.319,0,0,0-.018-.126c-.013-.091-.028-.187-.051-.288a1.263,1.263,0,0,0-.03-.134,4.356,4.356,0,0,0-.316-.883c-.018-.04-.04-.083-.061-.124a4.614,4.614,0,0,0-.43-.665c-.033-.043-.068-.089-.106-.131a4.951,4.951,0,0,0-.688-.668c-.068-.053-.139-.109-.212-.159a1.191,1.191,0,0,0-.129-.091l-.225-.147-.21-.121c-.185-.1-.379-.2-.592-.293-.066-.03-.137-.058-.207-.086l-.276-.106h-.015l-.19-.076c-.144-.048-.291-.091-.445-.134l-.235-.061-.253-.058-.253-.053c-.253-.051-.523-.1-.807-.132l-.288-.035-.3-.03-.306-.025-.435-.025-.506-.018a31.528,31.528,0,0,0-6.638.706,18.272,18.272,0,0,0-4.615-.425h-.22l-.253.015h-.162l-.326.03a2.421,2.421,0,0,0-.329.038c-.109.015-.223.028-.331.045l-.167.028c-.164.028-.331.058-.506.094q-.083.015-.167.038c-.22.048-.44.106-.657.172-.109.03-.217.066-.326.1-.056.015-.109.035-.162.056l-.162.058-.159.063-.19.076c-.1.04-.19.083-.283.129-.053.023-.106.048-.157.076s-.1.051-.152.078a7.02,7.02,0,0,0-1.57,1.108l-.129.124-.126.129c-.043.043-.083.089-.124.134a6.027,6.027,0,0,0-.46.569c-.04.053-.078.106-.116.162a6.753,6.753,0,0,0-.435.738c-.033.061-.063.124-.094.185a8.264,8.264,0,0,0-.506,1.328q-.071.253-.129.506s-5.353,2.362-9.794,4.071c-1.181.455-2.294.867-3.224,1.178l-.759.253a6.755,6.755,0,0,1-1.581.364,4.971,4.971,0,0,0-.759.071c-2.041.331-5.538,1.77-5.92,3.214a.934.934,0,0,0-.025.354v.028c.253,1.77-1.517,1.517-1.517,1.517s-.632,4.678-1.517,5.943a9.954,9.954,0,0,0-1.133,4.473h0a4.959,4.959,0,0,0,.111,1.424v.035a6.242,6.242,0,0,1-.554,2.45c-.448,1.3-1.1,2.921-1.727,4.448a51.8,51.8,0,0,0-1.892,4.86c-.023.2-.089.572-.18,1.044-.369,1.927-1.189,5.6-1.593,7.081-.3,1.108-.738,2.625-1.039,3.667a.355.355,0,0,1-.025.089l11.336-.111v.212h.035Z" transform="translate(-307.088 -429.055)" fill="#3598db"/>
  <path id="Path_1077" data-name="Path 1077" d="M445.44,607.57s14.414,7.46,19.6,6.575Z" transform="translate(-352.864 -497.663)" opacity="0.1"/>
  <path id="Path_1078" data-name="Path 1078" d="M561.44,595.57s14.035,4.552,18.713,5.184S561.44,595.57,561.44,595.57Z" transform="translate(-439.531 -488.698)" opacity="0.1"/>
  <path id="Path_1079" data-name="Path 1079" d="M542.908,522.8c-7.333,1.35-21.141,1.06-27.108.855,2.187-7.839,12.854-5.174,12.854-5.174C541.856,515.845,542.868,521.312,542.908,522.8Z" transform="translate(-405.432 -430.574)" opacity="0.1"/>
  <path id="Path_1080" data-name="Path 1080" d="M542.908,520.8c-7.333,1.35-21.141,1.06-27.108.855,2.187-7.839,12.854-5.174,12.854-5.174C541.856,513.845,542.868,519.312,542.908,520.8Z" transform="translate(-405.432 -429.079)" fill="#3598db"/>
  <path id="Path_1081" data-name="Path 1081" d="M776.94,671.655s8.638-1.328,8.808,2.466-4.405,6.443-4.405,6.443Z" transform="translate(-600.535 -545.374)" fill="#fbbebe"/>
  <path id="Path_1082" data-name="Path 1082" d="M547.455,455.571a11.883,11.883,0,0,1-1.138.44,40.643,40.643,0,0,1-8.345,2.233,13.635,13.635,0,0,1-8.385-1.391,7.265,7.265,0,0,1-.759-.493c-.278-5.563-.948-11-.948-11s22-10.368,19.472-2.149C546.345,446.53,546.687,451.193,547.455,455.571Z" transform="translate(-414.457 -372.499)" opacity="0.1"/>
  <path id="Path_1083" data-name="Path 1083" d="M519.2,355.137a2.4,2.4,0,0,1-2.1-.443l.526.731a2.142,2.142,0,0,1-1.715-.569,8.618,8.618,0,0,0,.081,1.96,3.672,3.672,0,0,1-2.417-.759,1.117,1.117,0,0,0,.668,1.09,3.626,3.626,0,0,0-3.945,2.708l1.32.121a4.671,4.671,0,0,0-2.64,1.611,2.045,2.045,0,0,0-.536,1.77c.177.617,1.032,1.012,1.5.572a7.065,7.065,0,0,0-1.543,5.763,3.658,3.658,0,0,1,.116,1.33,11.281,11.281,0,0,1-.478,1.186,3.746,3.746,0,0,0,.212,2.276l1.186,3.9c.43,1.409.857,2.82,1.419,4.183a20.757,20.757,0,0,1,1.012,2.658c.319,1.224.331,2.564,1.012,3.634a5.039,5.039,0,0,0,1.816,1.6,13.642,13.642,0,0,0,8.385,1.391,40.613,40.613,0,0,0,8.332-2.233,7.838,7.838,0,0,0,1.73-.759c1.884-1.234,2.3-3.758,2.655-5.981a33.957,33.957,0,0,1,1.844-7.283,9.827,9.827,0,0,0,1.143-4.284c-.154-1.975-1.717-3.576-2.1-5.518a4.805,4.805,0,0,1,.018-1.965,4.467,4.467,0,0,0,.2-1.188,3.032,3.032,0,0,0-1.338-1.965q-2.041-1.7-4.213-3.222c-.073-.506.615-.723.926-1.123.44-.564-.015-1.459-.683-1.722a3.5,3.5,0,0,0-2.112.083,1.666,1.666,0,0,0-2.921-1.292,2.579,2.579,0,0,0-2.129-1.537c-1.677-.132-1.709,1.151-2.782,1.856s-1.957-.225-2.782-.9A2.347,2.347,0,0,0,519.2,355.137Z" transform="translate(-399.546 -306.611)" fill="#3f3d56"/>
  <path id="Path_1084" data-name="Path 1084" d="M729.552,631.538s-.225.536-.64,1.312a17.452,17.452,0,0,1-2.276,3.33l-.068.073h-.41l-14.6.134h-.349l-.043-.051-2.832-3.361-1.067-1.267-.043-.053-.091-.106-.051-.061-.066-.078-2.076-2.463.759-3.161,1.292-5.326.033-.129.253-1.011.18-.759.6-2.473,2.063-8.509,3.667,1.9,3.866,6.828,2.076,3.667h1.138c.215,0,.708.415,1.2.893.177.169.354.349.506.506.45.465.807.865.807.865s1.843.04,2.339,1.492a1.752,1.752,0,0,1,.063.215,10.2,10.2,0,0,0,.64,1.659c.326.71.736,1.517,1.151,2.324.771,1.479,1.555,2.888,1.843,3.4l.035.063Z" transform="translate(-546.743 -497.671)" fill="#3598db"/>
  <path id="Path_1085" data-name="Path 1085" d="M501.647,648.475l-.025.362v.025l-.043.582-.336,4.681-.407,5.639-.116,1.588-.253,3.4v.043l-27.058.253-44.4.48v.212h-.035v-.283l.114-3.631.217-7.1.187-6.016.018-.6a2.663,2.663,0,0,1,2.888-2.572c1.194.1,2.744.225,4.6.357l.759.056a409.509,409.509,0,0,0,50.449.506c.42-.023.842-.048,1.264-.078,3.1-.195,6.188-.445,9.25-.759a2.663,2.663,0,0,1,2.933,2.84Z" transform="translate(-340.559 -526.025)" opacity="0.1"/>
  <path id="Path_1086" data-name="Path 1086" d="M429.08,668.75v-.212l44.41-.483,27.058-.253h.076v-.043l.253-3.4.109-1.517.415-5.718.326-4.526v-.111a2.685,2.685,0,0,0-.028-.625.075.075,0,0,0,0-.025,2.628,2.628,0,0,0-.506-1.173,2.665,2.665,0,0,0-2.382-1.012c-3.062.314-6.155.564-9.25.759-.422.03-.845.056-1.264.078a414.66,414.66,0,0,1-50.449-.506l-.759-.056c-1.854-.132-3.4-.253-4.6-.357a2.665,2.665,0,0,0-2.842,2.157,2.791,2.791,0,0,0-.046.415l-.172,5.6-.235,7.1-.111,3.631v.283Z" transform="translate(-340.641 -529.037)" fill="#3f3d56"/>
  <path id="Path_1087" data-name="Path 1087" d="M501.827,658.875l-.311,3.877-.463,5.778-.116,1.446-.253,3.239-.015.162v.043h0l-.038.374.028-.374h-.073l-27.058.253-44.418.48v-.071l.124-3.631.253-7.1.162-4.716a1.609,1.609,0,0,1,.774-1.328,1.581,1.581,0,0,1,.956-.228c.531.043,1.184.094,1.945.149,1.237.091,2.761.2,4.537.309,3.287.207,7.412.43,12.138.612a395.166,395.166,0,0,0,47.763-.8c.759-.066,1.543-.139,2.309-.212a1.583,1.583,0,0,1,.88.167,1.3,1.3,0,0,1,.218.137,1.554,1.554,0,0,1,.506.622.906.906,0,0,1,.063.154A1.588,1.588,0,0,1,501.827,658.875Z" transform="translate(-340.664 -534.652)" opacity="0.1"/>
  <path id="Path_1088" data-name="Path 1088" d="M342.2,677.87v.807a1.55,1.55,0,0,1-.885,1.4l-10.14.195a1.548,1.548,0,0,1-.9-1.409v-.759Z" transform="translate(-266.818 -550.186)" opacity="0.1"/>
  <path id="Path_1089" data-name="Path 1089" d="M259.563,509.092l-13.213.253v-2.192l13.213-.253Z" transform="translate(-184.056 -378.725)" fill="#3f3d56"/>
  <path id="Path_1090" data-name="Path 1090" d="M259.563,509.092l-13.213.253v-2.192l13.213-.253Z" transform="translate(-184.056 -378.725)" opacity="0.1"/>
  <path id="Path_1091" data-name="Path 1091" d="M261.563,509.092l-13.213.253v-2.192l13.213-.253Z" transform="translate(-185.551 -378.725)" fill="#3f3d56"/>
  <g id="Group_1404" data-name="Group 1404" transform="translate(108.478 46.599)" opacity="0.1">
    <path id="Path_1092" data-name="Path 1092" d="M551.433,358.318a2.467,2.467,0,0,1-.478-1.1,2.4,2.4,0,0,0,.106,1.163A2.282,2.282,0,0,0,551.433,358.318Z" transform="translate(-540.154 -357.22)"/>
    <path id="Path_1093" data-name="Path 1093" d="M539.954,365.436a8.872,8.872,0,0,1-.094-.936v.938Z" transform="translate(-531.885 -362.659)"/>
    <path id="Path_1094" data-name="Path 1094" d="M621.679,395.294a4.632,4.632,0,0,1,.091-.67,4.553,4.553,0,0,0,.2-1.186,1.56,1.56,0,0,0-.04-.268c-.043.233-.111.465-.162.7A4.839,4.839,0,0,0,621.679,395.294Z" transform="translate(-593.001 -384.079)"/>
    <path id="Path_1095" data-name="Path 1095" d="M600.914,366.882l.276.2a4.99,4.99,0,0,0,.65-.561.928.928,0,0,0,.1-.92.757.757,0,0,1-.1.162C601.528,366.161,600.841,366.381,600.914,366.882Z" transform="translate(-577.496 -363.481)"/>
    <path id="Path_1096" data-name="Path 1096" d="M518.11,380.29a3.112,3.112,0,0,0-.22.577,4.592,4.592,0,0,1,1.264-.478Z" transform="translate(-515.471 -374.456)"/>
    <path id="Path_1097" data-name="Path 1097" d="M531.139,368.491a3.744,3.744,0,0,1-.475-.311,1.07,1.07,0,0,0,.023.3A3,3,0,0,1,531.139,368.491Z" transform="translate(-525.013 -365.408)"/>
    <path id="Path_1098" data-name="Path 1098" d="M539.174,428.33a13.021,13.021,0,0,1-1.138,3.571,33.941,33.941,0,0,0-1.843,7.285c-.352,2.223-.759,4.747-2.655,5.978a7.588,7.588,0,0,1-1.727.759,40.485,40.485,0,0,1-8.345,2.233,13.635,13.635,0,0,1-8.385-1.388,5.058,5.058,0,0,1-1.816-1.6c-.675-1.07-.688-2.41-1.011-3.634a20.8,20.8,0,0,0-1.012-2.66c-.559-1.361-.989-2.782-1.416-4.18q-.594-1.95-1.186-3.9a7.287,7.287,0,0,1-.288-1.2,4.532,4.532,0,0,0,.288,1.96q.592,1.955,1.186,3.9c.427,1.409.857,2.82,1.416,4.18a20.8,20.8,0,0,1,1.012,2.66c.319,1.224.331,2.564,1.011,3.634a5.057,5.057,0,0,0,1.816,1.6,13.644,13.644,0,0,0,8.385,1.388,40.785,40.785,0,0,0,8.345-2.233,7.584,7.584,0,0,0,1.727-.759c1.884-1.232,2.3-3.755,2.655-5.978a33.941,33.941,0,0,1,1.843-7.285,9.81,9.81,0,0,0,1.143-4.284C539.179,428.36,539.174,428.345,539.174,428.33Z" transform="translate(-508.324 -410.348)"/>
    <path id="Path_1099" data-name="Path 1099" d="M509.965,417.975v-.028a3.54,3.54,0,0,0-.116-1.328,6.724,6.724,0,0,1-.1-.84,6.916,6.916,0,0,0,.1,1.6C509.889,417.576,509.934,417.775,509.965,417.975Z" transform="translate(-509.382 -400.972)"/>
    <path id="Path_1100" data-name="Path 1100" d="M511.06,395.585a7.022,7.022,0,0,1,.66-.928c-.463.443-1.318.048-1.5-.566a1.475,1.475,0,0,0,0,.759,1.11,1.11,0,0,0,.837.736Z" transform="translate(-509.706 -384.766)"/>
  </g>
  <path id="Path_1101" data-name="Path 1101" d="M762.387,656.57a10.987,10.987,0,0,1,0,5.437C761.586,664.536,762.387,656.57,762.387,656.57Z" transform="translate(-589.397 -534.272)" opacity="0.1"/>
  <path id="Path_1102" data-name="Path 1102" d="M774.941,668.3s.336,3.692-.422,4.347S774.941,668.3,774.941,668.3Z" transform="translate(-598.537 -543.036)" opacity="0.1"/>
  <line id="Line_1" data-name="Line 1" y1="0.253" x2="25.695" transform="translate(50.317 86.44)" fill="none" stroke="#3598db" stroke-miterlimit="10" stroke-width="2"/>
  <line id="Line_2" data-name="Line 2" y1="0.25" x2="25.695" transform="translate(50.317 89.596)" fill="none" stroke="#3598db" stroke-miterlimit="10" stroke-width="2"/>
  <line id="Line_3" data-name="Line 3" y1="0.253" x2="25.695" transform="translate(50.317 92.749)" fill="none" stroke="#3598db" stroke-miterlimit="10" stroke-width="2"/>
</svg>
