<svg id="Group_1406" data-name="Group 1406" xmlns="http://www.w3.org/2000/svg" width="259.549" height="166.303" viewBox="0 0 259.549 166.303">
  <rect id="Rectangle_1806" data-name="Rectangle 1806" width="259.438" height="166.156" transform="translate(0.111 0.147)" fill="#e6e6e6"/>
  <rect id="Rectangle_1807" data-name="Rectangle 1807" width="249.711" height="146.648" transform="translate(4.975 15.437)" fill="#fff"/>
  <rect id="Rectangle_1808" data-name="Rectangle 1808" width="259.438" height="11.022" fill="#3598db"/>
  <ellipse id="Ellipse_412" data-name="Ellipse 412" cx="2.043" cy="2.043" rx="2.043" ry="2.043" transform="translate(6.148 3.592)" fill="#fff"/>
  <ellipse id="Ellipse_413" data-name="Ellipse 413" cx="2.043" cy="2.043" rx="2.043" ry="2.043" transform="translate(13.902 3.592)" fill="#fff"/>
  <ellipse id="Ellipse_414" data-name="Ellipse 414" cx="2.043" cy="2.043" rx="2.043" ry="2.043" transform="translate(21.656 3.592)" fill="#fff"/>
  <path id="Path_1103" data-name="Path 1103" d="M454.49,365.191s.938,12.94.51,13.7,7.509,14.43,7.509,14.43L475.2,381.431s-.768-16.449.049-17.191S454.49,365.191,454.49,365.191Z" transform="translate(-371.511 -308.541)" fill="#a0616a"/>
  <circle id="Ellipse_415" data-name="Ellipse 415" cx="14.832" cy="14.832" r="14.832" transform="translate(78.937 36.869)" fill="#a0616a"/>
  <path id="Path_1104" data-name="Path 1104" d="M452.669,410.058l-1.522-.855-7.509-6.763s-.748-.279-.861,2.06l-.113,2.339-4.848,3.283-.222,53.133,33.527,1.62,1.411-53.466-7.571-5.055-1.387-2.957-8.528,6Z" transform="translate(-360.049 -334.577)" fill="#fff"/>
  <path id="Path_1105" data-name="Path 1105" d="M442.6,415.09l-3.708,54.085H382.9c-7.135-8.446-12.833-51.907-6.752-53.2,1.987-.687,15.456-4.918,15.456-4.918s4.024-2.541,5.308-4.82a17.675,17.675,0,0,1,2.873-3.7l.008-.008,0-.008c.031-.031.059-.062.09-.09a.052.052,0,0,1,.027-.023c.039-.043.078-.082.121-.121v.059l-.285,9.89,10.726,36.86s3.021-22.127,6.089-29.012a46.6,46.6,0,0,0,3.1-12.111c.355-2.666.445-4.52.445-4.52l.043.055v0a0,0,0,0,0,0,0h0c.047.059.121.156.23.289l0,0c.9,1.124,3.778,4.528,5.73,4.621,2.338.113,8.758,4.723,8.758,4.723C438.012,412.912,442.6,415.09,442.6,415.09Z" transform="translate(-316.619 -334.481)" fill="#2f2e41"/>
  <path id="Path_1106" data-name="Path 1106" d="M532.167,543.3s4.224-14.645,10.387-12.784-.6,12.475-.6,12.475Z" transform="translate(-424.207 -421.363)" fill="#a0616a"/>
  <path id="Path_1107" data-name="Path 1107" d="M431.948,577.351S418.174,570.824,421,565.042s12.216,2.6,12.216,2.6Z" transform="translate(-348.533 -443.513)" fill="#a0616a"/>
  <path id="Path_1108" data-name="Path 1108" d="M456.7,582.362H453.4a33.537,33.537,0,0,0-4.036-.742c-.312-.016-.414-.5-.375-1.276a24.27,24.27,0,0,1,.628-3.79c.472-2.108,1.1-4.387,1.51-5.839v0c.238-.847.394-1.409.4-1.491.012-.258,2.174.1,3.665.371.784.144,1.382.266,1.382.266l.074,7.037Z" transform="translate(-367.773 -447.667)" fill="#fff"/>
  <path id="Path_1109" data-name="Path 1109" d="M513.017,489.441c-.952,2.7-1.639,4.832-2.2,6.46h-43.3c-.144-1.491-.328-3.532-.445-5.554-.191-3.236-.222-6.421.3-7.217a.372.372,0,0,1,.234-.183c1.011-.2,12.431-.379,20.518-.484l3.142-.035c2.916-.035,4.891-.055,4.891-.055s.156-5.339.632-12.146c.839-11.967,2.674-28.473,6.413-28.543l2.732.133s1.557.074,2.225,2.451S515.734,481.756,513.017,489.441Z" transform="translate(-379.962 -361.206)" fill="#2f2e41"/>
  <path id="Path_1110" data-name="Path 1110" d="M437.562,291.02l-2.762-1.158s6.161-5.593,14.314-4.687l-2.189-2.411s5.721-1.773,10.572,3.841c2.55,2.951,5.5,6.417,7.256,10.246l3.01.145-1.378,2.452,4.276,2.725-4.492-.669a12.7,12.7,0,0,1-.741,6.487l-1.158,2.761s-3.694-8.375-3.644-9.4l-.123,2.555s-2.7-2.436-2.626-3.969l-1.62,1.715-.631-2.848-9.591,2.354,1.644-2.226-5.914.483,2.436-2.7s-6.8,3-7.2,5.8-3.886,6.215-3.886,6.215l-1.41-2.629S429.966,294.495,437.562,291.02Z" transform="translate(-355.94 -253.214)" fill="#2f2e41"/>
  <path id="Path_1111" data-name="Path 1111" d="M481.711,378.7H286.2V268.442H481.711Zm-194.865-.643H481.068V269.085H286.846Z" transform="translate(-257.345 -243.679)" fill="#e6e6e6"/>
  <path id="Path_1112" data-name="Path 1112" d="M746.183,304.029a7.181,7.181,0,0,0-5.506-3.269s-3.564-.456-5.85,4.3c-2.131,4.434-5.072,8.716-.474,9.754l.831-2.585.514,2.778a18,18,0,0,0,1.967.034c4.925-.159,9.615.046,9.464-1.721C746.929,310.971,747.962,307.034,746.183,304.029Z" transform="translate(-559.719 -265.595)" fill="#2f2e41"/>
  <path id="Path_1113" data-name="Path 1113" d="M749.755,335.16a1.95,1.95,0,0,1-.168,1.028c-.346.605-1.192.7-1.7,1.173a2.856,2.856,0,0,0-.621,2.048,5.659,5.659,0,0,0,.23,2.271,5.516,5.516,0,0,0,.645,1.108q.466.671.94,1.337a5.778,5.778,0,0,0,.563.706,4.8,4.8,0,0,0,2.119,1.124,2.648,2.648,0,0,0,1.539.1,2.948,2.948,0,0,0,.9-.551,4.8,4.8,0,0,0,1.013-.982,4.574,4.574,0,0,0,.62-2.095,45.206,45.206,0,0,0,.3-6.511,1.6,1.6,0,0,0-.124-.692c-.258-.5-.947-.61-1.311-1.043a2.085,2.085,0,0,1-.321-1.381l.007-1.23a.515.515,0,0,0-.06-.3.507.507,0,0,0-.353-.165,11.888,11.888,0,0,0-2.313-.155,5.712,5.712,0,0,0-2.375.316c-.493.317.124,1.194.238,1.686A10.99,10.99,0,0,1,749.755,335.16Z" transform="translate(-570.11 -286.084)" fill="#ffb8b8"/>
  <circle id="Ellipse_416" data-name="Ellipse 416" cx="4.97" cy="4.97" r="4.97" transform="translate(176.115 37.024)" fill="#ffb8b8"/>
  <path id="Path_1114" data-name="Path 1114" d="M742.655,350.007a1.361,1.361,0,0,0-1.657.423,3,3,0,0,0-.545,1.749,11.427,11.427,0,0,1-.133,1.855c-.3,1.341-1.406,2.444-1.489,3.815-.081,1.349.844,2.524,1.3,3.8a6.333,6.333,0,0,1,.339,2.472.992.992,0,0,0,.159.771.88.88,0,0,0,.344.185,22.379,22.379,0,0,0,6.9.9l3.844.1a1.225,1.225,0,0,0,.679-.114c.345-.211.391-.685.4-1.09.05-3.484-.1-6.967-.246-10.448a22.186,22.186,0,0,0-.376-3.765,1.08,1.08,0,0,0-.47-.8,1.037,1.037,0,0,0-.792.053c-1.191.443-4.978,2.141-5.352,1.537C745.12,350.739,742.444,350.532,742.655,350.007Z" transform="translate(-564.405 -298.87)" fill="#fff"/>
  <path id="Path_1115" data-name="Path 1115" d="M735.234,345.989c-.1.069-.194.143-.287.22a5.55,5.55,0,0,0-.923.972,7.7,7.7,0,0,0-1.046,1.973,19.1,19.1,0,0,0-.834,3.848,9.286,9.286,0,0,0-.132,1.45c.029,1.787,1.085,3.442,1.086,5.231,0,.068,0,.134-.005.2a5.87,5.87,0,0,1-.1.872c-.077.42-.189.834-.3,1.247a11.9,11.9,0,0,1-1.116,3.016c-.054.092-.113.183-.173.272h-3.8c.03-.091.061-.181.091-.272l1.942-5.755c.2-.587.4-1.176.536-1.779a16.868,16.868,0,0,0,.327-2.258q.224-2.361.295-4.731a5.753,5.753,0,0,1,.213-1.685,5.512,5.512,0,0,1,.676-1.233l1.177-1.772a2.722,2.722,0,0,1,.785-.872c.281-.172.615-.235.911-.38a4.658,4.658,0,0,0,.535-.354c.443-.314.963-.644,1.344-.323a.745.745,0,0,1,.158.181.911.911,0,0,1,.058.1C737.017,344.955,735.727,345.64,735.234,345.989Z" transform="translate(-556.791 -294.765)" fill="#2f2e41"/>
  <path id="Path_1116" data-name="Path 1116" d="M753.136,399.325H735.527c.1-.087.189-.178.28-.272l.039-.041a6.389,6.389,0,0,0,1.165-2.469l.762-2.056a1.064,1.064,0,0,1,.194-.365.6.6,0,0,1,.268-.16,1.039,1.039,0,0,1,.236-.043,2.622,2.622,0,0,1,.344,0q4.74.244,9.473.6l1.222.094c.333.247.661.509.975.786a8.727,8.727,0,0,1,2.41,3.2c.061.151.117.3.163.46C753.087,399.143,753.113,399.234,753.136,399.325Z" transform="translate(-562.167 -328.799)" fill="#2f2e41"/>
  <path id="Path_1117" data-name="Path 1117" d="M556.939,114.58l-3.613-1.893-4.99.774-1.032,4.56,2.57-.1.718-1.675v1.647l1.186-.045.688-2.667.43,2.839,4.215-.086Z" transform="translate(-371.293 -76.447)" fill="#2f2e41"/>
  <path id="Path_1118" data-name="Path 1118" d="M775.036,363.8H771.06c-.029-.09-.056-.181-.081-.272a21.355,21.355,0,0,1-.616-3.08c-.042-.3-.079-.6-.113-.893-.022-.189-.042-.376-.062-.565a31.511,31.511,0,0,0-1.044-6.22c-.077-.243-.162-.485-.243-.726a8.573,8.573,0,0,1-.353-1.278c-.174-.994-.044-2.023-.223-3.016-.1-.554-.3-1.042-.421-1.549a3.138,3.138,0,0,1-.09-.938,2.021,2.021,0,0,1,1.058-.524.557.557,0,0,0,.375-.151.471.471,0,0,0,.063-.277,13.307,13.307,0,0,0-.11-1.916c-.027-.223-.061-.445-.1-.667,0-.011,0-.02-.005-.031a2.63,2.63,0,0,1,1.065-.144l1.175,0,2.171.007a4.779,4.779,0,0,1,1.982.286,3.155,3.155,0,0,1,1.431,1.467,8.44,8.44,0,0,1,.646,1.978,2.651,2.651,0,0,1,.068.572c.03,1.529-1.111,3.069-1.225,4.632-.037.507.005,1.017-.041,1.524s-.182,1-.206,1.513c0,.026,0,.053,0,.079a5.443,5.443,0,0,0,.4,1.932c.345.968.765,1.906,1.2,2.839.418.9.847,1.8,1.233,2.717a4.648,4.648,0,0,1,.4,1.343,1.864,1.864,0,0,1-.205,1.085,1.266,1.266,0,0,1-.162.229l0,0-.037.039Z" transform="translate(-584.067 -293.269)" fill="#2f2e41"/>
  <path id="Path_1119" data-name="Path 1119" d="M796.195,404.355a1.506,1.506,0,0,1-.145.52l-.02.048c-.079.186-.159.369-.242.554-.041.09-.081.181-.123.272h-2.249a2.515,2.515,0,0,0,.225-.272c.345-.479.544-1.062.9-1.579a1.221,1.221,0,0,1,.164-.2C795.265,403.156,796.23,403.267,796.195,404.355Z" transform="translate(-601.439 -335.222)" fill="#ffb8b8"/>
  <path id="Path_1120" data-name="Path 1120" d="M793.855,368.034a2.643,2.643,0,0,0,.072-.272c.016-.072.03-.143.041-.215.072-.474.071-.959.183-1.424.159-.667.635-1.456.243-2.016a2.131,2.131,0,0,0,.843-.377.725.725,0,0,0,.228-.834c-.14-.273-.519-.454-.467-.756a.721.721,0,0,1,.133-.263,1.973,1.973,0,0,0-.034-2.164c-.124-.176-.276-.331-.388-.516a3.08,3.08,0,0,1-.281-.716,13.331,13.331,0,0,0-1.715-3.555,2.359,2.359,0,0,1-.379-.7,2.9,2.9,0,0,1-.03-.832,5.579,5.579,0,0,0-.974-3.092c-.043-.068-.088-.134-.133-.2a17.908,17.908,0,0,0-1.982-2.31,1.271,1.271,0,0,0-.7.506,1.5,1.5,0,0,0-.134.505c-.193,1.344-.36,2.7-.49,4.048a9.9,9.9,0,0,0-.054,2.053,3.314,3.314,0,0,0,.771,1.871c.289.318.656.554.969.847q.075.071.147.147a4.806,4.806,0,0,1,.6.786,6.778,6.778,0,0,1,1,4.064,6.6,6.6,0,0,1-.1.766,3.167,3.167,0,0,1-.361,1.032c-.143.235-.33.44-.459.683a.864.864,0,0,0-.062.789,1.607,1.607,0,0,1,.561.1,2.381,2.381,0,0,1,1.059.808,3.532,3.532,0,0,1,.269.413,5.106,5.106,0,0,1,.269.554c.033.075.064.152.094.23a.222.222,0,0,1,.016.042Z" transform="translate(-597.635 -297.509)" fill="#2f2e41"/>
  <path id="Path_1121" data-name="Path 1121" d="M725.655,328.279H655.333V288.442h70.322Zm-69.678-.643h69.035V289.085H655.976Z" transform="translate(-507.763 -257.247)" fill="#e6e6e6"/>
  <ellipse id="Ellipse_417" data-name="Ellipse 417" cx="7.235" cy="7.235" rx="7.235" ry="7.235" transform="translate(122.488 140.807)" fill="#e6e6e6"/>
  <ellipse id="Ellipse_418" data-name="Ellipse 418" cx="5.547" cy="5.547" rx="5.547" ry="5.547" transform="translate(124.177 142.495)" fill="#fff"/>
  <path id="Path_1122" data-name="Path 1122" d="M596.234,648.415a.251.251,0,0,1-.179-.074l-5.558-5.558a.253.253,0,0,1,.357-.357l5.559,5.558a.253.253,0,0,1-.179.431Z" transform="translate(-463.731 -497.343)" fill="#3598db"/>
  <path id="Path_1123" data-name="Path 1123" d="M597.609,652.963l-.818-.818a.031.031,0,0,0-.036-.006.032.032,0,0,0-.017.033,1.012,1.012,0,0,0,.845.845.032.032,0,0,0,.027-.053Z" transform="translate(-468.012 -503.978)" fill="#3598db"/>
  <path id="Path_1124" data-name="Path 1124" d="M600.213,648.716l.819.819a.032.032,0,0,0,.054-.027,1.013,1.013,0,0,0-.846-.846.032.032,0,0,0-.027.054Z" transform="translate(-470.364 -501.622)" fill="#3598db"/>
  <path id="Path_1125" data-name="Path 1125" d="M601.057,646.713a.508.508,0,0,0,0-.549,5.352,5.352,0,0,0-1.568-1.587,3.972,3.972,0,0,0-2.147-.664,3.581,3.581,0,0,0-1.134.186.063.063,0,0,0-.025.1l.746.746a.063.063,0,0,0,.06.017,1.516,1.516,0,0,1,1.832,1.832.063.063,0,0,0,.017.06l1.073,1.074a.063.063,0,0,0,.085,0A5.433,5.433,0,0,0,601.057,646.713Z" transform="translate(-467.623 -498.399)" fill="#3598db"/>
  <path id="Path_1126" data-name="Path 1126" d="M591.845,650.137a1.516,1.516,0,0,1-1.473-1.873.063.063,0,0,0-.017-.06l-1.056-1.056a.063.063,0,0,0-.085,0,6.315,6.315,0,0,0-1.069,1.2.5.5,0,0,0-.01.561,5.273,5.273,0,0,0,1.552,1.589,3.913,3.913,0,0,0,2.152.657,3.761,3.761,0,0,0,1.147-.182.063.063,0,0,0,.025-.1l-.75-.749a.063.063,0,0,0-.06-.017A1.515,1.515,0,0,1,591.845,650.137Z" transform="translate(-462.122 -500.581)" fill="#3598db"/>
  <ellipse id="Ellipse_419" data-name="Ellipse 419" cx="7.235" cy="7.235" rx="7.235" ry="7.235" transform="translate(95.037 140.807)" fill="#e6e6e6"/>
  <ellipse id="Ellipse_420" data-name="Ellipse 420" cx="5.547" cy="5.547" rx="5.547" ry="5.547" transform="translate(96.725 142.495)" fill="#fff"/>
  <path id="Path_1127" data-name="Path 1127" d="M509.154,647.855a2.974,2.974,0,0,1-1.39-.474,9.035,9.035,0,0,1-2.183-1.632,8.283,8.283,0,0,1-1.639-2.182c-.582-1.058-.483-1.613-.372-1.85a1.477,1.477,0,0,1,.579-.621,2.784,2.784,0,0,1,.452-.24l.044-.019a.422.422,0,0,1,.347-.032,1.015,1.015,0,0,1,.329.253,5.475,5.475,0,0,1,.824,1.223,1.218,1.218,0,0,1,.162.5.792.792,0,0,1-.2.471l-.061.081c-.12.158-.147.2-.129.285a3,3,0,0,0,.729,1.082,2.871,2.871,0,0,0,1.069.712c.085.018.132-.009.294-.134l.072-.055a.8.8,0,0,1,.478-.214h0a1.144,1.144,0,0,1,.5.177,6.034,6.034,0,0,1,1.218.818,1.015,1.015,0,0,1,.253.329.426.426,0,0,1-.032.347l-.019.043a2.792,2.792,0,0,1-.241.451,1.477,1.477,0,0,1-.622.578A1.063,1.063,0,0,1,509.154,647.855Z" transform="translate(-404.75 -496.276)" fill="#3598db"/>
  <ellipse id="Ellipse_421" data-name="Ellipse 421" cx="7.235" cy="7.235" rx="7.235" ry="7.235" transform="translate(150.152 140.807)" fill="#e6e6e6"/>
  <ellipse id="Ellipse_422" data-name="Ellipse 422" cx="5.547" cy="5.547" rx="5.547" ry="5.547" transform="translate(151.841 142.495)" fill="#fff"/>
  <path id="Path_1128" data-name="Path 1128" d="M684.208,660.923h-2.021a.253.253,0,1,1,0-.505h2.021a.253.253,0,0,1,0,.505Z" transform="translate(-525.81 -509.597)" fill="#3598db"/>
  <path id="Path_1129" data-name="Path 1129" d="M681.065,651.665a2.276,2.276,0,0,1-2.274-2.274v-.505a.253.253,0,1,1,.505,0v.505a1.769,1.769,0,0,0,3.537,0v-.505a.253.253,0,1,1,.505,0v.505A2.276,2.276,0,0,1,681.065,651.665Z" transform="translate(-523.678 -501.602)" fill="#3598db"/>
  <path id="Path_1130" data-name="Path 1130" d="M685.329,658.258a.253.253,0,0,1-.253-.253v-1.263a.253.253,0,0,1,.505,0v1.263A.253.253,0,0,1,685.329,658.258Z" transform="translate(-527.941 -506.932)" fill="#3598db"/>
  <path id="Path_1131" data-name="Path 1131" d="M683.2,645.857a1.245,1.245,0,0,1-.893-.381,1.278,1.278,0,0,1-.37-.9v-1.753a1.258,1.258,0,0,1,1.253-1.263h.01a1.25,1.25,0,0,1,1.263,1.263v1.753A1.273,1.273,0,0,1,683.2,645.857Z" transform="translate(-525.81 -496.805)" fill="#3598db"/>
</svg>
