<svg id="Group_1389" data-name="Group 1389" xmlns="http://www.w3.org/2000/svg" width="258.216" height="151.122" viewBox="0 0 258.216 151.122">
  <path id="Path_781" data-name="Path 781" d="M201.18,659.389a1.461,1.461,0,0,0-.861.3c-.734-1.94-1.87-3.186-3.147-3.186s-2.413,1.246-3.147,3.186a1.461,1.461,0,0,0-.861-.3c-1.45,0-2.626,2.453-2.626,5.478h13.267C203.806,661.841,202.63,659.389,201.18,659.389Z" transform="translate(-186.628 -517.803)" fill="#3598db"/>
  <rect id="Rectangle_1753" data-name="Rectangle 1753" width="67.268" height="0.612" transform="translate(0 146.758)" fill="#3f3d56"/>
  <path id="Path_782" data-name="Path 782" d="M983.178,617.363a1.461,1.461,0,0,0-.861.3c-.734-1.94-1.87-3.186-3.147-3.186s-2.413,1.247-3.147,3.186a1.461,1.461,0,0,0-.861-.3c-1.45,0-2.626,2.453-2.626,5.478H985.8C985.8,619.815,984.631,617.363,983.178,617.363Z" transform="translate(-729.521 -488.627)" fill="#3598db"/>
  <path id="Path_783" data-name="Path 783" d="M546.724,291.732H482.67v-1.32H453.625v1.32H389.307a4.333,4.333,0,0,0-4.333,4.333v87.71a4.333,4.333,0,0,0,4.333,4.333H546.724a4.333,4.333,0,0,0,4.333-4.333v-87.71a4.333,4.333,0,0,0-4.333-4.333Z" transform="translate(-321.613 -263.647)" fill="#3f3d56"/>
  <rect id="Rectangle_1754" data-name="Rectangle 1754" width="154.462" height="87.136" transform="translate(69.172 35.741)" opacity="0.2"/>
  <ellipse id="Ellipse_376" data-name="Ellipse 376" cx="1.584" cy="1.584" rx="1.584" ry="1.584" transform="translate(144.686 30.198)" fill="#3598db"/>
  <rect id="Rectangle_1755" data-name="Rectangle 1755" width="224.124" height="0.612" transform="translate(34.092 133.602)" fill="#3f3d56"/>
  <path id="Path_784" data-name="Path 784" d="M622.778,352.266v-6.447a7.91,7.91,0,0,0-7.91-7.91h-6.447c0-.87-2.8-1.583-6.35-1.651v-7.774a4.417,4.417,0,1,0-1.1,0v7.774c-3.553.068-6.35.781-6.35,1.651h-7.551a7.91,7.91,0,0,0-7.91,7.91v6.447c-.915,0-1.656,3.09-1.656,6.9s.742,6.9,1.656,6.9v7.551a7.91,7.91,0,0,0,7.91,7.91h27.8a7.91,7.91,0,0,0,7.91-7.91V366.07c.915,0,1.656-3.09,1.656-6.9S623.693,352.266,622.778,352.266Z" transform="translate(-455.272 -283.969)" fill="#3598db"/>
  <path id="Path_785" data-name="Path 785" d="M420.3,184.539h24.635a7.009,7.009,0,0,1,7.009,7.009v24.635a7.009,7.009,0,0,1-7.009,7.009H420.3a7.009,7.009,0,0,1-7.009-7.009V191.548a7.009,7.009,0,0,1,7.009-7.009Z" transform="translate(-286.925 -128.114)" fill="#3f3d56"/>
  <path id="Path_786" data-name="Path 786" d="M614.073,435.552a4.975,4.975,0,0,1-4.969-4.97.276.276,0,1,1,.552,0,4.417,4.417,0,0,0,8.835,0,.276.276,0,1,1,.552,0A4.975,4.975,0,0,1,614.073,435.552Z" transform="translate(-477.212 -360.767)" fill="#3598db"/>
  <path id="Path_787" data-name="Path 787" d="M645.474,468.759a3.87,3.87,0,0,1-3.865-3.865.276.276,0,1,1,.552,0,3.313,3.313,0,0,0,6.626,0,.276.276,0,1,1,.552,0A3.869,3.869,0,0,1,645.474,468.759Z" transform="translate(-499.778 -384.587)" fill="#3598db"/>
  <path id="Path_788" data-name="Path 788" d="M671.861,435.552a4.975,4.975,0,0,1-4.97-4.97.276.276,0,0,1,.552,0,4.417,4.417,0,1,0,8.835,0,.276.276,0,0,1,.552,0,4.975,4.975,0,0,1-4.97,4.969Z" transform="translate(-517.33 -360.767)" fill="#3598db"/>
  <ellipse id="Ellipse_377" data-name="Ellipse 377" cx="2.485" cy="2.485" rx="2.485" ry="2.485" transform="translate(134.376 67.607)" fill="#3598db"/>
  <ellipse id="Ellipse_378" data-name="Ellipse 378" cx="2.485" cy="2.485" rx="2.485" ry="2.485" transform="translate(152.046 67.607)" fill="#3598db"/>
  <ellipse id="Ellipse_379" data-name="Ellipse 379" cx="2.209" cy="1.104" rx="2.209" ry="1.104" transform="translate(143.487 80.583)" fill="#3598db"/>
  <path id="Path_789" data-name="Path 789" d="M540.406,596.609H525.331v-1.086a.215.215,0,0,0-.215-.215h-5.168a.215.215,0,0,0-.215.215v1.086H516.5v-1.086a.215.215,0,0,0-.215-.215h-5.168a.215.215,0,0,0-.215.215v1.086h-3.23v-1.086a.215.215,0,0,0-.215-.215h-5.169a.215.215,0,0,0-.215.215v1.086h-3.23v-1.086a.215.215,0,0,0-.215-.215h-5.168a.215.215,0,0,0-.215.215v1.086h-3.23v-1.086a.215.215,0,0,0-.215-.215H484.63a.215.215,0,0,0-.215.215v1.086h-3.23v-1.086a.215.215,0,0,0-.215-.215H475.8a.215.215,0,0,0-.215.215v1.086h-3.23v-1.086a.215.215,0,0,0-.215-.215H431.653a.215.215,0,0,0-.215.215v1.086h-3.23v-1.086a.215.215,0,0,0-.215-.215h-5.169a.215.215,0,0,0-.215.215v1.086h-3.23v-1.086a.215.215,0,0,0-.215-.215h-5.168a.215.215,0,0,0-.215.215v1.086h-3.23v-1.086a.215.215,0,0,0-.215-.215h-5.168a.215.215,0,0,0-.215.215v1.086h-3.23v-1.086a.215.215,0,0,0-.215-.215h-5.169a.215.215,0,0,0-.215.215v1.086h-3.23v-1.086a.215.215,0,0,0-.215-.215h-5.169a.215.215,0,0,0-.215.215v1.086h-3.23v-1.086a.215.215,0,0,0-.215-.215h-5.169a.215.215,0,0,0-.215.215v1.086h-9.906a5.168,5.168,0,0,0-5.168,5.168v2.337a5.169,5.169,0,0,0,5.168,5.169H540.406a5.169,5.169,0,0,0,5.169-5.169v-2.337a5.168,5.168,0,0,0-5.169-5.169Z" transform="translate(-306.626 -475.317)" fill="#3f3d56"/>
  <rect id="Rectangle_1756" data-name="Rectangle 1756" width="103.042" height="0.612" transform="translate(92.799 97.217)" fill="#3598db"/>
  <path id="Path_790" data-name="Path 790" d="M447.628,454.567H422.25a169.827,169.827,0,0,0,0-28.742h25.378A96.266,96.266,0,0,0,447.628,454.567Z" transform="translate(-347.491 -357.656)" fill="#d0cde1"/>
  <rect id="Rectangle_1757" data-name="Rectangle 1757" width="18.346" height="1.223" transform="translate(78.428 73.979)" fill="#3f3d56"/>
  <rect id="Rectangle_1758" data-name="Rectangle 1758" width="18.346" height="1.223" transform="translate(78.428 77.954)" fill="#3f3d56"/>
  <rect id="Rectangle_1759" data-name="Rectangle 1759" width="18.346" height="1.223" transform="translate(78.428 81.928)" fill="#3f3d56"/>
  <rect id="Rectangle_1760" data-name="Rectangle 1760" width="18.346" height="1.223" transform="translate(78.428 85.903)" fill="#3f3d56"/>
  <rect id="Rectangle_1761" data-name="Rectangle 1761" width="18.346" height="1.223" transform="translate(78.428 89.878)" fill="#3f3d56"/>
  <path id="Path_791" data-name="Path 791" d="M254.946,203.858s-3.987-1.424-6.551,4.272a112.329,112.329,0,0,1-6.551,11.962l2.279.57s.57-3.988,1.994-4.557l-.57,5.127s17.089,5.981,24.779-.57l-.285-1.994s1.139.285,1.139,1.994l.855-.854a15.308,15.308,0,0,0-3.418-3.988c-1.682-1.5-2.261-4.341-2.459-6.12a7.406,7.406,0,0,0-1.7-4.033C262.75,203.693,259.646,201.595,254.946,203.858Z" transform="translate(-222.247 -202.877)" fill="#2f2e41"/>
  <path id="Path_792" data-name="Path 792" d="M69.335,414.136l1.223,7.033,4.892-.917.917-6.115Z" transform="translate(-48.135 -287.509)" fill="#ffb9b9"/>
  <path id="Path_793" data-name="Path 793" d="M251.8,630.013l-6.727.611.306,5.5-.306,7.033s-3.975,7.95,1.835,7.338,5.2-3.669,5.2-3.669L253.633,645l-.917-4.586Z" transform="translate(-223.566 -499.411)" fill="#2f2e41"/>
  <path id="Path_794" data-name="Path 794" d="M143.368,414.136l-1.223,7.033-4.892-.917-.917-6.115Z" transform="translate(-94.649 -287.509)" fill="#ffb9b9"/>
  <path id="Path_795" data-name="Path 795" d="M309.92,630.013l6.727.611-.306,5.5.306,7.033s3.975,7.95-1.835,7.338-5.2-3.669-5.2-3.669L308.085,645l.917-4.586Z" transform="translate(-268.234 -499.411)" fill="#2f2e41"/>
  <ellipse id="Ellipse_380" data-name="Ellipse 380" cx="7.033" cy="7.033" rx="7.033" ry="7.033" transform="translate(27.621 5.851)" fill="#ffb9b9"/>
  <path id="Path_796" data-name="Path 796" d="M276.085,257.013,277,268.02l8.561-.306s-2.446-7.033-.917-9.784Z" transform="translate(-246.018 -240.46)" fill="#ffb9b9"/>
  <path id="Path_797" data-name="Path 797" d="M239.865,281.026l3.522-2.2,3.817,1.891,6.115,2.752-2.14,25.99s4.892,16.205,3.975,24.155,10.09,47.7,1.223,49.533-15.288,3.669-15.594.612-.917-49.839-.917-49.839-.917,49.533-4.586,50.145-19.569,3.058-18.346-.612,9.479-67.879,13.454-71.548L231,308.85l-5.2-24.767,9.761-4.865Z" transform="translate(-204.906 -255.606)" fill="#2f2e41"/>
  <path id="Path_798" data-name="Path 798" d="M229.433,410.013l-.306,12.536s-2.943,12.377,2.045,12.3,1.319-12.3,1.319-12.3l2.14-12.23Z" transform="translate(-212.819 -346.679)" fill="#ffb9b9"/>
  <path id="Path_799" data-name="Path 799" d="M374.971,366.982l8.593,9.133s10.451,7.254,6.687,10.528-9.192-8.284-9.192-8.284l-9.755-7.681Z" transform="translate(-312.123 -316.805)" fill="#ffb9b9"/>
  <path id="Path_800" data-name="Path 800" d="M83.835,176.1l20.942-.642-.272-1.422v-.006l-20.241-.367Z" transform="translate(-58.201 -120.565)" fill="#d0cde1"/>
  <ellipse id="Ellipse_381" data-name="Ellipse 381" cx="1.835" cy="1.835" rx="1.835" ry="1.835" transform="translate(28.08 52.48)" fill="#2f2e41"/>
  <path id="Path_801" data-name="Path 801" d="M229.353,295.972l-1.987-.459a5.945,5.945,0,0,0-3.211,4.434c-.612,3.363-8.561,29.659-4.586,31.188s9.784,2.14,9.784,1.529,2.446-23.544,2.446-23.544Z" transform="translate(-206.013 -267.188)" fill="#2f2e41"/>
  <path id="Path_802" data-name="Path 802" d="M315.25,296.1l6.37-2.083a3.1,3.1,0,0,1,3.058,3.363c0,1.387,5.86,12.784,5.86,12.784s14.08,10.037,11.925,10.4c-3.669.612-5.809,7.033-5.809,7.033l-13.759-12.23Z" transform="translate(-273.208 -266.147)" fill="#2f2e41"/>
  <path id="Path_803" data-name="Path 803" d="M262.387,225.385s2.279-3.133,4.272-3.7,2.279-3.418,2.279-3.418,5.127,5.7,8.26,5.981.285-6.836.285-6.836l-5.7-1.424-5.412.57L262.1,219.4Z" transform="translate(-236.31 -211.978)" fill="#2f2e41"/>
  <ellipse id="Ellipse_382" data-name="Ellipse 382" cx="0.917" cy="1.376" rx="0.917" ry="1.376" transform="translate(26.857 10.438)" fill="#ffb9b9"/>
</svg>
