<svg id="Group_1402" data-name="Group 1402" xmlns="http://www.w3.org/2000/svg" xmlns:xlink="http://www.w3.org/1999/xlink" width="279.377" height="157.108" viewBox="0 0 279.377 157.108">
  <defs>
    <linearGradient id="linear-gradient" x1="0.5" y1="1" x2="0.5" gradientUnits="objectBoundingBox">
      <stop offset="0" stop-color="gray" stop-opacity="0.251"/>
      <stop offset="0.54" stop-color="gray" stop-opacity="0.122"/>
      <stop offset="1" stop-color="gray" stop-opacity="0.102"/>
    </linearGradient>
    <linearGradient id="linear-gradient-2" x1="-4.28" y1="0.935" x2="-4.28" y2="-0.076" xlink:href="#linear-gradient"/>
    <linearGradient id="linear-gradient-3" x1="0.5" y1="1" x2="0.5" y2="0" xlink:href="#linear-gradient"/>
  </defs>
  <path id="Path_854" data-name="Path 854" d="M215.132,200.618c-17.544.134-34.4-3.831-50.513-8.249s-32.1-9.38-49.3-11.405c-11.063-1.309-23.654-1.1-32.351,3.967C74.6,189.805,72.124,197.794,70.9,205.168c-.92,5.549-1.369,11.371,1.869,16.421,2.249,3.5,6.122,6.38,8.847,9.717,9.486,11.614,3.605,26.557-5.8,38.557-4.406,5.621-9.563,11.031-12.92,16.982s-4.756,12.672-1.436,18.5c3.293,5.775,10.8,9.933,18.863,12.757,16.389,5.737,35.5,6.868,54.108,7.232,41.193.8,82.493-1.646,123.678-4.094,15.243-.9,30.554-1.817,45.492-4.252,8.3-1.351,16.843-3.33,22.749-7.587,7.5-5.405,9.095-14.162,3.719-20.415-9.018-10.485-32.976-12.318-39.423-23.686-3.548-6.258-.389-13.481,4.215-19.565,9.9-13.054,26.862-24.794,27.261-39.331.275-9.98-8.43-19.657-21.492-23.909-13.7-4.463-32.426-3.171-42.11,5.36C248.564,196.621,230.628,200.5,215.132,200.618Z" transform="translate(-53.865 -168.378)" fill="#3598db" opacity="0.1"/>
  <path id="Path_855" data-name="Path 855" d="M947.167,680.809s-3.047-2.011-6.067-.583c0,0,.93,1.793,4.753,1.622Z" transform="translate(-716.832 -544.21)" fill="#3598db"/>
  <path id="Path_856" data-name="Path 856" d="M960.95,684.56s.927,3.531-1.4,5.933c0,0-1.4-1.455-.012-5.021Z" transform="translate(-730.24 -547.855)" fill="#3598db"/>
  <path id="Path_857" data-name="Path 857" d="M961.157,664.186s-.226-3-7.007-2.008a3.242,3.242,0,0,0,2.351,2.856A3.912,3.912,0,0,0,961.157,664.186Z" transform="translate(-726.646 -530.87)" fill="#3598db"/>
  <path id="Path_858" data-name="Path 858" d="M978.059,670.81s2.866.92.31,7.28a3.247,3.247,0,0,1-2.231-2.953A3.9,3.9,0,0,1,978.059,670.81Z" transform="translate(-743.131 -537.514)" fill="#3598db"/>
  <path id="Path_859" data-name="Path 859" d="M979.7,640.062s.389-4.942-6.541-4.433c0,0-.5,4.463,5.318,5.623Z" transform="translate(-740.933 -511.028)" fill="#3598db"/>
  <path id="Path_860" data-name="Path 860" d="M994.115,618.261s-.95-5.6-7.875-3.932c0,0-.027,4.842,6.744,5.266Z" transform="translate(-750.779 -494.803)" fill="#3598db"/>
  <path id="Path_861" data-name="Path 861" d="M1005.895,595.349s-1.592-5.455-8.455-3.823c0,0,1.634,4.907,8,4.83Z" transform="translate(-759.203 -477.659)" fill="#3598db"/>
  <path id="Path_862" data-name="Path 862" d="M1019.542,572.158s-1.555-5.661-8.182-3.967c0,0,2.212,5.378,7.743,4.927Z" transform="translate(-769.671 -460.101)" fill="#3598db"/>
  <path id="Path_863" data-name="Path 863" d="M1030.264,546.549s-1.2-6.923-7.374-5.39c0,0,1.793,6.3,6.918,6.4Z" transform="translate(-778.342 -439.842)" fill="#3598db"/>
  <path id="Path_864" data-name="Path 864" d="M1037.056,521.345s-1.433-6.98-7.686-4.959c0,0,2.452,6.6,7.245,5.913Z" transform="translate(-783.216 -421.102)" fill="#3598db"/>
  <path id="Path_865" data-name="Path 865" d="M1043.6,492.627s-2.279-6.977-7.111-6.789c0,0,2.331,7.371,6.694,8.182Z" transform="translate(-788.57 -398.402)" fill="#3598db"/>
  <path id="Path_866" data-name="Path 866" d="M1048.764,465.935s-2.479-8.4-6.414-7.753c0,0,1.718,6.422,6.273,9.062Z" transform="translate(-792.978 -377.579)" fill="#3598db"/>
  <path id="Path_867" data-name="Path 867" d="M1051.2,439.2s-2.323-7-6.2-7.28c0,0,1.579,6.888,6.119,9.1Z" transform="translate(-794.97 -357.855)" fill="#3598db"/>
  <path id="Path_868" data-name="Path 868" d="M1055.295,413.266s-2.9-7.007-5.455-7.166c0,0,1.26,6.9,5.207,8.316Z" transform="translate(-798.61 -338.437)" fill="#3598db"/>
  <path id="Path_869" data-name="Path 869" d="M1059.964,385.432s-1.78-7.612-4.344-8.242c0,0,.35,6.226,4.086,8.812Z" transform="translate(-802.957 -316.695)" fill="#3598db"/>
  <path id="Path_870" data-name="Path 870" d="M1065.02,357.139s-1.874-6.065-3.95-6.99c0,0,.412,7.151,3.471,8.475Z" transform="translate(-807.056 -296.359)" fill="#3598db"/>
  <path id="Path_871" data-name="Path 871" d="M1075.537,324.826l.38-10.7s-3.873,8.073-.664,12.583Z" transform="translate(-816.765 -269.27)" fill="#3598db"/>
  <path id="Path_872" data-name="Path 872" d="M1087.771,289.387s2.792-7.81,3.471-8.247c0,0-5.48,5.068-4.944,11.586Z" transform="translate(-826.002 -244.459)" fill="#3598db"/>
  <path id="Path_873" data-name="Path 873" d="M996.933,653.432s4.914-.645,4.766,6.3c0,0-4.441.721-5.889-5.021Z" transform="translate(-757.977 -524.433)" fill="#3598db"/>
  <path id="Path_874" data-name="Path 874" d="M1015.563,630.37s5.68-.017,5.207,7.091c0,0-4.765.85-6.34-5.747Z" transform="translate(-771.98 -507.101)" fill="#3598db"/>
  <path id="Path_875" data-name="Path 875" d="M1030.384,608.323s5.155-2.417,8.455,3.823c0,0-4.763,2.013-8.909-2.814Z" transform="translate(-783.637 -490.173)" fill="#3598db"/>
  <path id="Path_876" data-name="Path 876" d="M1043.5,583.727s5.279-2.571,8.378,3.523c0,0-5.5,1.894-8.812-2.559Z" transform="translate(-793.519 -471.617)" fill="#3598db"/>
  <path id="Path_877" data-name="Path 877" d="M1051.643,557.684s5.08-4.855,9.137.055c0,0-5.192,3.992-9.37,1.026Z" transform="translate(-799.791 -450.826)" fill="#3598db"/>
  <path id="Path_878" data-name="Path 878" d="M1058.661,530.345s5.113-4.959,9.134.228c0,0-5.737,4.074-9.315.813Z" transform="translate(-805.108 -430.269)" fill="#3598db"/>
  <path id="Path_879" data-name="Path 879" d="M1063.07,497.22s3.937-6.2,8.571-4.813c0,0-4.084,6.563-8.529,6.27Z" transform="translate(-808.56 -403.193)" fill="#3598db"/>
  <path id="Path_880" data-name="Path 880" d="M1067.442,469.363s3.967-7.808,7.718-6.446c0,0-2.859,6-7.82,7.763Z" transform="translate(-811.771 -381.046)" fill="#3598db"/>
  <path id="Path_881" data-name="Path 881" d="M1067.654,443.113s4.079-6.144,7.9-5.4c0,0-3.335,6.231-8.294,7.173Z" transform="translate(-811.711 -362.168)" fill="#3598db"/>
  <path id="Path_882" data-name="Path 882" d="M1070.1,413.332s3.161-6.893,5.732-6.942c0,0-1.52,6.846-5.519,8.113Z" transform="translate(-813.847 -338.655)" fill="#3598db"/>
  <path id="Path_883" data-name="Path 883" d="M1072.63,388.607s3.513-6.985,6.154-7c0,0-1.8,5.97-6.037,7.609Z" transform="translate(-815.75 -320.019)" fill="#3598db"/>
  <path id="Path_884" data-name="Path 884" d="M1074.76,360.562s2.628-5.777,4.805-6.432c0,0-1.314,7.042-4.515,7.964Z" transform="translate(-817.352 -299.352)" fill="#3598db"/>
  <path id="Path_885" data-name="Path 885" d="M1078.925,329.316l5.874-8.946s-1.505,8.827-6.729,10.661Z" transform="translate(-819.841 -273.963)" fill="#3598db"/>
  <path id="Path_886" data-name="Path 886" d="M1089.154,300.695s6.828-4.711,7.074-5.475c0,0-3.471,6.6-9.918,7.766Z" transform="translate(-826.038 -255.048)" fill="#3598db"/>
  <path id="Path_887" data-name="Path 887" d="M1098.859,285.925s7.837-7.532,9.838-7.525a12.794,12.794,0,0,0-10.027,7.126Z" transform="translate(-835.334 -242.399)" fill="#3598db"/>
  <path id="Path_888" data-name="Path 888" d="M1075.07,325.679l.285.037c1.473-11.529,3.62-18.348,6.047-19.183l-.094-.273C1078.734,307.153,1076.577,313.867,1075.07,325.679Z" transform="translate(-817.585 -263.351)" fill="#444053"/>
  <path id="Path_889" data-name="Path 889" d="M1066.34,409.549l.431.037c.089-1.076.159-2.179.206-3.275.411-9.541,1.049-18.3,1.889-24.871l-.248-.31c-.841,6.58-1.659,15.608-2.07,25.164C1066.5,407.38,1066.429,408.48,1066.34,409.549Z" transform="translate(-811.019 -319.658)" fill="#444053"/>
  <path id="Path_890" data-name="Path 890" d="M932.411,545.41A56.086,56.086,0,0,0,947.964,533.9a62.586,62.586,0,0,0,11.368-16.116,73.118,73.118,0,0,0,6.61-25.4l-.451.211c-1.671,19.885-10.726,33.472-17.924,40.873a55.586,55.586,0,0,1-15.387,11.405Z" transform="translate(-710.123 -403.324)" fill="#444053"/>
  <path id="Path_891" data-name="Path 891" d="M427.493,140.933V269.471c0,3.821-3.687,6.942-8.239,6.942H244.859c-4.552,0-8.239-3.109-8.239-6.942V140.933c0-3.828,3.687-7.733,8.239-7.733l174.385.424C423.8,133.624,427.493,137.117,427.493,140.933Z" transform="translate(-187.022 -133.2)" fill="#fff"/>
  <path id="Path_892" data-name="Path 892" d="M427.493,140.973v5.951H236.62v-5.951a7.773,7.773,0,0,1,7.78-7.773H419.723a7.773,7.773,0,0,1,7.771,7.773Z" transform="translate(-187.022 -133.2)" fill="#3f3d56"/>
  <ellipse id="Ellipse_400" data-name="Ellipse 400" cx="2.747" cy="2.747" rx="2.747" ry="2.747" transform="translate(56.099 4.113)" fill="#fa5959" opacity="0.8"/>
  <ellipse id="Ellipse_401" data-name="Ellipse 401" cx="2.747" cy="2.747" rx="2.747" ry="2.747" transform="translate(64.09 4.113)" fill="#fed253" opacity="0.8"/>
  <ellipse id="Ellipse_402" data-name="Ellipse 402" cx="2.747" cy="2.747" rx="2.747" ry="2.747" transform="translate(72.082 4.113)" fill="#8ccf4d" opacity="0.8"/>
  <g id="Group_1391" data-name="Group 1391" transform="translate(121.913 46.224)" opacity="0.2">
    <path id="Path_893" data-name="Path 893" d="M568.377,320.466V334.35c0,.414-.776.744-1.736.744H530.016c-.957,0-1.736-.335-1.736-.744V320.466c0-.414.774-.836,1.736-.836h36.626C567.6,319.628,568.377,320.049,568.377,320.466Z" transform="translate(-528.28 -319.63)" fill="#3598db"/>
  </g>
  <rect id="Rectangle_1769" data-name="Rectangle 1769" width="19.082" height="0.674" transform="translate(139.514 51.18)" fill="#3598db"/>
  <path id="Path_894" data-name="Path 894" d="M546.612,333.66a4.525,4.525,0,0,0-2.494,8.3v-.3a1.029,1.029,0,0,1,.9-1.019,1.8,1.8,0,0,0,3.149,0,1.029,1.029,0,0,1,.9,1.019v.32a4.525,4.525,0,0,0-2.465-8.318Zm1.775,5.737a1.793,1.793,0,0,1-3.578,0,1.964,1.964,0,0,1,1.029-2.631.61.61,0,0,1-.1-.325.6.6,0,0,1,.6-.6h.042a.6.6,0,0,0-.555.6.605.605,0,0,0,.079.3h.017a.646.646,0,0,1,0-.119.582.582,0,0,1,.114-.347.6.6,0,0,1,.57-.422h.042a.593.593,0,0,0-.456.268.58.58,0,0,1,.33-.1.6.6,0,0,1,.6.6.583.583,0,0,1,0,.067,1.966,1.966,0,0,1,1.458,1.9A2,2,0,0,1,548.387,339.4Z" transform="translate(-416.752 -283.958)" fill="#3598db" opacity="0.2"/>
  <rect id="Rectangle_1770" data-name="Rectangle 1770" width="19.082" height="0.674" transform="translate(139.514 52.822)" fill="#3598db" opacity="0.2"/>
  <rect id="Rectangle_1771" data-name="Rectangle 1771" width="19.082" height="0.674" transform="translate(139.514 54.463)" fill="#3598db" opacity="0.2"/>
  <rect id="Rectangle_1772" data-name="Rectangle 1772" width="19.082" height="0.674" transform="translate(139.514 56.107)" fill="#3598db" opacity="0.2"/>
  <g id="Group_1392" data-name="Group 1392" transform="translate(78.917 73.416)" opacity="0.2">
    <path id="Path_895" data-name="Path 895" d="M394.967,430.136V444.02c0,.412-.774.744-1.736.744H356.606c-.957,0-1.736-.337-1.736-.744V430.136c0-.414.774-.836,1.736-.836h36.631C394.194,429.3,394.967,429.721,394.967,430.136Z" transform="translate(-354.87 -429.3)" fill="#3598db"/>
  </g>
  <rect id="Rectangle_1773" data-name="Rectangle 1773" width="19.082" height="0.674" transform="translate(96.516 78.374)" fill="#3598db"/>
  <path id="Path_896" data-name="Path 896" d="M373.19,443.33a4.525,4.525,0,0,0-2.494,8.3v-.3a1.026,1.026,0,0,1,.9-1.017,1.8,1.8,0,0,0,3.149,0,1.026,1.026,0,0,1,.9,1.017v.322a4.525,4.525,0,0,0-2.465-8.321Zm1.773,5.737a1.793,1.793,0,0,1-3.578,0,1.972,1.972,0,0,1,1.029-2.631.592.592,0,0,1-.095-.322.6.6,0,0,1,.6-.6h.045a.6.6,0,0,0-.479.893h.02a.6.6,0,0,1,0-.117.878.878,0,0,1,.684-.771h.022a.6.6,0,0,0-.456.268.592.592,0,0,1,.327-.1.6.6,0,0,1,.6.6.628.628,0,0,1,0,.067,1.964,1.964,0,0,1,1.279,2.727Z" transform="translate(-286.326 -366.436)" fill="#3598db" opacity="0.2"/>
  <rect id="Rectangle_1774" data-name="Rectangle 1774" width="19.082" height="0.674" transform="translate(96.516 80.016)" fill="#3598db" opacity="0.2"/>
  <rect id="Rectangle_1775" data-name="Rectangle 1775" width="19.082" height="0.674" transform="translate(96.516 81.657)" fill="#3598db" opacity="0.2"/>
  <rect id="Rectangle_1776" data-name="Rectangle 1776" width="19.082" height="0.674" transform="translate(96.516 83.299)" fill="#3598db" opacity="0.2"/>
  <g id="Group_1393" data-name="Group 1393" transform="translate(69.032 29.384)" opacity="0.2">
    <path id="Path_897" data-name="Path 897" d="M355.092,252.546V266.43c0,.412-.774.744-1.736.744H316.736c-.955,0-1.736-.337-1.736-.744V252.546c0-.414.776-.836,1.736-.836h36.626C354.319,251.71,355.092,252.132,355.092,252.546Z" transform="translate(-315 -251.71)" fill="#3598db"/>
  </g>
  <rect id="Rectangle_1777" data-name="Rectangle 1777" width="19.082" height="0.674" transform="translate(86.626 34.342)" fill="#3598db"/>
  <rect id="Rectangle_1778" data-name="Rectangle 1778" width="19.082" height="0.674" transform="translate(86.626 35.984)" fill="#3598db" opacity="0.2"/>
  <rect id="Rectangle_1779" data-name="Rectangle 1779" width="19.082" height="0.674" transform="translate(86.626 37.625)" fill="#3598db" opacity="0.2"/>
  <rect id="Rectangle_1780" data-name="Rectangle 1780" width="19.082" height="0.674" transform="translate(86.626 39.267)" fill="#3598db" opacity="0.2"/>
  <path id="Path_898" data-name="Path 898" d="M333.333,265.74a4.527,4.527,0,0,0-2.479,8.3v-.766a1.029,1.029,0,0,1,.9-1.019,1.8,1.8,0,0,0,3.149,0,1.026,1.026,0,0,1,.9,1.019v.784a4.525,4.525,0,0,0-2.479-8.318Zm1.984,5.524a.3.3,0,0,1-.06.077.248.248,0,0,1-.131.045h-.092a1.8,1.8,0,0,1-3.518-.511,1.771,1.771,0,0,1,.236-.883l-.02-.012a.6.6,0,0,1,.06-.831,1.194,1.194,0,0,1,.372-.136,1.661,1.661,0,0,0,.942-.721,1.984,1.984,0,0,1,0,.273.4.4,0,0,1,.568-.02,1.141,1.141,0,0,0,.161.183.5.5,0,0,0,.2.057l.451.057a.863.863,0,0,1,.513.186.813.813,0,0,1,.171.3,4.522,4.522,0,0,1,.3.955,1.53,1.53,0,0,1-.136.974Z" transform="translate(-256.367 -232.878)" fill="#3598db" opacity="0.2"/>
  <g id="Group_1394" data-name="Group 1394" transform="translate(131.92 95.071)" opacity="0.2">
    <path id="Path_899" data-name="Path 899" d="M608.74,517.472v13.885c0,.414-.774.744-1.736.744H570.376c-.957,0-1.736-.335-1.736-.744V517.472c0-.414.774-.833,1.736-.833h36.633C607.966,516.627,608.74,517.046,608.74,517.472Z" transform="translate(-568.64 -516.639)" fill="#3598db"/>
  </g>
  <rect id="Rectangle_1781" data-name="Rectangle 1781" width="19.082" height="0.674" transform="translate(149.521 100.015)" fill="#3598db"/>
  <rect id="Rectangle_1782" data-name="Rectangle 1782" width="19.082" height="0.674" transform="translate(149.521 101.656)" fill="#3598db" opacity="0.2"/>
  <rect id="Rectangle_1783" data-name="Rectangle 1783" width="19.082" height="0.674" transform="translate(149.521 103.3)" fill="#3598db" opacity="0.2"/>
  <rect id="Rectangle_1784" data-name="Rectangle 1784" width="19.082" height="0.674" transform="translate(149.521 104.941)" fill="#3598db" opacity="0.2"/>
  <path id="Path_900" data-name="Path 900" d="M586.972,530.62a4.525,4.525,0,0,0-2.494,8.3v-.766a1.029,1.029,0,0,1,.9-1.017,1.8,1.8,0,0,0,3.149,0,1.026,1.026,0,0,1,.905,1.017v.786a4.525,4.525,0,0,0-2.464-8.318Zm1.984,5.522a.276.276,0,0,1-.059.079.248.248,0,0,1-.131.045h-.094a1.8,1.8,0,1,1-3.28-1.393h-.02a.6.6,0,0,1,.06-.831,1.191,1.191,0,0,1,.372-.136,1.659,1.659,0,0,0,.942-.719,1.984,1.984,0,0,1,0,.273.4.4,0,0,1,.568-.02,1.026,1.026,0,0,0,.161.181.473.473,0,0,0,.2.059l.451.057a.847.847,0,0,1,.513.186.812.812,0,0,1,.171.3,4.48,4.48,0,0,1,.295.955,1.522,1.522,0,0,1-.141.962Z" transform="translate(-447.105 -432.083)" fill="#3598db" opacity="0.2"/>
  <path id="Path_901" data-name="Path 901" d="M421.943,571.1l-5.44-7.887a7.423,7.423,0,0,0-.459-2.41c-.357-.456-.077-1.47-.077-1.47s.382-.558.052-.61-.052-1.294-.052-1.294l-.025-1.984a6.974,6.974,0,0,0,.052-2.36.744.744,0,0,1,.025-.811s.3-1.091,0-1.371-.231-1.984-.154-3.323a5.068,5.068,0,0,0-.533-2.308c0-.2-2.008-2.179-2.008-2.358a5.02,5.02,0,0,0-2.036-1.116c-.764-.2-1.143-.355-1.118-.456s-1.2-.5-1.2-.5a2.418,2.418,0,0,1-1.475-.607,3.1,3.1,0,0,0-1.686-.692l-.022-.107-.022-.114c.094-.161.184-.327.265-.5.025-.052.047-.1.069-.154a2.177,2.177,0,0,0,1.252-.389,1.7,1.7,0,0,0,.607-1.217,2.686,2.686,0,0,0-.3-1.351,2.3,2.3,0,0,1-.439-1.426c.05-.213.179-.4.248-.61a1.611,1.611,0,0,0-.184-1.2c-.191-.367-.459-.692-.674-1.049a4.071,4.071,0,0,1-.536-1.488,2.291,2.291,0,0,0-.2-.808,1.547,1.547,0,0,0-.446-.451,4.463,4.463,0,0,0-2.727-.828,13.23,13.23,0,0,1-2.07.127,7.6,7.6,0,0,1-1.207-.315,3.136,3.136,0,0,0-2.579.131c-.741.488-1.039,1.448-1.542,2.2a17.377,17.377,0,0,0-1.436,1.924v-.042a2.446,2.446,0,0,0-.188.513,3.654,3.654,0,0,0,.112,1.681,1.17,1.17,0,0,0,.412.744,2.384,2.384,0,0,0,.89.176c-.012.047-.025.1-.035.144a5.7,5.7,0,0,0-.126,1.207,5.812,5.812,0,0,0,4.151,5.571v.154a4.064,4.064,0,0,1-.025.436h0s-2.556-.526-3.241-.169-2.036.632-2.231.836-.712.052-1.17,1.24-.508,2.41-1.091,2.975-.89.94-.917,1.346.077.5-.151.632-.56.659-.459.863a.719.719,0,0,1-.28.761.845.845,0,0,0-.355.761s-.154.558-.508.684-.585.964-.585.964l-1.153,1.327-2.286-2.529a.964.964,0,0,0-1.359-.069l-1.126,1a2.217,2.217,0,0,0-1.123.669,2.913,2.913,0,0,0-.58.865l-.615.553a1.557,1.557,0,0,0-.159,1.723l1.465,1.619v.015a2.561,2.561,0,0,0-1.416.575c-2.184,1.929-2.212,3.7-1.879,4.515a34.161,34.161,0,0,0,3.1,3.932,12.385,12.385,0,0,0,3.932,3.206h0l-.017.017c-.047.05-.092.1-.136.159l-.037.05a.355.355,0,0,0-.035.05l-.042.06-.032.05-.045.074-.027.047-.052.1-.017.032c0,.01-.042.092-.062.139l-.022.052a.277.277,0,0,1-.04.1l-.022.067a.414.414,0,0,1-.032.1l-.022.072q-.015.052-.03.112a.331.331,0,0,1-.017.067c0,.022-.027.121-.04.183a.614.614,0,0,0,0,.072,1.12,1.12,0,0,0-.022.131.242.242,0,0,1-.012.092.6.6,0,0,0-.017.126.624.624,0,0,0,0,.1v.481a13.981,13.981,0,0,0,.121,3.4,1.647,1.647,0,0,0,1.349,1.012,1.781,1.781,0,0,0,.436-.022,25.116,25.116,0,0,1,5.517-.558,9.438,9.438,0,0,0,2.74-.223l.228-.045.159.5.5-.139.426.248.27.154c.5,1.7,2.539,1.121,2.539,1.121l.483.28,4.907.126a9.857,9.857,0,0,0,1.736.833,1.558,1.558,0,0,0,.248.055,11.008,11.008,0,0,0,1.366.025c.377,0,.667-.025.667-.025s-.05-1.331-.121-2.824a40.039,40.039,0,0,0,4.545-.372c2.621-.461,3.719-2.844,4.116-4.116a11.631,11.631,0,0,1,.248,1.579,11.519,11.519,0,0,0,.407,1.369,4.574,4.574,0,0,0,.56,1.017c1.931-.66.761-1.649.355-2.08s.28-.786.28-.786.536-.357.5-.687-.077-.684,1.654-.66S421.943,571.1,421.943,571.1Zm-26.847-16.2a11.8,11.8,0,0,0,.481,2.12,2.7,2.7,0,0,1,.057.836c-1.024-.082-2.09-.126-2.09-.126a.248.248,0,0,1,.055.131l-.161-.037-.236-.057,1.889-2.869Zm-3.739,5.951,1.773.283.149.022a6.336,6.336,0,0,0-.092.838c0,.025.04.057.1.094a2.658,2.658,0,0,0-.035.419,4.9,4.9,0,0,0,1.81.7c-.015.05-.027.1-.04.144h0c-.841-.441-2.162-.647-2.316-.974s-4.651-1.9-4.651-1.9-.166-.087-.449-.223l1.185.223.325-.032a17.709,17.709,0,0,0,2.244.409Z" transform="translate(-293.118 -429.707)" fill="url(#linear-gradient)"/>
  <path id="Path_902" data-name="Path 902" d="M435.661,679.015s-.707,4.26-4.284,4.889-15.521.5-15.521.5-6.828-.992-9.3-6.751-4.059-8.065-1.941-8.165,13.533,3.856,14.187,3.905S436.291,664.627,435.661,679.015Z" transform="translate(-312.622 -536.516)" fill="#65617d"/>
  <path id="Path_903" data-name="Path 903" d="M435.661,679.015s-.707,4.26-4.284,4.889-15.521.5-15.521.5-6.828-.992-9.3-6.751-4.059-8.065-1.941-8.165,13.533,3.856,14.187,3.905S436.291,664.627,435.661,679.015Z" transform="translate(-312.622 -536.516)" opacity="0.05"/>
  <path id="Path_904" data-name="Path 904" d="M403.251,707.446a1.634,1.634,0,0,0,1.331,1.017,1.735,1.735,0,0,0,.431-.025,25.736,25.736,0,0,1,5.467-.553,9.451,9.451,0,0,0,2.727-.221c.57-.107.992-.208.992-.208s-1.007-3.352-1.133-3.451-4.545-2.757-4.545-2.757L405.029,701h0a1.837,1.837,0,0,0-1.183.7,3.709,3.709,0,0,0-.707,2.378A13.629,13.629,0,0,0,403.251,707.446Z" transform="translate(-312.244 -560.219)" fill="#3f3d56"/>
  <path id="Path_905" data-name="Path 905" d="M403.263,707.446a1.634,1.634,0,0,0,1.331,1.017,14.307,14.307,0,0,1-.947-1.383l.017-2.445A4.309,4.309,0,0,1,405.041,701h0s-1.84.126-1.889,3.075A14.814,14.814,0,0,0,403.263,707.446Z" transform="translate(-312.256 -560.219)" opacity="0.05"/>
  <path id="Path_906" data-name="Path 906" d="M458.571,682.3l3.251-2.544,5.115-5.041-1.386-.062c-.208.131-.788.548-.811,1.054-.025.615-1.381.042-2.088.394s-4.158,4.77-4.758,4.743-1.084-.307-1.334.122a.239.239,0,0,1-.02.027Z" transform="translate(-352.414 -540.402)" opacity="0.1"/>
  <path id="Path_907" data-name="Path 907" d="M406,701.7l.352.161a22.1,22.1,0,0,1,5.745,3.679,23.621,23.621,0,0,0,3.27,2.122c.57-.107.992-.208.992-.208s-1.007-3.352-1.133-3.451-4.542-2.757-4.542-2.757L407.19,701h0A1.837,1.837,0,0,0,406,701.7Z" transform="translate(-314.405 -560.219)" opacity="0.1"/>
  <path id="Path_908" data-name="Path 908" d="M377.874,659.254a33.626,33.626,0,0,0,3.074,3.905,12,12,0,0,0,4.215,3.327,22.057,22.057,0,0,1,5.745,3.679,27.973,27.973,0,0,0,3.5,2.259l.312.181.687.4.364.208s.843-.677,1.684-1.359,1.656-1.349,1.669-1.386c.025-.077.352-.932.275-.992-.04-.025-.211-.374-.531-.779a3.574,3.574,0,0,0-1.282-1.061,3.64,3.64,0,0,1-1.664-1.736s-.112-.079-.278-.186a3.369,3.369,0,0,0-1.133-.5c-.555-.069-1.587-1.2-1.587-1.2a3.105,3.105,0,0,1-.992-1.034c-.265-.553-4.173-3.223-4.535-3.471l9.481,6.072,2.269,1.455L402.4,664.5l5.115-5.041-1.689-.074c-2.479-.109-6.9-.278-7.458-.151a4.217,4.217,0,0,1-1.386.089,4.86,4.86,0,0,1-2.09-.382c-.831-.439-2.145-.645-2.3-.969s-4.612-1.889-4.612-1.889-6.072-3.223-8.239-1.309S377.542,658.448,377.874,659.254Z" transform="translate(-293.137 -524.993)" fill="#65617d"/>
  <path id="Path_909" data-name="Path 909" d="M457.31,577.413l.781,2.6,1.007,5.846,3.7.248,1.074-1.78,1.069-1.773s.667-2.363,1.148-4.649c.424-2.021.7-3.984.248-4.2-.409-.188-.677-.87-.853-1.6-.022-.089-.042-.181-.06-.273a14.274,14.274,0,0,1-.248-1.879s-7.763-.4-6.68,2.8a5.053,5.053,0,0,1,.293,1.7,4.067,4.067,0,0,1-.025.434A3.628,3.628,0,0,1,457.31,577.413Z" transform="translate(-352.993 -461.649)" fill="#ee8e9e"/>
  <path id="Path_910" data-name="Path 910" d="M450.8,592.023l.278,4.411.63,3.754.707,1.736.63,9.511s6.075.7,7.552,0a.648.648,0,0,0,.268-.208c1.785-2.7,1.2-10.5,1.2-10.5l.687-5.048-.454-2.616-1.1-.117-.846-.089s-.191.233-.464.6c-.744.992-2.122,2.926-2.031,3.736.126,1.108-.151,2.232-.58,2.417s-.781.481-.855.179a1.364,1.364,0,0,1-.077-.806,6.539,6.539,0,0,0-.327-1.736,7.324,7.324,0,0,1-.63-2.192,2.573,2.573,0,0,0-.278-1.587c-.2-.176-.479-.355-.248-1.16s-.992-2.375-.992-2.375Z" transform="translate(-348.097 -476.687)" fill="#e3e8f4"/>
  <path id="Path_911" data-name="Path 911" d="M483.137,594.448l.248,7.535,1.455.808a.629.629,0,0,0,.268-.211c1.785-2.7,1.2-10.5,1.2-10.5l.679-5.041-.454-2.616-1.1-.117c.424-2.021.7-3.982.248-4.2-.409-.191-.679-.87-.853-1.6h0l-.788,5.328s.067.479.089.974a2.76,2.76,0,0,1-.064.94,3.134,3.134,0,0,0-.05,1.26,10.243,10.243,0,0,0-.791,3.719C483.08,592.635,483.137,594.448,483.137,594.448Z" transform="translate(-372.409 -468.099)" opacity="0.1"/>
  <path id="Path_912" data-name="Path 912" d="M485.269,578s1.269.159,1.671.687a2.385,2.385,0,0,0,1.463.6,5.782,5.782,0,0,1,1.183.5c-.027.092.355.248,1.111.454a5,5,0,0,1,2.016,1.111c0,.178,1.984,2.14,1.984,2.343a5.05,5.05,0,0,1,.528,2.294c-.074,1.336-.151,3.022.151,3.3s0,1.361,0,1.361a.744.744,0,0,0-.025.806,7,7,0,0,1-.052,2.343l.027,1.966s-.278,1.24.05,1.284-.05.605-.05.605-.278,1.009.074,1.463a7.427,7.427,0,0,1,.454,2.393l5.393,7.837s.074,1.436-1.639,1.411-1.689.327-1.636.655-.479.682-.479.682-.682.352-.278.781,1.562,1.411-.352,2.065a4.558,4.558,0,0,1-.555-1.007,11.734,11.734,0,0,1-.4-1.361s-.176-1.917-.528-2.167-.3-1.463-.3-1.463.5-.992-.2-1.386-10.937-6.072-10.937-6.072l-.248-7.535s-.176-5.569.883-7.438a3.134,3.134,0,0,1,.05-1.26,6.558,6.558,0,0,0-.025-1.917Z" transform="translate(-372.822 -467.715)" fill="#3f3d56"/>
  <path id="Path_913" data-name="Path 913" d="M435.511,589.332s-2.534-.523-3.223-.171-2.016.63-2.217.833-.707.05-1.16,1.24-.5,2.393-1.083,2.948-.883.932-.907,1.334.077.5-.151.63-.553.657-.454.858,5.241,4.637,5.241,4.637a11.76,11.76,0,0,0,.479,2.117c.231.429-.248,6.325-.756,6.727s3.412.364,3.412.364.179-3.868.33-4.071a40.154,40.154,0,0,0-.1-4.334,24.737,24.737,0,0,1,.3-4.463,20.388,20.388,0,0,0,.29-4.031,8.337,8.337,0,0,1,.642-2.293C436.5,591.221,435.511,589.332,435.511,589.332Z" transform="translate(-329.669 -476.017)" opacity="0.1"/>
  <path id="Path_914" data-name="Path 914" d="M435.216,589.028s-2.534-.521-3.223-.169-2.016.63-2.217.831-.707.052-1.158,1.24-.5,2.4-1.083,2.948-.883.932-.907,1.336.074.5-.151.63-.555.655-.454.858,5.241,4.637,5.241,4.637a11.7,11.7,0,0,0,.479,2.115c.231.427-.248,6.325-.756,6.729s3.4.364,3.4.364.176-3.868.327-4.069a40.155,40.155,0,0,0-.1-4.334,24.731,24.731,0,0,1,.3-4.463,20.436,20.436,0,0,0,.293-4.032,8.313,8.313,0,0,1,.64-2.293C436.2,590.922,435.216,589.028,435.216,589.028Z" transform="translate(-329.449 -475.79)" fill="#3f3d56"/>
  <path id="Path_915" data-name="Path 915" d="M461.765,572.767a5.053,5.053,0,0,1,.293,1.7,5.772,5.772,0,0,0,6.63-2.618,14.261,14.261,0,0,1-.248-1.879S460.682,569.566,461.765,572.767Z" transform="translate(-356.266 -461.664)" opacity="0.1"/>
  <path id="Path_916" data-name="Path 916" d="M446.64,547.74a5.757,5.757,0,1,0,.124-1.2,5.757,5.757,0,0,0-.124,1.2Z" transform="translate(-344.969 -440.619)" fill="#ee8e9e"/>
  <path id="Path_917" data-name="Path 917" d="M416.366,619.11l-1.386.429a.714.714,0,0,1-.278.744.841.841,0,0,0-.352.744s-.151.555-.5.682-.578.957-.578.957L412.116,624s-.429.352-.352.528-.454.226-.454.226l.278,4.488,2.393.451,1.488-.151,1.21-.451,1.059-.632.479-1.24L420.33,624Z" transform="translate(-318.399 -498.633)" fill="#3f3d56"/>
  <path id="Path_918" data-name="Path 918" d="M393.95,635.058s-3.075-4.436-5.368-2.041.932,6.273,1.689,6.147,4.361-.327,4.361-.327Z" transform="translate(-300.697 -508.558)" fill="#ee8e9e"/>
  <path id="Path_919" data-name="Path 919" d="M447.14,546.565a.7.7,0,0,1,.424.191c.193.206.2.57.459.7a.536.536,0,0,0,.3.035c.669-.1,1.056-.853,1.7-1.061a1.735,1.735,0,0,1,1.128.1.859.859,0,0,1,.372.248c.216.28.064.689.164,1.027.139.469.7.655,1.183.714a2.052,2.052,0,0,1,1.351.461,1.24,1.24,0,0,1,.248.974.777.777,0,0,0,0,.362c.134.377.788.322.96.022.124-.216.087-.4.379-.456a1.24,1.24,0,0,1,.617.107,4.492,4.492,0,0,0,1.6.248,5.772,5.772,0,1,0-10.87-3.655Z" transform="translate(-345.345 -440.644)" opacity="0.1"/>
  <path id="Path_920" data-name="Path 920" d="M450.152,540.776a.778.778,0,0,1,0-.362,1.24,1.24,0,0,0-.248-.974,2.07,2.07,0,0,0-1.351-.461c-.483-.062-1.044-.248-1.183-.714-.1-.337.052-.744-.164-1.026a.831.831,0,0,0-.372-.248,1.736,1.736,0,0,0-1.128-.1c-.645.208-1.031.964-1.7,1.061a.539.539,0,0,1-.3-.035c-.248-.129-.265-.5-.459-.7-.307-.325-.888-.117-1.262-.357a1.148,1.148,0,0,1-.407-.744,3.613,3.613,0,0,1-.112-1.671c.218-.937,1.056-1.579,1.592-2.38.5-.744.779-1.688,1.527-2.184a3.051,3.051,0,0,1,2.556-.131,7.154,7.154,0,0,0,1.2.315,13.3,13.3,0,0,0,2.05-.124,4.393,4.393,0,0,1,2.708.823,1.486,1.486,0,0,1,.441.446,2.251,2.251,0,0,1,.2.8,4.076,4.076,0,0,0,.531,1.473c.213.355.478.677.669,1.044a1.594,1.594,0,0,1,.181,1.193c-.064.208-.191.394-.248.607a2.275,2.275,0,0,0,.434,1.416,2.673,2.673,0,0,1,.3,1.344,1.7,1.7,0,0,1-.605,1.207,2.162,2.162,0,0,1-1.277.387,4.545,4.545,0,0,1-1.629-.248,1.239,1.239,0,0,0-.615-.107c-.3.059-.248.248-.382.456C450.941,541.1,450.286,541.153,450.152,540.776Z" transform="translate(-341.041 -431.268)" fill="#3f3d56"/>
  <path id="Path_921" data-name="Path 921" d="M457.254,682.869l3.251-2.544,5.115-5.041-1.688-.074a1.1,1.1,0,0,0-.357.687c-.025.617-1.381.045-2.088.4s-4.158,4.77-4.758,4.741-1.084-.3-1.334.122l-.02.03a.716.716,0,0,1-.384.228Z" transform="translate(-351.249 -540.823)" opacity="0.1"/>
  <path id="Path_922" data-name="Path 922" d="M437.69,677.358l1.634,5.207.248.818.779-.213,1.716-.471,7.637-2.1a6.625,6.625,0,0,0,2.75-.744,8.314,8.314,0,0,1,4.746-1.036c1.009.094,2.132-.34,3.065-2.063,0,0,2.115-6.248-3.223-8.036s-5.6.95-5.6.95l-.072.045c-.208.131-.788.548-.811,1.054-.025.615-1.381.042-2.088.394s-4.153,4.79-4.753,4.763-1.083-.307-1.334.121a.242.242,0,0,1-.02.027c-.186.248-.744.317-1.118.327h-.35l-.047.015-.387.114Z" transform="translate(-338.238 -535.488)" fill="#65617d"/>
  <path id="Path_923" data-name="Path 923" d="M439.4,654.583l.786.126.327-3.25s-.359-.055-.811-.159A16.977,16.977,0,0,1,439.4,654.583Z" transform="translate(-339.524 -522.841)" opacity="0.1"/>
  <path id="Path_924" data-name="Path 924" d="M460.331,603.041s2.343-.679,1.765,5.973a18.58,18.58,0,0,1-4.914,10.86s-4.991,2.192-7.232,1.84-3.875-.429-3.875-.429a5.734,5.734,0,0,0-2.269-.6c-1.26-.05-3.905-.831-3.967-1.083s.657-3.955.355-4.232a23.185,23.185,0,0,1,3.88.4c.352.255.855.072,1.24,0a4.31,4.31,0,0,1,3.831-.2,2.293,2.293,0,0,0,1.083-.126,1.086,1.086,0,0,1,.788-.05,2.168,2.168,0,0,0,.546-.278c.077-.1.682,0,.682,0a.268.268,0,0,0,.377-.176,1.651,1.651,0,0,1,.352-.553s.682-3.831,1.966-5.266a.823.823,0,0,0,.278-.731C455.114,607.98,457.306,602.228,460.331,603.041Z" transform="translate(-339.851 -486.489)" opacity="0.1"/>
  <path id="Path_925" data-name="Path 925" d="M448.85,701.674l3.327,4.029.022-.025c.025-.074.352-.932.275-.992a4.627,4.627,0,0,0-1.815-1.84,3.454,3.454,0,0,1-1.423-1.3Z" transform="translate(-346.631 -560.632)" opacity="0.1"/>
  <path id="Path_926" data-name="Path 926" d="M448.782,716.642l.364.208s.843-.677,1.684-1.359,1.656-1.349,1.669-1.386c.025-.077.352-.932.275-.992-.04-.025-.211-.374-.531-.778-2.256-.632-.818.935-.627,1.007a2.3,2.3,0,0,0-2.9,2.36A3.572,3.572,0,0,0,448.782,716.642Z" transform="translate(-346.526 -568.631)" opacity="0.1"/>
  <path id="Path_927" data-name="Path 927" d="M452.3,717.931l.481.278,4.862.127a9.823,9.823,0,0,0,1.721.828,1.588,1.588,0,0,0,.248.055,11.376,11.376,0,0,0,1.356.025c.372,0,.66-.025.66-.025s-.231-6.134-.4-6.779c-.082-.31-.5-.248-.893-.087a5.77,5.77,0,0,0-.87.441,15.5,15.5,0,0,0-2.4.377c-.33.179-1.26-.1-1.84,0s-1.612-.682-1.612-.682c-2.822-.932-1.24.806-1.034.883a2.3,2.3,0,0,0-2.9,2.36A1.944,1.944,0,0,0,452.3,717.931Z" transform="translate(-347.252 -568.653)" fill="#3f3d56"/>
  <path id="Path_928" data-name="Path 928" d="M488.6,715.576a8.168,8.168,0,0,0,1.634,3.679c.372,0,.66-.025.66-.025s-.231-6.134-.4-6.779c-.082-.31-.5-.248-.893-.087A7.089,7.089,0,0,0,488.6,715.576Z" transform="translate(-376.526 -568.666)" fill="#565387"/>
  <path id="Path_929" data-name="Path 929" d="M488.6,715.576a8.168,8.168,0,0,0,1.634,3.679c.372,0,.66-.025.66-.025s-.231-6.134-.4-6.779c-.082-.31-.5-.248-.893-.087A7.089,7.089,0,0,0,488.6,715.576Z" transform="translate(-376.526 -568.666)" opacity="0.1"/>
  <path id="Path_930" data-name="Path 930" d="M485.01,715.745c.335,1.225.33,2.6.863,3.431a1.6,1.6,0,0,0,.248.055,11.337,11.337,0,0,0,1.356.025c.372,0,.66-.025.66-.025s-.231-6.134-.4-6.779c-.082-.31-.5-.248-.893-.087a5.755,5.755,0,0,0-.87.441A3.378,3.378,0,0,0,485.01,715.745Z" transform="translate(-373.764 -568.666)" opacity="0.05"/>
  <path id="Path_931" data-name="Path 931" d="M417.59,676.26a10.06,10.06,0,0,1,4.463,3.568Z" transform="translate(-323.122 -541.613)" opacity="0.1"/>
  <g id="Group_1395" data-name="Group 1395" transform="translate(100.38 102.69)" opacity="0.1">
    <path id="Path_932" data-name="Path 932" d="M496.459,554.3l-.015.055a1.692,1.692,0,0,1-.084.211A1.49,1.49,0,0,1,496.459,554.3Z" transform="translate(-482.741 -552.582)"/>
    <path id="Path_933" data-name="Path 933" d="M441.485,547.866a2.264,2.264,0,0,1,.186-.5c-.012.042-.025.087-.035.131a3.615,3.615,0,0,0,.112,1.671,1.148,1.148,0,0,0,.407.744c.374.248.955.032,1.26.354.2.206.206.573.459.7a.5.5,0,0,0,.3.035c.669-.094,1.056-.85,1.7-1.059a1.7,1.7,0,0,1,1.126.1.832.832,0,0,1,.374.248c.216.278.064.689.164,1.026.139.466.7.652,1.18.714a2.069,2.069,0,0,1,1.354.461,1.22,1.22,0,0,1,.248.974.8.8,0,0,0,0,.359c.134.379.788.322.96.025.124-.218.087-.4.379-.459a1.264,1.264,0,0,1,.617.107,4.538,4.538,0,0,0,1.629.248,2.2,2.2,0,0,0,1.277-.387,1.526,1.526,0,0,0,.392-.478,1.612,1.612,0,0,1-.543.855,2.162,2.162,0,0,1-1.277.387,4.538,4.538,0,0,1-1.629-.248,1.239,1.239,0,0,0-.617-.107c-.293.06-.248.248-.379.456-.171.3-.826.354-.96-.022a.811.811,0,0,1,0-.362,1.22,1.22,0,0,0-.248-.974,2.077,2.077,0,0,0-1.354-.461c-.486-.062-1.041-.248-1.18-.714-.1-.337.052-.744-.164-1.026a.831.831,0,0,0-.372-.248,1.736,1.736,0,0,0-1.128-.1c-.645.208-1.031.964-1.7,1.061a.546.546,0,0,1-.3-.035c-.248-.129-.263-.5-.459-.7-.3-.325-.885-.117-1.26-.357a1.148,1.148,0,0,1-.407-.744,3.613,3.613,0,0,1-.112-1.679Z" transform="translate(-441.433 -547.37)"/>
  </g>
  <path id="Path_934" data-name="Path 934" d="M492.22,627.055c-.461.622-.992,1.2-1.4,1.86a3.528,3.528,0,0,0-.612,2.2,5.841,5.841,0,0,0,.883-1.577,22.4,22.4,0,0,1,1.693-2.549c.109-.161.806-1.1.454-1.141C492.952,625.81,492.387,626.841,492.22,627.055Z" transform="translate(-377.733 -503.698)" opacity="0.1"/>
  <path id="Path_935" data-name="Path 935" d="M363.1,589.043l5.051,9.551c.151.283-.26.8-.917,1.145l-25.208,13.332c-.657.347-1.314.4-1.463.114l-5.051-9.548c-.151-.285.228-.858.885-1.2L361.6,589.1C362.263,588.751,362.949,588.758,363.1,589.043Z" transform="translate(-261.368 -475.863)" fill="#fff"/>
  <g id="Group_1396" data-name="Group 1396" transform="translate(74.109 112.971)" opacity="0.2">
    <path id="Path_936" data-name="Path 936" d="M363.1,589.043l5.051,9.551c.151.283-.26.8-.917,1.145l-25.208,13.332c-.657.347-1.314.4-1.463.114l-5.051-9.548c-.151-.285.228-.858.885-1.2L361.6,589.1C362.263,588.751,362.949,588.758,363.1,589.043Z" transform="translate(-335.477 -588.833)" fill="#3598db"/>
  </g>
  <rect id="Rectangle_1785" data-name="Rectangle 1785" width="14.854" height="0.523" transform="translate(87.744 124.22) rotate(-27.87)" fill="#3598db"/>
  <rect id="Rectangle_1786" data-name="Rectangle 1786" width="14.854" height="0.523" transform="translate(88.342 125.351) rotate(-27.87)" fill="#3598db" opacity="0.2"/>
  <rect id="Rectangle_1787" data-name="Rectangle 1787" width="14.854" height="0.523" transform="translate(88.939 126.478) rotate(-27.87)" fill="#3598db" opacity="0.2"/>
  <rect id="Rectangle_1788" data-name="Rectangle 1788" width="14.854" height="0.523" transform="translate(89.537 127.61) rotate(-27.87)" fill="#3598db" opacity="0.2"/>
  <path id="Path_937" data-name="Path 937" d="M355.837,642.975a3.521,3.521,0,0,0,1.3,6.618l-.278-.526a.8.8,0,0,1,.248-1.031,1.4,1.4,0,0,0,2.167-1.145.8.8,0,0,1,.992.372l.285.54a3.521,3.521,0,0,0-4.723-4.827Zm3.379,3.077a.189.189,0,0,1-.012.074.208.208,0,0,1-.074.079l-.062.035a1.4,1.4,0,1,1-2.767.248h-.017a.469.469,0,0,1-.26-.6.9.9,0,0,1,.206-.228,1.292,1.292,0,0,0,.387-.838,1.487,1.487,0,0,1,.092.191.312.312,0,0,1,.382-.221,1.042,1.042,0,0,0,.179.067.408.408,0,0,0,.161-.032l.33-.126a.5.5,0,0,1,.65.089,3.594,3.594,0,0,1,.55.548A1.188,1.188,0,0,1,359.217,646.052Z" transform="translate(-275.269 -516.272)" fill="#3598db" opacity="0.2"/>
  <path id="Path_938" data-name="Path 938" d="M404.66,642.419c-.025,3.325,6.856,4.031,6.856,4.031l1.758.278.786.126.327-3.25s-.359-.055-.811-.159c-.664-.156-1.527-.424-1.708-.8C411.565,642.015,404.685,639.092,404.66,642.419Z" transform="translate(-313.397 -514.987)" fill="#ee8e9e"/>
  <path id="Path_939" data-name="Path 939" d="M460.066,600.989s2.343-.679,1.765,5.973a18.58,18.58,0,0,1-4.914,10.86s-4.991,2.192-7.232,1.84-3.88-.429-3.88-.429a5.735,5.735,0,0,0-2.269-.6c-1.26-.05-3.905-.831-3.967-1.083s.657-3.967.355-4.232a23.185,23.185,0,0,1,3.88.4c.352.255.855.072,1.24,0a4.3,4.3,0,0,1,3.831-.2,2.294,2.294,0,0,0,1.083-.126,1.086,1.086,0,0,1,.788-.05,2.166,2.166,0,0,0,.545-.278c.077-.1.682,0,.682,0a.265.265,0,0,0,.377-.176,1.674,1.674,0,0,1,.352-.555s.682-3.828,1.966-5.266a.815.815,0,0,0,.278-.729C454.849,605.928,457.043,600.191,460.066,600.989Z" transform="translate(-339.648 -484.947)" fill="#3f3d56"/>
  <path id="Path_940" data-name="Path 940" d="M793.107,266.806V280.69c0,.414-.774.744-1.736.744H754.736c-.957,0-1.736-.335-1.736-.744V266.806c0-.414.774-.836,1.736-.836h36.641C792.333,265.977,793.107,266.391,793.107,266.806Z" transform="translate(-575.369 -233.051)" fill="#fff"/>
  <g id="Group_1397" data-name="Group 1397" transform="translate(173.346 35.446)" opacity="0.1">
    <path id="Path_941" data-name="Path 941" d="M775.82,277V290.88c0,.412-.776.744-1.736.744H737.456c-.957,0-1.736-.337-1.736-.744V277c0-.414.774-.836,1.736-.836h36.633C775.043,276.16,775.82,276.581,775.82,277Z" transform="translate(-735.72 -276.16)" fill="#3598db"/>
  </g>
  <path id="Path_942" data-name="Path 942" d="M793.107,266.806V280.69c0,.414-.774.744-1.736.744H754.736c-.957,0-1.736-.335-1.736-.744V266.806c0-.414.774-.836,1.736-.836h36.641C792.333,265.977,793.107,266.391,793.107,266.806Z" transform="translate(-575.369 -233.051)" fill="#fff"/>
  <g id="Group_1398" data-name="Group 1398" transform="translate(177.63 32.919)" opacity="0.2">
    <path id="Path_943" data-name="Path 943" d="M793.107,266.806V280.69c0,.414-.774.744-1.736.744H754.736c-.957,0-1.736-.335-1.736-.744V266.806c0-.414.774-.836,1.736-.836h36.641C792.333,265.977,793.107,266.391,793.107,266.806Z" transform="translate(-753 -265.97)" fill="#3598db"/>
  </g>
  <rect id="Rectangle_1789" data-name="Rectangle 1789" width="19.082" height="0.674" transform="translate(195.239 37.878)" fill="#3598db"/>
  <rect id="Rectangle_1790" data-name="Rectangle 1790" width="19.082" height="0.674" transform="translate(195.239 39.519)" fill="#3598db" opacity="0.2"/>
  <rect id="Rectangle_1791" data-name="Rectangle 1791" width="19.082" height="0.674" transform="translate(195.239 41.161)" fill="#3598db" opacity="0.2"/>
  <rect id="Rectangle_1792" data-name="Rectangle 1792" width="19.082" height="0.674" transform="translate(195.239 42.802)" fill="#3598db" opacity="0.2"/>
  <path id="Path_944" data-name="Path 944" d="M771.338,280a4.525,4.525,0,0,0-2.5,8.3v-.766a1.031,1.031,0,0,1,.9-1.019,1.8,1.8,0,0,0,3.149,0,1.031,1.031,0,0,1,.905,1.019v.786A4.525,4.525,0,0,0,771.338,280Zm1.984,5.522a.2.2,0,0,1-.191.121.569.569,0,0,1-.092,0,1.8,1.8,0,0,1-3.516-.511,1.776,1.776,0,0,1,.233-.883l-.02-.012a.6.6,0,0,1,.06-.831,1.216,1.216,0,0,1,.372-.136,1.649,1.649,0,0,0,.942-.719,1.681,1.681,0,0,1,0,.273.4.4,0,0,1,.568-.02c.057.057.094.136.164.181a.429.429,0,0,0,.2.057l.449.06a.635.635,0,0,1,.684.5,4.348,4.348,0,0,1,.3.955,1.508,1.508,0,0,1-.144.972Z" transform="translate(-585.751 -243.602)" fill="#3598db" opacity="0.2"/>
  <path id="Path_945" data-name="Path 945" d="M793.027,407.756c-.342-1.24-.565-2.326-.565-2.326a4.834,4.834,0,0,0-.635-2.358l-.012-.34h0l-.1-2.519a8.484,8.484,0,0,1,.585-1.339c.422-.806-.141-3.682-.141-3.682s-1.835-4.014-1.525-6.615-3.885-11.353-3.885-11.353a11.4,11.4,0,0,1,.265-2.549,2.03,2.03,0,0,0,.027-.536.568.568,0,0,0,0-.064v.02a19.791,19.791,0,0,0-1.594-4.847l-.055-6.1a17.893,17.893,0,0,0-.868-8.4c-.555-1.664-.92-3-1.158-4.032-.027-.117-.055-.228-.077-.337,2.874-.55,5.066-.992,5.066-.992s-1.944-6.942-3.124-8.132S783,336.252,783,336.252s-.779-4.932.116-6.414a9.679,9.679,0,0,0,.93-4.007s2.113-1.664,2.358-2.375a11.591,11.591,0,0,0,.6-3.139,19.708,19.708,0,0,1-.248-2.011c.084-.441-.717-2.08-.384-2.884a2.137,2.137,0,0,0,.116-.766v-.032a10.7,10.7,0,0,0-.27-2.048,5.837,5.837,0,0,0-2.2-1.069l-.055-.186-.141-.5c-.074-.045-.146-.084-.218-.119v-.179l-.047-.712.278-1.614c.563-2.809-3.169-3.082-3.169-3.082a1.939,1.939,0,0,0-1.086-.88c-.759-.248.035,4.193.4,4.463a16.951,16.951,0,0,1,1.552,2.231h0l.069.109a1.688,1.688,0,0,0-.164.186l.179.96.027.149a3.887,3.887,0,0,0-.553,1.031,2.159,2.159,0,0,1,.6,1.557,4.781,4.781,0,0,0,.3,1.919c-.042-.045-.541-.543-1.012-.4s-1.792.6-1.792.6-.992.213-.89.429-.632,1.21-.632,1.21l-2.777-2.435c-.03-.074-.06-.149-.087-.226a6.357,6.357,0,0,1-.275-1.1,6.029,6.029,0,0,0,.845-.3,1.852,1.852,0,0,0,.724-.5,3.037,3.037,0,0,0,.387-1.17,16.286,16.286,0,0,1,.907-2.254,7.208,7.208,0,0,0,.365-3.982,2.643,2.643,0,0,0-.456-1.148c-.461-.585-1.262-.8-1.857-1.257s-.992-1.175-1.681-1.51a3.128,3.128,0,0,0-2.038-.1,10.878,10.878,0,0,0-3.744,1.525,1.918,1.918,0,0,1-1.24.466,1.69,1.69,0,0,1-.94-.637.21.21,0,0,1,0-.037l-.032-.032a4.733,4.733,0,0,0-.337,2.018,1.393,1.393,0,0,0,.025.32v.112a.607.607,0,0,1,0,.094h0a.57.57,0,0,1-.015.144,1.032,1.032,0,0,1-.248.369,2.221,2.221,0,0,0-.208.307.378.378,0,0,1,.032-.112,1.567,1.567,0,0,0-.248.855.844.844,0,0,0,.223.6,2.919,2.919,0,0,0,.451.335,4.841,4.841,0,0,0-.047.893,5.184,5.184,0,0,0,2.693,4.322c.035.074.067.149.1.226a6.415,6.415,0,0,1,.6,2.9,1.522,1.522,0,0,1-.025.213c-.01.069-.064.077-.092.117h0s-4.421.213-5.5-.689-2.539,2.4-2.539,2.4-1.572.369-1.9.074-2.177.04-2.177.04a3.986,3.986,0,0,0-2.8-.9,8.207,8.207,0,0,0-2.073-1.049h0l-.052-.015h0a2.277,2.277,0,0,0-.992-.089,20.391,20.391,0,0,1-2.916-2.653c-.672-.94-3.828-4.4-3.843-4.418l-.017-.171-.055-.521a1.886,1.886,0,0,1-.27.035l-.067-.179a9.536,9.536,0,0,0-.7-1.448s-.025-.66.161-.831a11.25,11.25,0,0,0-.178-2.574s-2.135-4.505-3.759-1.017c0,0-3.223,2.341-.35,4.808,0,0,1.133.5,1.307.917.114.273.521,1.031.793,1.535.045.084.087.159.122.226l-.03.027.057.429.022.166c-.511.317-.855.627-.761.848a4.8,4.8,0,0,1,.362,1.17s4.036,4.674,4.614,6.717c0,0,10.562,5.74,13.976,6.047l-.446,3.084a24.413,24.413,0,0,0-.04,2.5c.069.657-.268,3.655-.268,3.655s-.421,4.406-.9,5.041-.285,3.258-.285,3.258a22.15,22.15,0,0,1-.536,3.754,9.576,9.576,0,0,0,0,3.732s-1.569,4.012,2.45,1.178c0,0,2.018-.2,4.344-.372v.233c0,.3.015.625.025.967.054,2.261.161,5.375.354,7.728.345,4.158,1.929,12.34,1.929,12.34l.159,4.141a5.69,5.69,0,0,0-.072,1.188,7.686,7.686,0,0,0,1.265,4.113l.424,2.747a10.859,10.859,0,0,1,.87,2.879,1.486,1.486,0,0,1-.022.265,1.826,1.826,0,0,0-.02.424,23.307,23.307,0,0,0,.878,4.227s.161,3.022.62,3.181c.394.134-.449,1.763-.7,2.231-.008-.029-.015-.058-.02-.087-.032.062-.052.094-.052.094a2.154,2.154,0,0,0-.112.771,1.1,1.1,0,0,0,.543,1.044c.88.5,1.359.912.637,1.116a7.684,7.684,0,0,0-.793.2c0-.035-.03-.069-.042-.1a.5.5,0,0,0-.278.54,2.28,2.28,0,0,0,.31,1.017,11.016,11.016,0,0,0,1.314,2.189l.345-.052a1.8,1.8,0,0,1-.186.382,1.468,1.468,0,0,1-.5.474,1.565,1.565,0,0,1-.61.248,1.736,1.736,0,0,0-1.26.674,1.33,1.33,0,0,0,.248,2.073l3.283.992s5.6.511,5.254-.729-.565-2.326-.565-2.326a4.96,4.96,0,0,0-.538-2.2,2.748,2.748,0,0,0-.208-.32l.2-.03s.3-2.777.823-3.325c.122-.124.146-.218.114-.29.05-.154-.094-.248-.28-.278a.4.4,0,0,1-.035.109,2.778,2.778,0,0,0-.543-.04s-.248-1.438.332-1.984a.555.555,0,0,0,.1-.434,2.347,2.347,0,0,0-.084-.585.154.154,0,0,0-.017.035,21.507,21.507,0,0,0-1.433-3.35,4.169,4.169,0,0,1,.248-1.852c.342-.538-.322-7.146-.322-7.146a21.576,21.576,0,0,0-.451-4.679,5.252,5.252,0,0,1,.374-3.263.462.462,0,0,0-.015-.1v-.022s-.027-.2-.072-.5a.168.168,0,0,1,0,.032c-.121-.843-.354-2.37-.5-3.077-.221-.992-.179-5.832-.179-5.832l.744-2.093,1.587,3.5,1.723,4.676a4.04,4.04,0,0,1,.858,1.983v.149a2.752,2.752,0,0,0,0,.317,2.821,2.821,0,0,0,.533,1.666s.5,2.231,1.15,2.767a2.526,2.526,0,0,1,.7,1.641,27.76,27.76,0,0,0,1.279,3.771,5.69,5.69,0,0,1,.4,2.192h0v.119s.154,1.155.186,2.13v.322a3.531,3.531,0,0,1-.064.791v-.117a8.338,8.338,0,0,0-.154,2.028,5.167,5.167,0,0,0,.992,3.325c1.277,1.356,2.041,1.15,2.041,1.15s-.521,1.775-1.24,2.155a.519.519,0,0,0-.077.052.713.713,0,0,0-.02-.1.848.848,0,0,0-.188.66,4.732,4.732,0,0,0,.992,2.566,1.442,1.442,0,0,0,.625.332,1.232,1.232,0,0,1-.109.077,2.351,2.351,0,0,1-.248.126,1.215,1.215,0,0,1-.367.109,1.748,1.748,0,0,0-1.26.674,1.332,1.332,0,0,0,.248,2.073l3.283.992S793.381,409,793.027,407.756Z" transform="translate(-563.683 -260.424)" fill="url(#linear-gradient-2)"/>
  <path id="Path_946" data-name="Path 946" d="M864.6,720.124l-3.179-.992a1.365,1.365,0,0,1-.231-2.075,1.674,1.674,0,0,1,1.217-.672,1.488,1.488,0,0,0,.59-.248,1.389,1.389,0,0,0,.479-.474,2.322,2.322,0,0,0,.312-1.225s3.4-1.141,4.384-.169a2.65,2.65,0,0,1,.441.6,5.12,5.12,0,0,1,.523,2.2s.218,1.086.55,2.326S864.6,720.124,864.6,720.124Z" transform="translate(-656.451 -569.904)" fill="#2d293d"/>
  <path id="Path_947" data-name="Path 947" d="M926.236,711.559l-3.176-.992a1.359,1.359,0,0,1-.233-2.07,1.657,1.657,0,0,1,1.217-.672,1.24,1.24,0,0,0,.355-.111,2.064,2.064,0,0,0,.248-.127,1.981,1.981,0,0,0,.791-1.7s3.4-1.14,4.384-.169a2.417,2.417,0,0,1,.347.434,4.967,4.967,0,0,1,.617,2.36s.218,1.091.55,2.328S926.236,711.559,926.236,711.559Z" transform="translate(-702.809 -563.474)" fill="#2d293d"/>
  <path id="Path_948" data-name="Path 948" d="M876.236,714.309a2.652,2.652,0,0,1,.441.6h0l-5.137.8a2.321,2.321,0,0,0,.312-1.225S875.254,713.337,876.236,714.309Z" transform="translate(-664.518 -569.932)" opacity="0.1"/>
  <path id="Path_949" data-name="Path 949" d="M936.057,706.134l.037.967c-.744,1.354-4.641,1.213-5.794.593a2.036,2.036,0,0,0,.248-.126,1.981,1.981,0,0,0,.791-1.7s3.4-1.141,4.384-.169A2.43,2.43,0,0,1,936.057,706.134Z" transform="translate(-708.709 -563.459)" opacity="0.1"/>
  <path id="Path_950" data-name="Path 950" d="M870.352,537.129a8.506,8.506,0,0,0-.563,1.339l.131,3.471c-.821,1.488-5.4,1.175-6.042.409s-1.381-2.8-.692-3.179,1.19-2.152,1.19-2.152-.744.2-1.984-1.153-1.007-4.483-.816-5.237a15.543,15.543,0,0,0-.126-3.245,6.5,6.5,0,0,0-.394-2.311,28.811,28.811,0,0,1-1.24-3.771,2.594,2.594,0,0,0-.677-1.644c-.635-.548-1.116-2.767-1.116-2.767a2.876,2.876,0,0,1-.511-1.867,3.826,3.826,0,0,0-.833-2.251l-1.674-4.676-1.54-3.5-.707,2.1s-.035,4.83.181,5.832.58,3.665.58,3.665a5.4,5.4,0,0,0-.357,3.263,22.285,22.285,0,0,1,.444,4.681s.647,6.6.317,7.143a4.369,4.369,0,0,0-.248,1.852s1.946,3.789,1.4,4.336-.32,1.984-.32,1.984,1.24-.047.724.5-.8,3.325-.8,3.325l-5.276.818a10.991,10.991,0,0,1-1.274-2.192c-.764-1.6.077-1.45.776-1.654s.248-.622-.617-1.118-.417-1.7-.417-1.7,1.188-2.2.744-2.355-.6-3.181-.6-3.181-1.014-3.56-.833-4.535-.828-3.26-.828-3.26l-.411-2.75a7.6,7.6,0,0,1-1.165-5.18l-.154-4.267s-1.545-8.182-1.879-12.352c-.216-2.663-.325-6.3-.374-8.576-.027-1.274-.037-2.12-.037-2.12l18.861-2.7a15.75,15.75,0,0,0,.451,2.8c.233,1.031.588,2.368,1.128,4.031a18.509,18.509,0,0,1,.85,8.4l.06,6.1s1.822,4.012,1.525,5.43a11.786,11.786,0,0,0-.248,2.556s4.069,8.755,3.774,11.356,1.488,6.618,1.488,6.618S870.761,536.323,870.352,537.129Z" transform="translate(-642.551 -398.639)" fill="#65617d"/>
  <path id="Path_951" data-name="Path 951" d="M908.13,598.312l5.735-.992S910.728,600.781,908.13,598.312Z" transform="translate(-692.036 -482.245)" opacity="0.05"/>
  <path id="Path_952" data-name="Path 952" d="M924.135,574.74s.275,2.031-.945,2.846C923.2,577.586,925.422,577.15,924.135,574.74Z" transform="translate(-703.362 -465.264)" opacity="0.1"/>
  <path id="Path_953" data-name="Path 953" d="M904.281,548.63s-4.666,4.153-6.446,3.893S904.281,548.63,904.281,548.63Z" transform="translate(-684.104 -445.628)" opacity="0.1"/>
  <path id="Path_954" data-name="Path 954" d="M868.438,610s-3.627.972-3.679,2.445S868.438,610,868.438,610Z" transform="translate(-659.418 -491.781)" opacity="0.1"/>
  <path id="Path_955" data-name="Path 955" d="M873.821,683.55s-5.13,1.163-3.642,1.763a25.1,25.1,0,0,0,3.925,1.036S875.773,686.372,873.821,683.55Z" transform="translate(-663.291 -547.095)" opacity="0.05"/>
  <g id="Group_1399" data-name="Group 1399" transform="translate(199.772 90.082)" opacity="0.05">
    <path id="Path_956" data-name="Path 956" d="M865.007,692.781a1.029,1.029,0,0,1-.5-.731c-.03.06-.049.094-.049.094s-.436,1.2.417,1.7c.1.057.191.112.278.166.154-.035.317-.062.476-.109C866.311,693.706,865.847,693.277,865.007,692.781Z" transform="translate(-858.883 -643.57)"/>
    <path id="Path_957" data-name="Path 957" d="M893.04,689.852c.136-.136.119-.474.015-.9a2.437,2.437,0,0,0-.248,1.279A1.017,1.017,0,0,1,893.04,689.852Z" transform="translate(-880.278 -641.238)"/>
    <path id="Path_958" data-name="Path 958" d="M886.3,604.75a5.945,5.945,0,0,0-.288,1.626,6.324,6.324,0,0,1,.36-1.123S886.342,605.06,886.3,604.75Z" transform="translate(-875.172 -577.915)"/>
    <path id="Path_959" data-name="Path 959" d="M934.339,592.171a1.953,1.953,0,0,0,.03-.481c-.052.33-.087.635-.109.9C934.285,592.456,934.31,592.315,934.339,592.171Z" transform="translate(-911.459 -568.093)"/>
    <path id="Path_960" data-name="Path 960" d="M888.747,664.657a2.786,2.786,0,0,0,.092-.977,3.3,3.3,0,0,0-.2,1.24A1.193,1.193,0,0,1,888.747,664.657Z" transform="translate(-877.146 -622.234)"/>
    <path id="Path_961" data-name="Path 961" d="M872.051,700.8a17.253,17.253,0,0,0-.5,2.727l-5.276.818a11.11,11.11,0,0,1-1.272-2.189c-.067-.141-.122-.268-.166-.382-.312.159-.424.5.03,1.44a11.008,11.008,0,0,0,1.274,2.189l5.276-.818s.288-2.777.793-3.322C872.46,700.983,872.289,700.85,872.051,700.8Z" transform="translate(-859.047 -650.15)"/>
    <path id="Path_962" data-name="Path 962" d="M848,539.565s.161,3.025.6,3.184h0c.2-.508.332-.992.134-1.059-.446-.159-.6-3.184-.6-3.184s-1.017-3.56-.833-4.532-.828-3.26-.828-3.26l-.414-2.75a7.6,7.6,0,0,1-1.165-5.18l-.164-4.252s-1.545-8.182-1.879-12.353c-.216-2.663-.325-6.305-.374-8.576,0-.412-.015-.776-.022-1.084l-.151.022s0,.843.04,2.12c.05,2.271.159,5.913.372,8.576.337,4.158,1.882,12.352,1.882,12.352l.164,4.252a7.6,7.6,0,0,0,1.165,5.179l.412,2.75s1.012,2.286.828,3.26S848,539.565,848,539.565Z" transform="translate(-842.3 -496.52)"/>
    <path id="Path_963" data-name="Path 963" d="M926.428,701.788a5.127,5.127,0,0,1-.917-2.048c-.523.5.171,2.38.784,3.107.645.766,5.222,1.074,6.042-.407l-.032-.836C931.166,702.829,927.038,702.517,926.428,701.788Z" transform="translate(-904.741 -649.353)"/>
    <path id="Path_964" data-name="Path 964" d="M954.173,686.895a8.5,8.5,0,0,0-.563,1.339l.022.615c.092-.228.223-.533.406-.9a2.66,2.66,0,0,0,.149-1.093Z" transform="translate(-926.012 -639.667)"/>
    <path id="Path_965" data-name="Path 965" d="M922.03,671.409a8.263,8.263,0,0,0,.392-1.059s-.744.2-1.983-1.153c-.9-.992-1.024-2.913-.95-4.178-.191.744-.422,3.88.816,5.237A3.161,3.161,0,0,0,922.03,671.409Z" transform="translate(-900.236 -623.242)"/>
    <path id="Path_966" data-name="Path 966" d="M893.494,579.615a23.75,23.75,0,0,1,.188,2.593,3.228,3.228,0,0,1,.074-.409,15.556,15.556,0,0,0-.126-3.243,6.543,6.543,0,0,0-.4-2.313,28.918,28.918,0,0,1-1.24-3.771,2.578,2.578,0,0,0-.679-1.641c-.637-.545-1.116-2.767-1.116-2.767a2.887,2.887,0,0,1-.511-1.87,3.815,3.815,0,0,0-.833-2.249l-1.676-4.679-1.54-3.5-.709,2.09v.667l.578-1.7,1.54,3.5L888.718,565a3.815,3.815,0,0,1,.833,2.249,2.871,2.871,0,0,0,.511,1.87s.479,2.231,1.116,2.767a2.552,2.552,0,0,1,.677,1.641,28.819,28.819,0,0,0,1.24,3.771A6.594,6.594,0,0,1,893.494,579.615Z" transform="translate(-874.36 -541.079)"/>
  </g>
  <path id="Path_967" data-name="Path 967" d="M908.36,314.01l-.268,1.614.047.712.035.526-1.822.248-.221-.372h0a15.369,15.369,0,0,0-1.508-2.232c-.347-.27-1.123-4.7-.389-4.463a1.921,1.921,0,0,1,1.056.883S908.905,311.2,908.36,314.01Z" transform="translate(-688.877 -266.189)" fill="#ffcdd3"/>
  <path id="Path_968" data-name="Path 968" d="M914.853,335.381l-1.822.248-.221-.372h0a1.617,1.617,0,0,1,2.008-.412Z" transform="translate(-695.556 -284.709)" opacity="0.1"/>
  <path id="Path_969" data-name="Path 969" d="M915.028,336.781l-2.39.652-.064-.357-.174-.962a1.66,1.66,0,0,1,2.323-.407l.139.5Z" transform="translate(-695.248 -285.259)" fill="#dce6f2"/>
  <path id="Path_970" data-name="Path 970" d="M746.813,309.849l-2.522,1.488s-.107-.2-.248-.476c-.265-.5-.66-1.264-.771-1.537-.169-.419-1.264-.917-1.264-.917-2.794-2.479.332-4.808.332-4.808,1.567-3.486,3.637,1.022,3.637,1.022a11.551,11.551,0,0,1,.176,2.574c-.181.171-.154.828-.154.828a9.752,9.752,0,0,1,.677,1.45C746.766,309.7,746.813,309.849,746.813,309.849Z" transform="translate(-566.229 -260.355)" fill="#ffcdd3"/>
  <path id="Path_971" data-name="Path 971" d="M756.509,331.7l-2.521,1.488s-.107-.2-.248-.476c.35-.317,1.6-1.413,2.023-1.381a3.268,3.268,0,0,0,.61,0C756.462,331.549,756.509,331.7,756.509,331.7Z" transform="translate(-575.926 -282.203)" opacity="0.1"/>
  <path id="Path_972" data-name="Path 972" d="M757.058,332.867l-2.839,1.537-.082-.62-.057-.429s1.622-1.5,2.12-1.465a2.682,2.682,0,0,0,.744-.03l.055.518Z" transform="translate(-576.182 -282.604)" fill="#dce6f2"/>
  <path id="Path_973" data-name="Path 973" d="M863.25,340.638s-12.561,1.909-10.233,1.054a3.171,3.171,0,0,0,2.326-2.829,6.625,6.625,0,0,0-.583-2.9,12.665,12.665,0,0,0-1.215-2.231s9.439-5.675,7.686-.779a7.664,7.664,0,0,0-.459,2.306,6.442,6.442,0,0,0,.337,2.3A6.892,6.892,0,0,0,863.25,340.638Z" transform="translate(-650.372 -281.926)" fill="#ffcdd3"/>
  <path id="Path_974" data-name="Path 974" d="M863.716,332.966a7.67,7.67,0,0,0-.459,2.306c-.878.8-1.877.786-3.156.836-.992.037-2.063.317-2.866-.126a12.664,12.664,0,0,0-1.215-2.231S865.459,328.072,863.716,332.966Z" transform="translate(-652.847 -281.94)" opacity="0.1"/>
  <circle id="Ellipse_403" data-name="Ellipse 403" cx="5.222" cy="5.222" r="5.222" transform="translate(201.676 44.072)" fill="#ffcdd3"/>
  <path id="Path_975" data-name="Path 975" d="M863.25,359.209s-12.561,1.909-10.233,1.054a3.171,3.171,0,0,0,2.326-2.829,6.968,6.968,0,0,1,2.645-1.537,3.766,3.766,0,0,1,2.284-.124,3.182,3.182,0,0,1,.848.352,6.892,6.892,0,0,0,2.13,3.084Z" transform="translate(-650.372 -300.497)" opacity="0.1"/>
  <path id="Path_976" data-name="Path 976" d="M915.555,339.027l-2.39.652-.065-.357a2.137,2.137,0,0,1,2.289-.883Z" transform="translate(-695.774 -287.504)" opacity="0.1"/>
  <path id="Path_977" data-name="Path 977" d="M757.231,334.476l-2.839,1.537-.082-.62A21.018,21.018,0,0,1,757.181,334Z" transform="translate(-576.355 -284.213)" opacity="0.1"/>
  <path id="Path_978" data-name="Path 978" d="M861.62,488.989c-4.855.96-11.77,2.231-12.893,1.936a31.879,31.879,0,0,0-6.389.084c-.027-1.274-.037-2.12-.037-2.12l18.861-2.7A15.749,15.749,0,0,0,861.62,488.989Z" transform="translate(-642.528 -398.669)" opacity="0.1"/>
  <path id="Path_979" data-name="Path 979" d="M798.1,373.688s-15.982,3.379-17.73,2.921-10.59.451-10.59.451c-3.885,2.827-2.373-1.183-2.373-1.183a9.679,9.679,0,0,1,0-3.732,22.922,22.922,0,0,0,.513-3.751s-.188-2.626.27-3.258.86-5.038.86-5.038.322-3,.248-3.655a23.854,23.854,0,0,1,.037-2.5l.446-3.089c-3.305-.312-13.535-6.065-13.535-6.065-.563-2.041-4.463-6.719-4.463-6.719a5.031,5.031,0,0,0-.352-1.173c-.29-.692,3.6-2.246,3.6-2.246s3.074,3.471,3.719,4.423a19.047,19.047,0,0,0,2.824,2.658,2.108,2.108,0,0,1,.97.087l.049.015h0a7.847,7.847,0,0,1,2.006,1.051,3.808,3.808,0,0,1,2.713.9s1.788-.332,2.1-.037,1.842-.069,1.842-.069,1.408-3.305,2.452-2.4,5.323.694,5.323.694a6.316,6.316,0,0,1,2.765-1.688,3.766,3.766,0,0,1,2.284-.126,2.929,2.929,0,0,1,.92.4l2.693,2.442s.709-.992.612-1.21.863-.426.863-.426,1.255-.444,1.736-.6.937.357.979.4a5.073,5.073,0,0,1-.293-1.919,2.264,2.264,0,0,0-.588-1.557c1.391-3.828,4.974-.806,4.974-.806a7.189,7.189,0,0,1,.154,2.849c-.322.8.446,2.44.374,2.881s.221,1.178.248,2.011a12.154,12.154,0,0,1-.58,3.139c-.236.712-2.281,2.37-2.281,2.37a9.9,9.9,0,0,1-.9,3.987c-.865,1.483-.1,6.414-.1,6.414s1.026,3.823,2.169,5.008S798.1,373.688,798.1,373.688Z" transform="translate(-574.179 -284.702)" fill="#3f3d56"/>
  <path id="Path_980" data-name="Path 980" d="M833.7,371.473s-.538-1.428-.992-1.542a10.529,10.529,0,0,1-1.292-.521l.248-.55s1.664.387,1.946.86A3.858,3.858,0,0,1,833.7,371.473Z" transform="translate(-634.346 -310.43)" opacity="0.1"/>
  <path id="Path_981" data-name="Path 981" d="M792.567,364.634c-.072.441-3.967.992-3.967.992l1.9-2.055h0l.05.015h0a7.847,7.847,0,0,1,2.021,1.049Z" transform="translate(-602.143 -306.452)" opacity="0.1"/>
  <ellipse id="Ellipse_404" data-name="Ellipse 404" cx="0.352" cy="0.352" rx="0.352" ry="0.352" transform="translate(178.553 52.246)" fill="#575988"/>
  <ellipse id="Ellipse_405" data-name="Ellipse 405" cx="0.352" cy="0.352" rx="0.352" ry="0.352" transform="translate(179.029 52.931)" fill="#575988"/>
  <ellipse id="Ellipse_406" data-name="Ellipse 406" cx="0.352" cy="0.352" rx="0.352" ry="0.352" transform="translate(179.493 53.56)" fill="#575988"/>
  <ellipse id="Ellipse_407" data-name="Ellipse 407" cx="0.352" cy="0.352" rx="0.352" ry="0.352" transform="translate(179.979 54.245)" fill="#575988"/>
  <circle id="Ellipse_408" data-name="Ellipse 408" cx="0.285" cy="0.285" r="0.285" transform="translate(221.367 52.683)" fill="#575988"/>
  <circle id="Ellipse_409" data-name="Ellipse 409" cx="0.285" cy="0.285" r="0.285" transform="translate(221.437 53.327)" fill="#575988"/>
  <circle id="Ellipse_410" data-name="Ellipse 410" cx="0.285" cy="0.285" r="0.285" transform="translate(221.499 53.972)" fill="#575988"/>
  <path id="Path_982" data-name="Path 982" d="M842.56,427.31c-.042-.05,10.319,12.05,17.715,4.542C860.273,431.852,848.215,433.962,842.56,427.31Z" transform="translate(-642.724 -354.387)" opacity="0.1"/>
  <path id="Path_983" data-name="Path 983" d="M820.67,454.359s5.921-.067,6.605,1.609l.067,1.77a1.128,1.128,0,0,1-1.1.042c-.607-.3-4.252-1.984-5.479-1.054Z" transform="translate(-626.261 -374.73)" opacity="0.1"/>
  <path id="Path_984" data-name="Path 984" d="M821.12,454.339s5.66-.064,6.315,1.535l.064,1.689a1.086,1.086,0,0,1-1.054.04c-.58-.285-4.066-1.884-5.239-1Z" transform="translate(-626.6 -374.715)" fill="#656691"/>
  <path id="Path_985" data-name="Path 985" d="M831.7,402.07a19.022,19.022,0,0,0,2.445,3.846,15.43,15.43,0,0,0,3.719,3.327S831.829,402.878,831.7,402.07Z" transform="translate(-634.556 -335.406)" opacity="0.1"/>
  <path id="Path_986" data-name="Path 986" d="M822.83,374.66s1.151,4.215,3.749,5.569Z" transform="translate(-627.886 -314.792)" opacity="0.1"/>
  <path id="Path_987" data-name="Path 987" d="M816.608,376.626c-.03-.079-.744,3.4,3.471,5.147C820.086,381.773,818.3,381.243,816.608,376.626Z" transform="translate(-623.159 -316.269)" opacity="0.1"/>
  <path id="Path_988" data-name="Path 988" d="M920.486,361.08a28.786,28.786,0,0,1,2.7,1.872S921.733,360.943,920.486,361.08Z" transform="translate(-701.327 -304.574)" opacity="0.1"/>
  <path id="Path_989" data-name="Path 989" d="M852.09,315.206a.821.821,0,0,0,.93.781,10.613,10.613,0,0,0,4.711-.625,1.776,1.776,0,0,0,.7-.5,2.968,2.968,0,0,0,.374-1.17,17.042,17.042,0,0,1,.878-2.251,7.455,7.455,0,0,0,.352-4,2.664,2.664,0,0,0-.441-1.148c-.446-.588-1.225-.8-1.8-1.26s-.964-1.178-1.629-1.512a2.98,2.98,0,0,0-1.984-.1,10.353,10.353,0,0,0-3.62,1.522,1.832,1.832,0,0,1-1.212.464,1.69,1.69,0,0,1-.93-.657,4.86,4.86,0,0,0-.3,2.288.991.991,0,0,1,0,.342,1.052,1.052,0,0,1-.231.369,1.326,1.326,0,0,0-.186,1.646c.176.2.439.3.612.5.307.355.228.885.248,1.354a.687.687,0,0,0,.134.459.677.677,0,0,0,.65.129,1.754,1.754,0,0,1,.682-.092,1.136,1.136,0,0,1,.615.436A7.971,7.971,0,0,1,852.09,315.206Z" transform="translate(-646.423 -261.129)" fill="#2d293d"/>
  <g id="Group_1400" data-name="Group 1400" transform="translate(201.059 43.566)" opacity="0.1">
    <path id="Path_990" data-name="Path 990" d="M858.591,328.478a1.777,1.777,0,0,1-.7.5,10.5,10.5,0,0,1-4.7.625.821.821,0,0,1-.932-.779,8.105,8.105,0,0,0-1.448-3.035,1.14,1.14,0,0,0-.612-.436,1.813,1.813,0,0,0-.684.092.677.677,0,0,1-.65-.129.7.7,0,0,1-.134-.459,1.966,1.966,0,0,0-.248-1.354c-.171-.2-.436-.3-.612-.5a1.031,1.031,0,0,1-.141-1.044,1.2,1.2,0,0,0-.02,1.4c.176.193.441.293.612.5.307.355.231.885.248,1.356a.685.685,0,0,0,.134.456.669.669,0,0,0,.65.129,1.806,1.806,0,0,1,.684-.092,1.153,1.153,0,0,1,.612.436,8.161,8.161,0,0,1,1.448,3.035,1.1,1.1,0,0,0,.434.689,1.119,1.119,0,0,0,.5.092,10.614,10.614,0,0,0,4.711-.627,1.8,1.8,0,0,0,.7-.5,1.419,1.419,0,0,0,.208-.431A.727.727,0,0,1,858.591,328.478Z" transform="translate(-847.494 -318.724)"/>
    <path id="Path_991" data-name="Path 991" d="M850.007,311.454a.743.743,0,0,0,.149-.27.935.935,0,0,0,0-.342,4.858,4.858,0,0,1,.174-1.9l-.032-.035a4.869,4.869,0,0,0-.3,2.289A1.464,1.464,0,0,1,850.007,311.454Z" transform="translate(-849.353 -308.91)"/>
  </g>
  <path id="Path_992" data-name="Path 992" d="M862.82,363.019s6.551.615,7.1-.389" transform="translate(-657.96 -305.745)" opacity="0.1"/>
  <path id="Path_993" data-name="Path 993" d="M913.5,351.349s3.62-.134,4.463,1.193" transform="translate(-696.075 -297.258)" opacity="0.1"/>
  <path id="Path_994" data-name="Path 994" d="M76.68,302.716V316.6c0,.414-.776.744-1.736.744H38.316c-.957,0-1.736-.335-1.736-.744V302.716c0-.414.774-.836,1.736-.836H74.949C75.9,301.88,76.68,302.3,76.68,302.716Z" transform="translate(-36.58 -260.057)" fill="#fff"/>
  <g id="Group_1401" data-name="Group 1401" transform="translate(0 41.823)" opacity="0.2">
    <path id="Path_995" data-name="Path 995" d="M76.68,302.716V316.6c0,.414-.776.744-1.736.744H38.316c-.957,0-1.736-.335-1.736-.744V302.716c0-.414.774-.836,1.736-.836H74.949C75.9,301.88,76.68,302.3,76.68,302.716Z" transform="translate(-36.58 -301.88)" fill="#3598db"/>
  </g>
  <rect id="Rectangle_1793" data-name="Rectangle 1793" width="19.082" height="0.674" transform="translate(17.601 46.782)" fill="#3598db"/>
  <path id="Path_996" data-name="Path 996" d="M54.912,315.92a4.525,4.525,0,0,0-2.494,8.3v-.3a1.026,1.026,0,0,1,.9-1.017,1.8,1.8,0,0,0,3.149,0,1.026,1.026,0,0,1,.9,1.017v.322a4.525,4.525,0,0,0-2.465-8.318Zm1.773,5.735a1.793,1.793,0,0,1-3.575,0,1.964,1.964,0,0,1,1.029-2.631.575.575,0,0,1-.1-.322.6.6,0,0,1,.6-.6h.042a.6.6,0,0,0-.555.6.573.573,0,0,0,.079.3h.017a.6.6,0,0,1,0-.117.879.879,0,0,1,.684-.769h.042a.6.6,0,0,0-.456.268.6.6,0,0,1,.927.5.606.606,0,0,1,0,.067,1.964,1.964,0,0,1,1.279,2.715Z" transform="translate(-46.965 -270.616)" fill="#3598db" opacity="0.2"/>
  <rect id="Rectangle_1794" data-name="Rectangle 1794" width="19.082" height="0.674" transform="translate(17.601 48.423)" fill="#3598db" opacity="0.2"/>
  <rect id="Rectangle_1795" data-name="Rectangle 1795" width="19.082" height="0.674" transform="translate(17.601 50.064)" fill="#3598db" opacity="0.2"/>
  <rect id="Rectangle_1796" data-name="Rectangle 1796" width="19.082" height="0.674" transform="translate(17.601 51.706)" fill="#3598db" opacity="0.2"/>
  <path id="Path_997" data-name="Path 997" d="M145.608,373.633a15,15,0,0,1-.248-2.284c0-.917-1.24-1.736-1.24-1.736s-.771-1.785-1.277-2.046a16.017,16.017,0,0,1-2.1-2.6,2.117,2.117,0,0,0-.479-1.26,18.043,18.043,0,0,1-1.3-1.961h0c-.213-.263-.107-.446-.426-1.969q-.027-.119-.06-.231a.341.341,0,0,0-.032-.1,2.574,2.574,0,0,0,.6-2.663,1.093,1.093,0,0,0-.3-.471c-.362-.3-.94-.174-1.312-.454l.394-1.75c.1-.426.146-.972-.231-1.2a1.889,1.889,0,0,0-.441-.149,2.04,2.04,0,0,1-1.18-1.545,5.3,5.3,0,0,1-.129-1.934c.072-.62.248-1.225.322-1.847a5.1,5.1,0,0,0-.786-3.288,2.564,2.564,0,0,0-1.039-.979,9.421,9.421,0,0,1-1.24-.436c-.8-.5-.759-1.708-1.393-2.405a2.735,2.735,0,0,0-2.69-.451,7.961,7.961,0,0,1-2.8.54c-.612-.067-1.188-.345-1.8-.409a1.8,1.8,0,0,0-.528.025l.012-.022a1.141,1.141,0,0,0-.979.766,1.182,1.182,0,0,0-.03.312c0,.248.06.511.064.744a.724.724,0,0,1-.174.528c-.121.131-.3.2-.421.335a.545.545,0,0,0-.156.394c0,.382.476.717.8.87h0c-.087.087-.171.176-.248.268a5.633,5.633,0,0,0-1.4,3.751,5.715,5.715,0,0,0,3.471,5.234c-.015.047-.027.092-.045.139a7.374,7.374,0,0,1-.312.811,1.607,1.607,0,0,0-1.346.149,3.457,3.457,0,0,1-2.127.315,29.478,29.478,0,0,0-3.908-.394c-.265.1-.8-.367-1.143.263s-.5.972-.85,1.128-.957.657-.878.761-.878.744-.878.744a4.234,4.234,0,0,1-1.3.972,7.246,7.246,0,0,0-1.488.761l-1.17.917s-.878.131-.612-.471-.479-1.366-.479-1.366a21.568,21.568,0,0,1-1.488-3.645,18.4,18.4,0,0,0-1.222-3.28l-.151-.015c-.022-.064-.045-.129-.069-.2a18.508,18.508,0,0,0-.744-1.862c-.422-.865-.694-.964-.694-.964s-5.157-3.873-8.507-2.693,6.114,4.7,6.965,5.065a1.6,1.6,0,0,1,.662,1.026,4.406,4.406,0,0,0-1.822,1.659s2.046,4.537,2.1,5.665a21.576,21.576,0,0,0,1.411,4.277,2.979,2.979,0,0,0,3.243,2.2s3.774.692,4.6,0a6.518,6.518,0,0,1,1.969-1.317,1.549,1.549,0,0,0,.744-.526s-1.24,7.87-1.86,8.554-6.035,9.523-4.1,11.1a38.869,38.869,0,0,0,4.865,3.223c.166.082.66-.744,1.366-1.326v.454c.012,3.144.422,7.934,1,9.005.85,1.574.5,4.619.5,4.619a3.669,3.669,0,0,0,1.438.345c.025.1.055.208.084.32a42.986,42.986,0,0,0,1.614,5.237,21.161,21.161,0,0,1,1.012,4.592,32.325,32.325,0,0,1,.213,3.91,22.836,22.836,0,0,0,.526,3.417h0c-.216,2.46-.62,7.2-.689,8.926h0V426h0a1.95,1.95,0,0,0,0,.322,1.009,1.009,0,0,1-.035.5,7.966,7.966,0,0,1-.578,1.374,6.588,6.588,0,0,0-.248.667,1.2,1.2,0,0,0-.62.88c-.265,1.024-.664,3.858-.664,3.858a6.859,6.859,0,0,1-.479,2.125,2.195,2.195,0,0,0,1.622,3.174,3.282,3.282,0,0,0,3.243-1.2l-.079-6.868h0a1,1,0,0,0,.117-.188v-.015c.015-.035.032-.067.047-.107s0-.032.02-.05.022-.055.032-.084a.139.139,0,0,1,0-.03,4.512,4.512,0,0,0,.191-2.046v-.141a.322.322,0,0,0,0-.047.48.48,0,0,1,0-.059v-.042a.451.451,0,0,1,.015-.139.092.092,0,0,1,0-.027v-.082a.189.189,0,0,0,0-.037.6.6,0,0,1,.017-.087v-.02c.02-.1.047-.2.074-.31V427.3l.03-.1h0c.035-.112.072-.221.109-.33v-.022l.037-.1v-.012c.037-.1.077-.206.117-.3V426.4l.037-.087v-.025l.082-.193h0l.627,1.936a4.911,4.911,0,0,1,.159,1.783c-.186.34.213,1.76.479,1.785l-.248,1.785a27.3,27.3,0,0,0-.248,2.975c-.017.112-.035.208-.047.283a6.37,6.37,0,0,0,.248,2.331c2.1,2.479,4.6.193,4.6.193s.293-1.314,0-1.574-.159-1.207-.159-1.207.131-2.336.159-4.041a5.3,5.3,0,0,0-1.4-3.206l-.079.072a5.437,5.437,0,0,1-.5-1.8c.107-.6-.293-6.977-.293-6.977a38.051,38.051,0,0,0,.092-5.127h0c.035-.29.067-.575.1-.85.161-1.371.29-2.544.342-3.156h0v-.072c.012-.166.02-.283.017-.34,0-.2,0-.459.02-.727.052-.744.166-1.557.166-1.557l.558-3.384a10.5,10.5,0,0,1,1.036-2.571l.072-.117h0c.025-.04.05-.084.074-.131v-.02l.074-.141v-.02c.087-.169.179-.364.273-.578l.022-.047.072-.164.027-.064.072-.164c0-.022.017-.042.027-.065.027-.067.055-.134.084-.2l.04-.1c.022-.05.042-.1.062-.151l.055-.129.037-.1.06-.146c0-.022.02-.045.027-.067.151-.379.3-.744.429-1.1h0c.042-.107.082-.208.119-.307,1.361.084,2.286.161,2.286.161a31.736,31.736,0,0,0,.293-5.09,18.757,18.757,0,0,1,.335-4.074c.02-.107.037-.2.052-.285l.037.03c.667.523,1.143-1.207,1.143-1.207s-.179-1.619-.419-3.575a1.765,1.765,0,0,0-.025-.2,10.292,10.292,0,0,0,1.163.179s.213-.02.5-.057a14.086,14.086,0,0,0,2.524,1.131l1.408-2.623a10.7,10.7,0,0,1,.93-1.547,14.162,14.162,0,0,0,1.914-2.519,8.606,8.606,0,0,1,1.036-2.938A7.033,7.033,0,0,0,145.608,373.633Zm-5.9,1.984c-.558.236-1.091,1.547-1.116,1.941s-.612,2.125-1.225,2.336a8.213,8.213,0,0,0-1.808,1.339c-.176.017-.374.04-.583.074a20.271,20.271,0,0,0-.612-3.3c-.424-.788.469-3.305.469-3.305s.089-2.544.647-3.149.426-2.125.426-2.125.131-.63.186-.917.791,0,.8,0h0a3.481,3.481,0,0,1,1.649,1.966,11.221,11.221,0,0,0,1.78,3.223s-.248.707,0,1.076-.05.617-.607.853Z" transform="translate(-80.295 -288.525)" fill="url(#linear-gradient-3)"/>
  <path id="Path_998" data-name="Path 998" d="M121.15,387.814a4.287,4.287,0,0,1,4.294-2.016v3.065h-1.852l-1.468-.379Z" transform="translate(-100.182 -323.134)" fill="#4c4981"/>
  <path id="Path_999" data-name="Path 999" d="M121.15,387.814a4.287,4.287,0,0,1,4.294-2.016v3.065h-1.852l-1.468-.379Z" transform="translate(-100.182 -323.134)" opacity="0.1"/>
  <path id="Path_1000" data-name="Path 1000" d="M106.119,368.761l-2.279,1.6s-.02-.322-.077-.759c-.114-.826-.369-2.065-.92-2.306-.838-.367-10.166-3.875-6.858-5.053s8.378,2.685,8.378,2.685.263.089.679.955c.221.454.5,1.227.729,1.857C105.973,368.31,106.119,368.761,106.119,368.761Z" transform="translate(-80.725 -305.285)" fill="#ae6e79"/>
  <path id="Path_1001" data-name="Path 1001" d="M173.992,265.564l.258-.124.729.831-.6,1.269-1.014-.407.236-1.014Z" transform="translate(-130.379 -199.626)" fill="#4c4981"/>
  <path id="Path_1002" data-name="Path 1002" d="M191.692,699.066s-.655-.077-.917.942-.655,3.85-.655,3.85a6.9,6.9,0,0,1-.471,2.12c-.315.384-.627,2.854,1.6,3.169a3.22,3.22,0,0,0,3.2-1.2l-.079-6.868Z" transform="translate(-151.531 -558.763)" fill="#444053"/>
  <path id="Path_1003" data-name="Path 1003" d="M219.443,700.32a5.291,5.291,0,0,1,1.376,3.2c-.025,1.711-.159,4.034-.159,4.034s-.129.942.159,1.205,0,1.569,0,1.569-2.462,2.286-4.53-.191a6.717,6.717,0,0,1-.248-2.328c.156-.912.627-5.021.627-5.021Z" transform="translate(-171.518 -559.707)" fill="#444053"/>
  <path id="Path_1004" data-name="Path 1004" d="M204.588,569.615a42.923,42.923,0,0,1-2.018,4.87,10.323,10.323,0,0,0-1.019,2.569l-.55,3.379a18.528,18.528,0,0,0-.183,2.279c.025.759-1.361,11.834-1.361,11.834l-2.2,2.8a7.181,7.181,0,0,0-.813,2.777,4.109,4.109,0,0,1-.419,2.512s-.052,2.566-.131,3.144.29,2.2,0,2.479-4.136.156-4.242-.315a13.858,13.858,0,0,1,.474-2.75l.34-2.2s.679-1.205.523-1.6.288-1.309.315-1.388.744-1.361.6-1.857.811-11.051.811-11.051l2.7-18.933Z" transform="translate(-153.192 -460.323)" fill="#ae6e79"/>
  <path id="Path_1005" data-name="Path 1005" d="M204.6,569.63s-.213.6-.511,1.379a26.274,26.274,0,0,1-1.507,3.491,10.6,10.6,0,0,0-1.022,2.566l-.548,3.379a18.521,18.521,0,0,0-.183,2.276c0,.3-.2,2.214-.459,4.416-.4,3.37-.9,7.421-.9,7.421l-2.2,2.8s-.112.226-.248.553a5.169,5.169,0,0,0-.56,2.231,4.117,4.117,0,0,1-.419,2.514s-.052,2.569-.131,3.141.29,2.2,0,2.479-4.136.159-4.242-.315a13.821,13.821,0,0,1,.471-2.747l.342-2.2s.679-1.2.523-1.6.288-1.309.315-1.388.744-1.361.6-1.86c-.1-.379.421-6.58.674-9.521.082-.927.136-1.527.136-1.527l2.321-16.287.186-1.314.191-1.331Z" transform="translate(-153.199 -460.338)" opacity="0.1"/>
  <path id="Path_1006" data-name="Path 1006" d="M199.931,612.966c.025.288-3.692.707-4.215.392s0-4.215,0-4.215l.248-1.78c-.263-.027-.655-1.441-.471-1.783a4.945,4.945,0,0,0-.159-1.78l-.617-1.934-.377-1.18a53.975,53.975,0,0,1-2.048-8.083,23.164,23.164,0,0,1-.518-3.414,32.238,32.238,0,0,0-.211-3.9,21.62,21.62,0,0,0-.992-4.582,44.167,44.167,0,0,1-1.592-5.229c-.236-.905-.4-1.555-.4-1.555s3.967-.332,6.357-.449c1.106-.052,1.879-.059,1.788.032a3.232,3.232,0,0,0-.107,1.262,32,32,0,0,0,.526,5.807,19.446,19.446,0,0,1,.575,5.053,14.663,14.663,0,0,0-.1,2.618,11.76,11.76,0,0,1,.459,2.844,38.378,38.378,0,0,1-.092,5.117s.394,6.362.288,6.965.838,2.479.838,2.854.238,2.854.238,2.854S199.906,612.679,199.931,612.966Z" transform="translate(-150.893 -464.283)" fill="#ae6e79"/>
  <path id="Path_1007" data-name="Path 1007" d="M212.918,390.72l-.451.5-.293.315-1.716,1.822-4.426.5-2.351-.63-.583-.154s0-1.183.107-2.6c.149-1.817.508-4.027,1.361-4.627a3.382,3.382,0,0,0,.992-1.262,7.06,7.06,0,0,0,.429-1.059c.017-.047.03-.092.045-.136a11.6,11.6,0,0,0,.417-1.944s.565-.312,1.349-.677c2.05-.957,5.591-2.276,4.359.677a11.131,11.131,0,0,0-.461,1.329c-.02.064-.037.131-.052.2a4.288,4.288,0,0,0,.169,3.193h0a2.228,2.228,0,0,0,.179.27,1.362,1.362,0,0,0,.3.3l.511,3.236.042.268Z" transform="translate(-161.813 -318.524)" fill="#ae6e79"/>
  <path id="Path_1008" data-name="Path 1008" d="M220.929,382.122c-.233.56.114-.459,0,0-.932.664-3.132,2.554-4.369,2.554a3.446,3.446,0,0,1-1.8-.474,11.628,11.628,0,0,0,.461-2.08S222.63,378.036,220.929,382.122Z" transform="translate(-170.582 -319.038)" opacity="0.1"/>
  <path id="Path_1009" data-name="Path 1009" d="M212.62,356.468a5.7,5.7,0,0,1-5.11,5.675,5.3,5.3,0,0,1-.6.032,5.7,5.7,0,1,1,5.7-5.7Z" transform="translate(-160.391 -296.825)" fill="#ae6e79"/>
  <path id="Path_1010" data-name="Path 1010" d="M207.66,432.943l-.811,2.122s-.664.03-1.7.062c-3.471.112-11.157.248-11.5-.64a2.149,2.149,0,0,1-.119-.7,13.727,13.727,0,0,1,.59-3.459s.367-4.19.367-4.371-.315-3.129-.315-3.129l.627-2.355,1.755-1.24s.786,1.205,1.257,1.309a3.3,3.3,0,0,1,1.1.682s1.542.942,2.041.417,4.374-2.827,4.374-2.827l2.043,2.251Z" transform="translate(-154.616 -347.995)" opacity="0.1"/>
  <path id="Path_1011" data-name="Path 1011" d="M207.66,434.213l-.811,2.122s-.664.03-1.7.06h-.1l-1.505.04a65.846,65.846,0,0,1-8.574-.211c-.744-.109-1.24-.248-1.322-.471a1.733,1.733,0,0,1-.094-.389,3.119,3.119,0,0,1-.025-.315,13.87,13.87,0,0,1,.59-3.471s.367-4.19.367-4.374-.315-3.117-.315-3.117l.627-2.355,1.207-.845.548-.384a7.919,7.919,0,0,0,.6.791,1.577,1.577,0,0,0,.655.516,3.336,3.336,0,0,1,1.1.682s1.542.945,2.041.419a38.756,38.756,0,0,1,3.823-2.5l.55-.33.275.3,1.768,1.949Z" transform="translate(-154.615 -348.95)" fill="#fff"/>
  <path id="Path_1012" data-name="Path 1012" d="M131.855,386.112l-2.279,1.6s-.02-.322-.077-.759a4.611,4.611,0,0,0,2.008-1.862C131.709,385.66,131.855,386.112,131.855,386.112Z" transform="translate(-106.461 -322.636)" opacity="0.1"/>
  <path id="Path_1013" data-name="Path 1013" d="M133.587,392.171l-.5-.129a4.164,4.164,0,0,1-1.284.967,6.984,6.984,0,0,0-1.465.761l-1.153.915s-.865.131-.6-.471-.471-1.361-.471-1.361a21.68,21.68,0,0,1-1.465-3.64,18.45,18.45,0,0,0-1.2-3.273s-1.52,2.958-4.294,2.016c0,0,2.016,4.53,2.068,5.656a21.82,21.82,0,0,0,1.388,4.27,2.951,2.951,0,0,0,3.193,2.2s3.719.692,4.53,0a6.328,6.328,0,0,1,1.939-1.314,1.534,1.534,0,0,0,.731-.523v-3.114Z" transform="translate(-100.182 -323.275)" fill="#3f3d56"/>
  <path id="Path_1014" data-name="Path 1014" d="M152.51,423s.655,2.435.248,2.7Z" transform="translate(-123.766 -351.146)" opacity="0.1"/>
  <path id="Path_1015" data-name="Path 1015" d="M205.161,481.811c-3.471.112-11.157.248-11.5-.637a2.15,2.15,0,0,1-.119-.7l11.378.6Z" transform="translate(-154.623 -394.367)" opacity="0.1"/>
  <path id="Path_1016" data-name="Path 1016" d="M202.221,569.63s-.213.6-.508,1.379c-1.446-.089-3.36-.181-5.177-.193-.645,0-1.274,0-1.867.02a13.994,13.994,0,0,0-3.052.34,8.052,8.052,0,0,1-2.727.35c-.236-.905-.4-1.555-.4-1.555s3.967-.332,6.357-.449l.191-1.331Z" transform="translate(-150.825 -460.338)" opacity="0.1"/>
  <path id="Path_1017" data-name="Path 1017" d="M197.469,494.949l-.444.942s-.062.28-.141.726a19.012,19.012,0,0,0-.332,4.066,31.827,31.827,0,0,1-.288,5.078s-9.635-.811-12.462,0-4.215,0-4.215,0,.34-3.037-.5-4.607c-.575-1.076-.977-5.851-.992-8.988a8.147,8.147,0,0,1,.248-2.77c.575-.709,3.037-7.778,3.037-7.778l.56.03,1.488.079,8.527.449,1.336.069.141.434Z" transform="translate(-143.011 -395.232)" fill="#65617d"/>
  <path id="Path_1018" data-name="Path 1018" d="M261.395,511.419l.079.838s-4.215-1.374-4.007-3.062,0-1.488,0-1.488l3.392.288Z" transform="translate(-202.694 -414.846)" fill="#4c4981"/>
  <path id="Path_1019" data-name="Path 1019" d="M261.395,511.419l.079.838s-4.215-1.374-4.007-3.062,0-1.488,0-1.488l3.392.288Z" transform="translate(-202.694 -414.846)" opacity="0.1"/>
  <path id="Path_1020" data-name="Path 1020" d="M161.9,423.692a3.762,3.762,0,0,0,1.488.774.967.967,0,0,1-.439-.206c-.3-.216-.59-.449-.88-.677a2.585,2.585,0,0,0-.818-.563A4.513,4.513,0,0,0,161.9,423.692Z" transform="translate(-130.339 -351.161)" opacity="0.1"/>
  <path id="Path_1021" data-name="Path 1021" d="M160.577,427.01a1.823,1.823,0,0,1,.325.518,2.084,2.084,0,0,1,.094.669,2.112,2.112,0,0,1-.117.95l-.687-1.629c-.117-.278-.248-.555-.377-.823-.062-.114-.451-.585-.407-.684C159.538,425.725,160.451,426.854,160.577,427.01Z" transform="translate(-128.952 -353.376)" opacity="0.1"/>
  <path id="Path_1022" data-name="Path 1022" d="M232.073,464.883a2.192,2.192,0,0,0,1.24-.573c-.7.087-1.354.359-2.041.5a3.032,3.032,0,0,1-1.9-.174A4.573,4.573,0,0,0,232.073,464.883Z" transform="translate(-181.569 -382.214)" opacity="0.1"/>
  <path id="Path_1023" data-name="Path 1023" d="M221.984,441a.469.469,0,0,1-.355-.089q-.783-.446-1.547-.937a9.384,9.384,0,0,1-1.512-1.046A7.679,7.679,0,0,0,221.984,441Z" transform="translate(-173.447 -363.127)" opacity="0.1"/>
  <path id="Path_1024" data-name="Path 1024" d="M233.876,468.124a3.33,3.33,0,0,0,.816-.064,1.1,1.1,0,0,0,.672-.441.379.379,0,0,0-.285.045,4.815,4.815,0,0,1-2.628.315A3.825,3.825,0,0,0,233.876,468.124Z" transform="translate(-183.886 -384.694)" opacity="0.1"/>
  <path id="Path_1025" data-name="Path 1025" d="M197.943,518.058a8.408,8.408,0,0,1-1.674.33,10.284,10.284,0,0,1-1.324-.025l-2.145-.136-1.074-.069c-.126,0-.645,0-.389-.248.129-.121.845-.045,1.029-.05.357,0,.712-.017,1.066-.02.709,0,1.421,0,2.13.045Q196.758,517.932,197.943,518.058Z" transform="translate(-152.915 -422.472)" opacity="0.1"/>
  <path id="Path_1026" data-name="Path 1026" d="M193.3,522.406a9,9,0,0,0-1.207.248,7.942,7.942,0,0,1-1.262.052,7.1,7.1,0,0,1-2.437-.5C190.029,522.292,191.663,522.341,193.3,522.406Z" transform="translate(-150.75 -425.758)" opacity="0.1"/>
  <path id="Path_1027" data-name="Path 1027" d="M187.394,527.327a3.847,3.847,0,0,1,.469.126,5.415,5.415,0,0,0,2.775-.193,1.643,1.643,0,0,1-1.054.585,4.96,4.96,0,0,1-2.055.074c-.216-.042-.744-.119-.863-.342C186.5,527.248,187.193,527.295,187.394,527.327Z" transform="translate(-149.434 -429.556)" opacity="0.1"/>
  <path id="Path_1028" data-name="Path 1028" d="M206.046,532.892a7.624,7.624,0,0,1,.8.208,6.843,6.843,0,0,0,3.094-.327,14.315,14.315,0,0,1,3.746-.347,3.674,3.674,0,0,0-.8.265c-.29.087-.583.166-.875.248a17.588,17.588,0,0,1-1.75.342,17.924,17.924,0,0,1-3.59.156,5.256,5.256,0,0,1-1.969-.248A2.177,2.177,0,0,1,206.046,532.892Z" transform="translate(-163.016 -433.433)" opacity="0.1"/>
  <path id="Path_1029" data-name="Path 1029" d="M186.459,400.33a13.733,13.733,0,0,1-.342,3.511c-.121.342-.315.974-.523,1.684-.231.786-.481,1.666-.674,2.348s-.32,1.153-.32,1.153-.885,7.205-1.116,10.637v.179c-.012.193-.035.394-.064.6-.511,3.409-3.451,8.666-4.438,9.087a2.977,2.977,0,0,0-.831.57,8.146,8.146,0,0,1,.248-2.77c.575-.709,3.037-7.778,3.037-7.778l.56.03a3.122,3.122,0,0,1-.025-.315,13.871,13.871,0,0,1,.59-3.471s.367-4.19.367-4.374-.315-3.117-.315-3.117l.627-2.355,1.207-.845c.149-1.817.508-4.027,1.361-4.627a3.382,3.382,0,0,0,.992-1.262c.171.022-.139-.126-.139-.126Z" transform="translate(-143.049 -333.165)" opacity="0.1"/>
  <path id="Path_1030" data-name="Path 1030" d="M167.023,398.389a1.567,1.567,0,0,0-1.326.151,3.371,3.371,0,0,1-2.1.312,28.212,28.212,0,0,0-3.848-.392c-.26.1-.786-.367-1.126.26s-.5.969-.838,1.128-.945.655-.865.759-.863.744-.863.744l1.909,6.2s-1.24,7.855-1.832,8.534-5.951,9.506-4.032,11.078a38.662,38.662,0,0,0,4.79,3.223c.211.1.969-1.309,2.018-1.755s4.294-6.35,4.508-9.692,1.126-10.815,1.126-10.815,1.126-4.086,1.52-5.184a13.554,13.554,0,0,0,.33-3.513Z" transform="translate(-123.153 -332.575)" fill="#3f3d56"/>
  <path id="Path_1031" data-name="Path 1031" d="M239.3,438.568l-.444.942s-.062.28-.141.726a.411.411,0,0,1-.226-.1c-.655-.526-4.505-4.478-4.686-7.989-.136-2.588-.072-4.817-.03-5.812.015-.312.025-.5.027-.543,0,0,2.975-3.615,2.643-4.9s-1.126-8.145-1.126-8.145l-.117-.9-.2-1.52-.469-3.684.5.114a1.364,1.364,0,0,0,.3.3l.511,3.236,1.768,1.949.288,11.862-.811,2.122s-.664.03-1.7.06h-.1Z" transform="translate(-184.839 -338.85)" opacity="0.1"/>
  <path id="Path_1032" data-name="Path 1032" d="M241.9,418.491s-.744-.288-.786,0-.183.915-.183.915a3.578,3.578,0,0,1-.419,2.122c-.548.6-.637,3.141-.637,3.141s-.88,2.514-.464,3.3a21.376,21.376,0,0,1,.622,3.427c.149,1.069.3,2.246.431,3.32.248,1.956.414,3.57.414,3.57s-.471,1.736-1.126,1.2-4.505-4.483-4.689-7.986c-.129-2.467-.077-4.607-.035-5.663.02-.449.035-.7.035-.7s2.975-3.613,2.646-4.894-1.126-8.145-1.126-8.145l-.139-1.059L236.3,409.9l-.032-.248L235.791,406h0a16.174,16.174,0,0,1,3.409,1.069,11.692,11.692,0,0,0,2.774.942,2.1,2.1,0,0,1,1.488,1.527c.022.072.04.149.057.228.315,1.52.211,1.7.422,1.964S241.9,418.491,241.9,418.491Z" transform="translate(-185.789 -338.361)" fill="#3f3d56"/>
  <path id="Path_1033" data-name="Path 1033" d="M249.124,511.75c-1.076-.208-2.66-.707-2.626-1.8.035-1.024,1.265-1.391,2.194-1.522C248.854,509.5,248.99,510.676,249.124,511.75Z" transform="translate(-194.45 -415.395)" opacity="0.1"/>
  <path id="Path_1034" data-name="Path 1034" d="M252.948,510.532c-.042.092-.221.171-.456.248a11.965,11.965,0,0,1-1.736.283s-3.64-.288-3.588-1.936c.037-1.185,1.681-1.488,2.606-1.569.362-.032.615-.027.615-.027S253.107,510.192,252.948,510.532Z" transform="translate(-194.954 -414.717)" fill="#ae6e79"/>
  <path id="Path_1035" data-name="Path 1035" d="M260.237,510.532c-.042.092-.221.171-.456.248-.95-1.269-2.274-2.9-2.921-3.042,0,0,.074-.072.2-.181.362-.032.615-.027.615-.027S260.4,510.192,260.237,510.532Z" transform="translate(-202.243 -414.717)" opacity="0.1"/>
  <path id="Path_1036" data-name="Path 1036" d="M259.816,428.5l1.074.156a18.459,18.459,0,0,0,1.284,1.964,2.135,2.135,0,0,1,.471,1.257,16.2,16.2,0,0,0,2.068,2.593c.5.263,1.257,2.043,1.257,2.043s1.24.811,1.24,1.736a15.115,15.115,0,0,0,.236,2.276,6.486,6.486,0,0,1-.709,2.566,8.789,8.789,0,0,0-1.019,2.933,14.364,14.364,0,0,1-1.887,2.514,10.58,10.58,0,0,0-.915,1.545l-1.388,2.618s-2.933-4.319-4.007-4.555a8.391,8.391,0,0,1,1.807-1.361c.6-.208,1.178-1.939,1.205-2.331s.548-1.7,1.1-1.939.838-.471.6-.838,0-1.074,0-1.074a11.275,11.275,0,0,1-1.755-3.223,3.456,3.456,0,0,0-1.622-1.964l-.813-1.984Z" transform="translate(-202.74 -355.283)" fill="#3f3d56"/>
  <path id="Path_1037" data-name="Path 1037" d="M279.5,465.491a3.394,3.394,0,0,1,2.115-.8,2.58,2.58,0,0,0-1.384.54,3.161,3.161,0,0,0-.382.5c-.126.178-1.136,1.463-1.3,1.262C278.315,466.681,279.3,465.664,279.5,465.491Z" transform="translate(-218.532 -382.5)" opacity="0.1"/>
  <path id="Path_1038" data-name="Path 1038" d="M272.93,450.255a.9.9,0,0,0,.744-.528,2.974,2.974,0,0,0,.233-.93,13.792,13.792,0,0,1,.325-1.589,1.011,1.011,0,0,0,.052-.332.94.94,0,0,0-.1-.32,2.282,2.282,0,0,0-.228-.476,2.909,2.909,0,0,0-.33.992q-.144.536-.275,1.071C273.312,448.331,272.947,450.255,272.93,450.255Z" transform="translate(-214.329 -368.504)" opacity="0.1"/>
  <path id="Path_1039" data-name="Path 1039" d="M222.284,368.158a2.336,2.336,0,0,1-.362.372c-.419.34-.992.627-1.051,1.163a1.281,1.281,0,0,1-.062.518c-.136.233-.474.216-.744.169a1.309,1.309,0,0,1-.627-.231c-.28-.248-.307-.669-.521-.97a1.324,1.324,0,0,0-1.061-.476c-.4-.012-.8.077-1.2.1a3.323,3.323,0,0,1-.769-.052c-.084-.015-.166-.032-.248-.052a3.255,3.255,0,0,1-.523-.178,2.642,2.642,0,0,1-.248-.119,3.368,3.368,0,0,1-.744-.513,1.838,1.838,0,0,1-.684-1.391,8.547,8.547,0,0,1,.223-.952,2.988,2.988,0,0,0-1.121-2.462c-.265-.26-.548-.518-.813-.786a3.923,3.923,0,0,1-.96-1.364,4.155,4.155,0,0,1-.171-1.706,11.6,11.6,0,0,0,.052-1.758c-.2-2.083-1.984-3.677-3.754-4.547l-.077-.04a5.7,5.7,0,1,1,7.686,8.351c-.02.064-.037.131-.052.2a4.288,4.288,0,0,0,.169,3.193h0a16.172,16.172,0,0,1,3.409,1.069,11.691,11.691,0,0,0,2.774.942A2.1,2.1,0,0,1,222.284,368.158Z" transform="translate(-164.61 -296.976)" opacity="0.1"/>
  <path id="Path_1040" data-name="Path 1040" d="M204.759,343.5c.117-.134.3-.2.414-.335.369-.4,0-1.059.136-1.589a1.316,1.316,0,0,1,1.473-.783c.605.064,1.17.34,1.773.407a7.754,7.754,0,0,0,2.76-.538,2.666,2.666,0,0,1,2.651.449c.632.7.585,1.894,1.369,2.4a10.142,10.142,0,0,0,1.21.434,2.509,2.509,0,0,1,1.024.979,5.13,5.13,0,0,1,.771,3.28c-.064.62-.248,1.225-.317,1.845a5.38,5.38,0,0,0,.126,1.929,2.04,2.04,0,0,0,1.165,1.542,1.829,1.829,0,0,1,.434.149c.369.228.322.774.228,1.2l-.4,1.748c.367.28.935.159,1.292.454a1.049,1.049,0,0,1,.3.471,2.576,2.576,0,0,1-.769,2.812c-.419.342-.992.627-1.051,1.165a1.239,1.239,0,0,1-.062.516c-.136.233-.474.216-.744.169a1.284,1.284,0,0,1-.625-.231c-.283-.248-.307-.669-.521-.969a1.324,1.324,0,0,0-1.061-.476c-.4-.012-.8.077-1.2.1a3.538,3.538,0,0,1-2.531-.915,1.835,1.835,0,0,1-.687-1.388,9.179,9.179,0,0,1,.223-.955,2.988,2.988,0,0,0-1.118-2.46,6.513,6.513,0,0,1-1.773-2.152c-.407-1.091,0-2.306-.122-3.471-.2-2.083-1.984-3.677-3.751-4.545C204.972,344.536,204.3,344.018,204.759,343.5Z" transform="translate(-162.944 -289.109)" fill="#444053"/>
  <path id="Path_1041" data-name="Path 1041" d="M218.761,362.348c-.28-.248-.3-.667-.518-.97a1.334,1.334,0,0,0-1.064-.474c-.4-.012-.8.077-1.2.1a3.551,3.551,0,0,1-2.531-.9,1.844,1.844,0,0,1-.687-1.391,9.126,9.126,0,0,1,.223-.952,2.987,2.987,0,0,0-1.121-2.462,6.539,6.539,0,0,1-1.773-2.152c-.4-1.089,0-2.306-.119-3.471-.2-2.083-1.984-3.68-3.754-4.547-.414-.2-1.088-.719-.627-1.24.117-.134.293-.2.414-.332.369-.4,0-1.061.136-1.592a.84.84,0,0,1,.134-.29,1.133,1.133,0,0,0-.964.761c-.131.531.233,1.19-.136,1.592-.119.131-.3.2-.414.332-.461.526.213,1.041.63,1.24,1.778.87,3.553,2.465,3.751,4.547.109,1.155-.285,2.373.121,3.471a6.533,6.533,0,0,0,1.773,2.152,2.988,2.988,0,0,1,1.118,2.462,9.285,9.285,0,0,0-.223.952,1.845,1.845,0,0,0,.687,1.391,3.539,3.539,0,0,0,2.531.915c.4-.02.8-.109,1.2-.1a1.329,1.329,0,0,1,1.061.474c.213.3.248.731.521.969a1.285,1.285,0,0,0,.625.231c.268.05.6.067.744-.169a.585.585,0,0,0,.06-.307A1.205,1.205,0,0,1,218.761,362.348Z" transform="translate(-162.944 -289.982)" opacity="0.1"/>
</svg>
