<svg xmlns="http://www.w3.org/2000/svg" xmlns:xlink="http://www.w3.org/1999/xlink" width="255.322" height="188.481" viewBox="0 0 255.322 188.481">
  <defs>
    <linearGradient id="linear-gradient" x1="0.5" y1="1" x2="0.5" gradientUnits="objectBoundingBox">
      <stop offset="0" stop-color="gray" stop-opacity="0.251"/>
      <stop offset="0.54" stop-color="gray" stop-opacity="0.122"/>
      <stop offset="1" stop-color="gray" stop-opacity="0.102"/>
    </linearGradient>
    <linearGradient id="linear-gradient-2" y2="0" xlink:href="#linear-gradient"/>
    <linearGradient id="linear-gradient-4" x1="16.117" x2="16.117" y2="0" xlink:href="#linear-gradient"/>
  </defs>
  <g id="Group_1388" data-name="Group 1388" transform="translate(0 0)">
    <path id="Path_701" data-name="Path 701" d="M107.214,198.942c-3.061.5-6.9,1.921-6.865,5.23.018,1.679,1.133,3.11,2.217,4.337a82.4,82.4,0,0,0,15.646,13.819c2.76,1.87,5.727,3.658,7.561,6.549s2.3,6.569,2.441,10.069a77.4,77.4,0,0,1-2.893,24.555c8.988,1.712,19.011,3.212,26.5-2.194,4.485-3.237,7.518-8.661,12.516-10.906,3.337-1.5,7.115-1.367,10.753-1.176q25.83,1.36,51.532,5.1c7.176,1.046,14.49,2.23,21.59.878s14.085-5.763,16.7-12.914a6.141,6.141,0,0,1,1.668-3,4.523,4.523,0,0,1,2.878-.543l59.972,2.061c3.286.112,6.686.2,9.694-1.148,2.916-1.309,5.158-3.827,7.317-6.294,4.936-5.628,10.245-12.551,8.794-20.19-1.161-6.123-6.35-10.4-11.5-13.4s-10.822-5.447-14.6-10.235c-5.753-7.289-5.526-17.72-5.883-27.177a150.967,150.967,0,0,0-3.151-25.468c-1.559-7.37-3.73-14.751-7.789-20.975s-10.266-11.21-17.286-12.123c-9.169-1.194-18.386,4.526-27.356,2.1-7.577-2.041-12.791-9.294-19.07-14.319-11.151-8.929-25.784-10.8-39.619-10.97-14.669-.186-29.726,1.3-42.8,8.187a22.937,22.937,0,0,0-8,6.271c-3.179,4.273-3.949,10.013-6.028,15.008-8.38,20.113-35.636,24.45-44.484,44.349-3.14,7.059-3.11,15.291-.821,22.7,2.462,7.977,9.391,12.383,12.138,19.337C116.039,198.376,110.8,198.358,107.214,198.942Z" transform="translate(-100.16 -80.601)" fill="#3598db" opacity="0.1"/>
    <g id="Group_1382" data-name="Group 1382" transform="translate(219.911 37.824)" opacity="0.2">
      <path id="Path_702" data-name="Path 702" d="M985.15,315.761s1.225-16.268,10.419-25.108a24.721,24.721,0,0,0,7.355-13.8,41.594,41.594,0,0,0,.51-7.584" transform="translate(-979.149 -258.963)" fill="none" stroke="#535461" stroke-miterlimit="10" stroke-width="2"/>
      <path id="Path_703" data-name="Path 703" d="M1059.9,233.569c-.679,1.786-5.893,5.768-5.893,5.768s-1.276-6.431-.6-8.225a3.473,3.473,0,0,1,6.5,2.457Z" transform="translate(-1029.847 -228.866)" fill="#3598db"/>
      <path id="Path_704" data-name="Path 704" d="M1062.162,275.9c-1.543,1.138-8.082,1.638-8.082,1.638s2.421-6.095,3.964-7.232a3.472,3.472,0,1,1,4.118,5.592Z" transform="translate(-1030.494 -259.23)" fill="#3598db"/>
      <path id="Path_705" data-name="Path 705" d="M1036.884,340.2c-1.908.2-7.8-2.666-7.8-2.666s5.166-4.038,7.072-4.242a3.474,3.474,0,1,1,.732,6.908Z" transform="translate(-1011.872 -306.638)" fill="#3598db"/>
      <path id="Path_706" data-name="Path 706" d="M1004.873,386.19c-1.847.51-8.143-1.309-8.143-1.309s4.408-4.847,6.255-5.375a3.473,3.473,0,0,1,1.888,6.684Z" transform="translate(-987.775 -340.978)" fill="#3598db"/>
      <path id="Path_707" data-name="Path 707" d="M1025.868,277.442c.814,1.737,6.319,5.3,6.319,5.3s.783-6.51-.031-8.248a3.473,3.473,0,0,0-6.289,2.949Z" transform="translate(-1009.234 -261.364)" fill="#3598db"/>
      <path id="Path_708" data-name="Path 708" d="M988.547,328.756c1.3,1.413,7.615,3.166,7.615,3.166s-1.2-6.447-2.5-7.86a3.473,3.473,0,0,0-5.12,4.694Z" transform="translate(-980.997 -298.938)" fill="#3598db"/>
      <path id="Path_709" data-name="Path 709" d="M962.182,387.218c1.038,1.612,6.972,4.406,6.972,4.406s-.094-6.556-1.133-8.164a3.473,3.473,0,1,0-5.839,3.763Z" transform="translate(-961.628 -342.836)" fill="#3598db"/>
    </g>
    <path id="Path_710" data-name="Path 710" d="M164.14,87.83V205.436H353.126V87.83Z" transform="translate(-122.268 -65.426)" fill="url(#linear-gradient)"/>
    <rect id="Rectangle_1731" data-name="Rectangle 1731" width="184.994" height="8.982" transform="translate(43.87 23.646)" fill="#f6f7f9"/>
    <g id="Group_1383" data-name="Group 1383" transform="translate(43.87 23.646)" opacity="0.2">
      <rect id="Rectangle_1732" data-name="Rectangle 1732" width="184.994" height="8.982" fill="#3598db"/>
    </g>
    <rect id="Rectangle_1733" data-name="Rectangle 1733" width="184.994" height="106.139" transform="translate(43.87 32.628)" fill="#f6f7f9"/>
    <ellipse id="Ellipse_371" data-name="Ellipse 371" cx="1.998" cy="1.998" rx="1.998" ry="1.998" transform="translate(46.309 26.085)" fill="#f6f7f9"/>
    <ellipse id="Ellipse_372" data-name="Ellipse 372" cx="1.998" cy="1.998" rx="1.998" ry="1.998" transform="translate(51.63 26.085)" fill="#f6f7f9"/>
    <ellipse id="Ellipse_373" data-name="Ellipse 373" cx="1.998" cy="1.998" rx="1.998" ry="1.998" transform="translate(56.954 26.085)" fill="#f6f7f9"/>
    <g id="Group_1384" data-name="Group 1384" transform="translate(50.301 45.828)" opacity="0.2">
      <rect id="Rectangle_1734" data-name="Rectangle 1734" width="95.159" height="6.875" fill="#3598db"/>
    </g>
    <g id="Group_1385" data-name="Group 1385" transform="translate(169.859 45.828)" opacity="0.2">
      <rect id="Rectangle_1735" data-name="Rectangle 1735" width="49.907" height="6.875" fill="#3598db"/>
    </g>
    <g id="Group_1386" data-name="Group 1386" transform="translate(68.822 79.321)" opacity="0.2">
      <rect id="Rectangle_1736" data-name="Rectangle 1736" width="6.653" height="21.96" transform="translate(0 31.499)" fill="#3598db"/>
      <rect id="Rectangle_1737" data-name="Rectangle 1737" width="6.653" height="37.708" transform="translate(12.865 15.748)" fill="#3598db"/>
      <rect id="Rectangle_1738" data-name="Rectangle 1738" width="6.653" height="53.456" transform="translate(25.731)" fill="#3598db"/>
      <rect id="Rectangle_1739" data-name="Rectangle 1739" width="6.653" height="48.356" transform="translate(38.596 5.102)" fill="#3598db"/>
      <rect id="Rectangle_1740" data-name="Rectangle 1740" width="6.653" height="33.272" transform="translate(51.461 20.184)" fill="#3598db"/>
    </g>
    <g id="Group_1387" data-name="Group 1387" transform="translate(169.749 67.788)" opacity="0.2">
      <rect id="Rectangle_1741" data-name="Rectangle 1741" width="49.907" height="61.331" fill="#3598db"/>
    </g>
    <path id="Path_711" data-name="Path 711" d="M994.692,435.451a26.992,26.992,0,0,1-.946-4.862c-.023-2.684,1.406-5.8-.472-7.783a8.832,8.832,0,0,1-1.321-1.316,2.9,2.9,0,0,1-.332-1.485c-.031-3.13,1.694-6.309.661-9.276a3.153,3.153,0,0,0-1.184-1.651,3.434,3.434,0,0,0-2.008-.449c-.661,0-1.357.074-2.041.087a4.41,4.41,0,0,1-1.145-.15c-.791-.224-1.462-.742-2.245-1a3.669,3.669,0,0,0-1.276-.176c-1.714-.056-3.281,1.084-4.5,2.189a16.807,16.807,0,0,1-1.926,1.4c.1-.071-2.38,1.633-1.446,1.651a3.251,3.251,0,0,1,1.847.643,4.99,4.99,0,0,0,.255,5.786c-.406-.4-.855-.834-1.314-1.276a30.234,30.234,0,0,0-4.176-3.64,29.561,29.561,0,0,1-3.587-2.518s-2.742,1.531-1.9,3.656a8.538,8.538,0,0,1,1.176.462,2.2,2.2,0,0,0,.161.824,9.08,9.08,0,0,1,2.436,1.194,4.162,4.162,0,0,1,.235.365,18.981,18.981,0,0,0,2.888,3.089c.975.977,2.258,2.145,3.536,3.271a6.875,6.875,0,0,0-.862,2.3,2.834,2.834,0,0,1-.288-.133c-1.9-1.02-6.327-.913-6.327-.913a9.254,9.254,0,0,1-4.429-6.294,11.887,11.887,0,0,1-.528-3.35h-.013l.094-.02.885-1.6a.709.709,0,0,0-.582-1.041A3.834,3.834,0,0,0,959.5,417h.038l-.013.033c.528,2.538.949,2.334.844,4.365l1.686,4.467s.1,1.531,3.163,3.554a66.092,66.092,0,0,1,6.539,5.179s-1.844.964-1.161,5.38c.837,5.4-.421,13.1-.421,13.1v4.975l.235-.064c-.031.166-.059.342-.089.533a28.014,28.014,0,0,0-.145,7.554,73.75,73.75,0,0,0,3.163,12.5,22.6,22.6,0,0,1,1.161,4.569,4.212,4.212,0,0,0,.27,1.174,9.229,9.229,0,0,1,.74,3.523,24.8,24.8,0,0,0,1.625,8.906,23.552,23.552,0,0,1,1.584,5.235c-.765.99-1.75,2.069-2.533,2.176-1.477.2-4.324.406-2.426,2.842a1.737,1.737,0,0,0,.219.232c-1.441.23-3.026.735-1.485,2.712,1.9,2.436,13.075,1.319,13.075,1.319s.071-1.355,0-2.842c.783-.054,1.276-.1,1.276-.1s.316-5.888-1.054-6.6a2.959,2.959,0,0,0-.74.179c-.148-.814-.255-1.827-.332-2.574l.543-.041v-.041h.033v-8.873s-.633-5.482-2.952-7.908a4.926,4.926,0,0,1-.765-1.02l-.031-.064c.015-.694.015-1.63,0-2.7l.033-.059c.041-.066.082-.125.12-.179a2.229,2.229,0,0,1,.173-.2l.033-.043h0s1.276-1.531,5.59-11.169c2.635-5.883,1.939-9.184.995-10.886-.2-.765-.615-2.48-1.135-5.416a21.226,21.226,0,0,1-.3-3.773,7.585,7.585,0,0,0,2,.225,6.791,6.791,0,0,0,3.061-.653c-.689-1.005-1.408-2.184-1.061-3.339.393-1.316,1.949-1.921,2.847-2.982A5.622,5.622,0,0,0,994.692,435.451Z" transform="translate(-740.132 -324.022)" fill="url(#linear-gradient-2)"/>
    <path id="Path_712" data-name="Path 712" d="M986.971,428.25s-2.617,1.51-1.811,3.625a7.189,7.189,0,0,1,3.827,2.819c1.107,2.013,9.666,9.263,9.666,9.263l6.25-3.12s-2.171-2.9-9.039-4.924c0,0-4.049-4.337-5.459-5.146A30.534,30.534,0,0,1,986.971,428.25Z" transform="translate(-759.13 -339.561)" fill="#797c9c"/>
    <path id="Path_713" data-name="Path 713" d="M991.971,433.25s-2.617,1.51-1.811,3.625a7.19,7.19,0,0,1,3.827,2.819c1.107,2.013,9.666,9.263,9.666,9.263l6.25-3.12s-2.171-2.9-9.039-4.924c0,0-4.049-4.337-5.459-5.146A30.537,30.537,0,0,1,991.971,433.25Z" transform="translate(-762.855 -343.285)" opacity="0.05"/>
    <path id="Path_714" data-name="Path 714" d="M103.59,720.719S88.88,729.594,116,743.258c0,0,5.975-11.092-.63-20.136a8.906,8.906,0,0,0-11.554-2.531Z" transform="translate(-99.606 -556.476)" fill="#3598db"/>
    <path id="Path_715" data-name="Path 715" d="M115.88,723.67s12.59,9.63,12.245,22.725" transform="translate(-111.728 -559.616)" fill="none" stroke="#535461" stroke-miterlimit="10" stroke-width="1"/>
    <path id="Path_716" data-name="Path 716" d="M161.336,667.526s-4.61-15.661.857-27.169a24.72,24.72,0,0,0,2-15.508,41.583,41.583,0,0,0-2.2-7.278" transform="translate(-144.235 -480.583)" fill="none" stroke="#535461" stroke-miterlimit="10" stroke-width="2"/>
    <path id="Path_717" data-name="Path 717" d="M162.334,578.858c0,1.918-3.472,7.48-3.472,7.48s-3.472-5.561-3.472-7.48a3.473,3.473,0,1,1,6.947,0Z" transform="translate(-141.159 -449.16)" fill="#3598db"/>
    <path id="Path_718" data-name="Path 718" d="M184.73,615.034c-1.043,1.61-6.98,4.391-6.98,4.391s.107-6.556,1.151-8.164a3.473,3.473,0,0,1,5.829,3.776Z" transform="translate(-157.815 -474.703)" fill="#3598db"/>
    <path id="Path_719" data-name="Path 719" d="M180.063,682.606c-1.712.865-8.243.255-8.243.255s3.4-5.612,5.115-6.47a3.473,3.473,0,0,1,3.128,6.2Z" transform="translate(-153.398 -524.121)" fill="#3598db"/>
    <path id="Path_720" data-name="Path 720" d="M167.669,737.226c-1.531,1.14-8.079,1.656-8.079,1.656s2.406-6.1,3.949-7.24a3.473,3.473,0,1,1,4.13,5.584Z" transform="translate(-144.288 -565.047)" fill="#3598db"/>
    <path id="Path_721" data-name="Path 721" d="M146.076,631.928c1.375,1.337,7.786,2.722,7.786,2.722s-1.569-6.378-2.947-7.7a3.476,3.476,0,0,0-4.847,4.982Z" transform="translate(-133.432 -486.834)" fill="#3598db"/>
    <path id="Path_722" data-name="Path 722" d="M129.334,693.086c1.712.865,8.243.255,8.243.255s-3.4-5.612-5.115-6.47a3.473,3.473,0,0,0-3.128,6.2Z" transform="translate(-120.327 -531.928)" fill="#3598db"/>
    <path id="Path_723" data-name="Path 723" d="M125.349,757.126c1.531,1.14,8.079,1.656,8.079,1.656s-2.406-6.1-3.949-7.24a3.473,3.473,0,0,0-4.13,5.584Z" transform="translate(-117.733 -579.87)" fill="#3598db"/>
    <path id="Path_724" data-name="Path 724" d="M162.334,578.858c0,1.918-3.472,7.48-3.472,7.48s-3.472-5.561-3.472-7.48a3.473,3.473,0,1,1,6.947,0Z" transform="translate(-141.159 -449.16)" opacity="0.25"/>
    <path id="Path_725" data-name="Path 725" d="M184.73,615.034c-1.043,1.61-6.98,4.391-6.98,4.391s.107-6.556,1.151-8.164a3.473,3.473,0,0,1,5.829,3.776Z" transform="translate(-157.815 -474.703)" opacity="0.25"/>
    <path id="Path_726" data-name="Path 726" d="M180.063,682.606c-1.712.865-8.243.255-8.243.255s3.4-5.612,5.115-6.47a3.473,3.473,0,0,1,3.128,6.2Z" transform="translate(-153.398 -524.121)" opacity="0.25"/>
    <path id="Path_727" data-name="Path 727" d="M167.669,737.226c-1.531,1.14-8.079,1.656-8.079,1.656s2.406-6.1,3.949-7.24a3.473,3.473,0,1,1,4.13,5.584Z" transform="translate(-144.288 -565.047)" opacity="0.25"/>
    <path id="Path_728" data-name="Path 728" d="M146.076,631.928c1.375,1.337,7.786,2.722,7.786,2.722s-1.569-6.378-2.947-7.7a3.476,3.476,0,0,0-4.847,4.982Z" transform="translate(-133.432 -486.834)" opacity="0.25"/>
    <path id="Path_729" data-name="Path 729" d="M129.334,693.086c1.712.865,8.243.255,8.243.255s-3.4-5.612-5.115-6.47a3.473,3.473,0,0,0-3.128,6.2Z" transform="translate(-120.327 -531.928)" opacity="0.25"/>
    <path id="Path_730" data-name="Path 730" d="M125.349,757.126c1.531,1.14,8.079,1.656,8.079,1.656s-2.406-6.1-3.949-7.24a3.473,3.473,0,0,0-4.13,5.584Z" transform="translate(-117.733 -579.87)" opacity="0.25"/>
    <path id="Path_731" data-name="Path 731" d="M203.151,668.7s-4.61-15.651.865-27.169a24.72,24.72,0,0,0,2-15.508,41.58,41.58,0,0,0-2.2-7.278" transform="translate(-175.384 -481.455)" fill="none" stroke="#535461" stroke-miterlimit="10" stroke-width="2"/>
    <path id="Path_732" data-name="Path 732" d="M204.144,580.058c0,1.918-3.472,7.48-3.472,7.48s-3.472-5.561-3.472-7.48a3.473,3.473,0,1,1,6.947,0Z" transform="translate(-172.303 -450.054)" fill="#3598db"/>
    <path id="Path_733" data-name="Path 733" d="M226.55,616.195c-1.043,1.61-6.98,4.39-6.98,4.39s.107-6.556,1.151-8.164a3.473,3.473,0,0,1,5.829,3.776Z" transform="translate(-188.966 -475.567)" fill="#3598db"/>
    <path id="Path_734" data-name="Path 734" d="M221.873,683.768c-1.712.865-8.243.255-8.243.255s3.4-5.612,5.115-6.47a3.479,3.479,0,0,1,3.128,6.215Z" transform="translate(-184.541 -524.987)" fill="#3598db"/>
    <path id="Path_735" data-name="Path 735" d="M209.479,738.4c-1.531,1.14-8.079,1.656-8.079,1.656s2.406-6.1,3.949-7.24a3.473,3.473,0,0,1,4.13,5.584Z" transform="translate(-175.431 -565.918)" fill="#3598db"/>
    <path id="Path_736" data-name="Path 736" d="M187.906,633.088c1.375,1.337,7.786,2.722,7.786,2.722s-1.569-6.378-2.947-7.7a3.476,3.476,0,0,0-4.847,4.982Z" transform="translate(-164.59 -487.698)" fill="#3598db"/>
    <path id="Path_737" data-name="Path 737" d="M171.144,694.246c1.712.865,8.243.255,8.243.255s-3.4-5.612-5.115-6.47a3.473,3.473,0,0,0-3.128,6.2Z" transform="translate(-151.471 -532.792)" fill="#3598db"/>
    <path id="Path_738" data-name="Path 738" d="M167.159,758.3c1.531,1.14,8.079,1.656,8.079,1.656s-2.406-6.1-3.949-7.24a3.473,3.473,0,1,0-4.13,5.584Z" transform="translate(-148.877 -580.742)" fill="#3598db"/>
    <rect id="Rectangle_1742" data-name="Rectangle 1742" width="243.121" height="1.786" transform="translate(6.259 186.695)" fill="#3598db"/>
    <rect id="Rectangle_1743" data-name="Rectangle 1743" width="51.525" height="63.319" transform="translate(178.125 86.947)" fill="url(#linear-gradient)"/>
    <rect id="Rectangle_1744" data-name="Rectangle 1744" width="49.907" height="61.331" transform="translate(178.933 87.942)" fill="#3598db"/>
    <rect id="Rectangle_1745" data-name="Rectangle 1745" width="10.204" height="10.204" transform="translate(182.285 93.324)" fill="#e8eaf1"/>
    <rect id="Rectangle_1746" data-name="Rectangle 1746" width="36.226" height="2.041" transform="translate(187.388 109.652)" fill="#e8eaf1"/>
    <rect id="Rectangle_1747" data-name="Rectangle 1747" width="36.226" height="2.041" transform="translate(187.388 113.988)" fill="#e8eaf1"/>
    <rect id="Rectangle_1748" data-name="Rectangle 1748" width="36.226" height="2.041" transform="translate(187.388 118.325)" fill="#e8eaf1"/>
    <rect id="Rectangle_1749" data-name="Rectangle 1749" width="36.226" height="2.041" transform="translate(187.388 122.662)" fill="#e8eaf1"/>
    <rect id="Rectangle_1750" data-name="Rectangle 1750" width="36.226" height="2.041" transform="translate(187.388 126.999)" fill="#e8eaf1"/>
    <rect id="Rectangle_1751" data-name="Rectangle 1751" width="36.226" height="2.041" transform="translate(187.388 131.336)" fill="#e8eaf1"/>
    <rect id="Rectangle_1752" data-name="Rectangle 1752" width="36.226" height="2.041" transform="translate(187.388 135.673)" fill="#e8eaf1"/>
    <path id="Path_739" data-name="Path 739" d="M1045.775,764.89s.3,4.429.806,4.934-4.531.806-4.531.806l.7-5.74Z" transform="translate(-801.622 -590.32)" fill="#ffb9b9"/>
    <path id="Path_740" data-name="Path 740" d="M1045.775,764.89s.3,4.429.806,4.934-4.531.806-4.531.806l.7-5.74Z" transform="translate(-801.622 -590.32)" opacity="0.05"/>
    <path id="Path_741" data-name="Path 741" d="M1025.729,774.191s-.7,0-3.222,1.309a3.494,3.494,0,0,1-2.416-2.72s-2.115,3.625-3.523,3.827-4.128.4-2.316,2.819,12.485,1.309,12.485,1.309S1027.035,774.895,1025.729,774.191Z" transform="translate(-780.467 -596.197)" fill="#e4e2f3"/>
    <path id="Path_742" data-name="Path 742" d="M1025.729,774.191s-.7,0-3.222,1.309a3.494,3.494,0,0,1-2.416-2.72s-2.115,3.625-3.523,3.827-4.128.4-2.316,2.819,12.485,1.309,12.485,1.309S1027.035,774.895,1025.729,774.191Z" transform="translate(-780.467 -596.197)" opacity="0.05"/>
    <path id="Path_743" data-name="Path 743" d="M1039.494,781l-.7,1.913-4.63-1.309.255-1.9.064-.459.176-1.276s3.926-1.008,3.926-.51a7.816,7.816,0,0,0,.255,1.227c.161.62.362,1.324.51,1.786C1039.433,780.794,1039.494,781,1039.494,781Z" transform="translate(-795.745 -599.579)" fill="#ffb9b9"/>
    <path id="Path_744" data-name="Path 744" d="M1029.43,619.369a2.752,2.752,0,0,0,0,2.806,4.877,4.877,0,0,0,.724,1c2.214,2.416,2.819,7.852,2.819,7.852v8.758l-1.51.115-2.416.186-3.625-14.9s-2.115-10.873-1.107-12.786,1.913-13.893,1.913-13.893l.837-.865,1.982-2.054h5.74a3.863,3.863,0,0,1,1.117,1.247c.964,1.594,1.829,4.911-.814,11.034-4.128,9.564-5.337,11.074-5.337,11.074a2.318,2.318,0,0,0-.324.424Z" transform="translate(-788.209 -464.211)" fill="#4c4c78"/>
    <path id="Path_745" data-name="Path 745" d="M1029.56,619.2a2.752,2.752,0,0,0,0,2.806,4.873,4.873,0,0,0,.724,1c2.214,2.416,2.819,7.852,2.819,7.852v8.758l-1.51.115-2.416.186-3.625-14.9s-2.115-10.873-1.107-12.786,1.913-13.893,1.913-13.893l.837-.865,1.982-2.054h5.74a3.86,3.86,0,0,1,1.117,1.248c.964,1.594,1.829,4.911-.814,11.034-4.128,9.564-5.337,11.074-5.337,11.074A2.313,2.313,0,0,0,1029.56,619.2Z" transform="translate(-788.306 -464.084)" opacity="0.05"/>
    <path id="Path_746" data-name="Path 746" d="M1039.8,778.7l-4.36.546.176-1.276s3.926-1.008,3.926-.51A7.793,7.793,0,0,0,1039.8,778.7Z" transform="translate(-796.699 -599.579)" opacity="0.1"/>
    <path id="Path_747" data-name="Path 747" d="M1012.631,602.068s.255,7.926.291,12.906v2.806a6.211,6.211,0,0,1-.082,1.1,7.032,7.032,0,0,0,.3,2.918,29.059,29.059,0,0,1,1.811,12.485v4.429l-4.832.6s.806-.6-1.411-6.444a25.449,25.449,0,0,1-1.554-8.832,9.452,9.452,0,0,0-.707-3.5,4.315,4.315,0,0,1-.255-1.163,23.108,23.108,0,0,0-1.107-4.531,75.063,75.063,0,0,1-3.021-12.383,28.828,28.828,0,0,1,.14-7.49,18.728,18.728,0,0,1,.362-1.872s9.842-6.194,13.559-1.913a4.85,4.85,0,0,1,.839,1.411,9.306,9.306,0,0,1,.475,1.569C1018.6,599.853,1012.631,602.068,1012.631,602.068Z" transform="translate(-771.706 -459.815)" fill="#4c4c78"/>
    <ellipse id="Ellipse_374" data-name="Ellipse 374" cx="5.135" cy="5.135" rx="5.135" ry="5.135" transform="translate(235.491 87.886)" fill="#ffb9b9"/>
    <path id="Path_748" data-name="Path 748" d="M1030.828,448.7s2.115,5.939,0,9.062,6.745,2.115,6.745,2.115l3.424-4.128s-4.028,0-4.23-7.049S1030.828,448.7,1030.828,448.7Z" transform="translate(-793.02 -352.462)" fill="#ffb9b9"/>
    <path id="Path_749" data-name="Path 749" d="M1020.6,593.6a13.217,13.217,0,0,1-2.242.561c-1.253.194-2.732.2-3.6-.561-.51-.452-1.786-.51-3.293-.362a56.445,56.445,0,0,0-8.347,1.732,18.693,18.693,0,0,1,.362-1.873s9.842-6.194,13.559-1.913h2.148a3.859,3.859,0,0,1,1.117,1.247C1020.493,593.236,1020.6,593.6,1020.6,593.6Z" transform="translate(-772.624 -459.808)" opacity="0.1"/>
    <path id="Path_750" data-name="Path 750" d="M1039.494,787.953l-.7,1.913-4.63-1.309.255-1.9a3.263,3.263,0,0,0,2.153,2,16.422,16.422,0,0,1,2.771-1.214C1039.433,787.752,1039.494,787.953,1039.494,787.953Z" transform="translate(-795.745 -606.536)" opacity="0.1"/>
    <path id="Path_751" data-name="Path 751" d="M1020.979,785.641s-.7,0-3.222,1.309a3.494,3.494,0,0,1-2.416-2.719s-2.115,3.625-3.523,3.827-4.128.4-2.316,2.819,12.485,1.309,12.485,1.309S1022.288,786.345,1020.979,785.641Z" transform="translate(-776.929 -604.726)" fill="#e4e2f3"/>
    <path id="Path_752" data-name="Path 752" d="M962.62,438.672a3.725,3.725,0,0,1,4.317-3.538.7.7,0,0,1,.556,1.02l-.844,1.589Z" transform="translate(-742.456 -344.668)" fill="#ffb9b9"/>
    <path id="Path_753" data-name="Path 753" d="M986.459,454.151s-4.934-.806-6.243-1.811a2.037,2.037,0,0,1-2.819.906c-1.811-1.008-6.041-.906-6.041-.906a9.13,9.13,0,0,1-4.23-6.243,12.383,12.383,0,0,1-.51-3.316s-2.617-2.719-3.926.906c.51,2.518.906,2.316.806,4.337l1.61,4.429s.1,1.51,3.021,3.523a64.59,64.59,0,0,1,6.243,5.135s-1.763.957-1.107,5.337c.8,5.357-.4,12.988-.4,12.988v4.934s10.069-2.918,11.778-1.411,5.84,0,5.84,0a56.258,56.258,0,0,1-1.209-5.84,25.6,25.6,0,0,1,.1-8.164s2.618-6.947,3.827-9.766-.906-6.633-3.021-8.054-2.9-.564-2.9-.564S990.99,453.246,986.459,454.151Z" transform="translate(-742.508 -349.655)" fill="#797c9c"/>
    <path id="Path_754" data-name="Path 754" d="M1005.15,544.449s.8-.194,4.829-.8,11.074.806,11.074.806" transform="translate(-774.136 -425.409)" opacity="0.05"/>
    <path id="Path_755" data-name="Path 755" d="M1018.2,416.95a3.578,3.578,0,0,1,2.977,4.924c-.446.9-1.311,1.689-1.222,2.686a9.7,9.7,0,0,0,.388,1.309c.482,2.041-1.959,3.952-1.4,5.967a4.309,4.309,0,0,0,.872,1.462l4.24,5.342a4.013,4.013,0,0,1,.633.98,4.132,4.132,0,0,1,.184,1.569c-.02,2.551.145,5.288,1.651,7.357a6.76,6.76,0,0,0,8.238,1.992c-.658-1-1.344-2.166-1.02-3.316.375-1.3,1.86-1.906,2.717-2.957a5.772,5.772,0,0,0,.766-4.7,28.331,28.331,0,0,1-.9-4.822c-.02-2.661,1.342-5.753-.452-7.717a8.6,8.6,0,0,1-1.263-1.306,2.968,2.968,0,0,1-.316-1.475c-.028-3.1,1.617-6.258.63-9.2a3.125,3.125,0,0,0-1.13-1.638c-1.4-.941-3.337-.028-4.954-.51-.765-.222-1.4-.737-2.143-.99-2.015-.681-3.88.686-5.273,2a16.067,16.067,0,0,1-1.839,1.388C1019.679,415.243,1017.309,416.932,1018.2,416.95Z" transform="translate(-783.708 -327.256)" opacity="0.1"/>
    <path id="Path_756" data-name="Path 756" d="M1019.2,416.95a3.578,3.578,0,0,1,2.977,4.924c-.446.9-1.311,1.689-1.222,2.686a9.7,9.7,0,0,0,.388,1.309c.482,2.041-1.959,3.952-1.4,5.967a4.311,4.311,0,0,0,.872,1.462l4.24,5.342a4.015,4.015,0,0,1,.633.98,4.132,4.132,0,0,1,.184,1.569c-.02,2.551.145,5.288,1.651,7.357a6.761,6.761,0,0,0,8.238,1.992c-.658-1-1.344-2.166-1.021-3.316.375-1.3,1.86-1.906,2.717-2.957a5.772,5.772,0,0,0,.765-4.7,28.331,28.331,0,0,1-.9-4.822c-.02-2.661,1.342-5.753-.452-7.717a8.593,8.593,0,0,1-1.263-1.306,2.968,2.968,0,0,1-.316-1.475c-.028-3.1,1.617-6.258.63-9.2a3.125,3.125,0,0,0-1.13-1.638c-1.4-.941-3.337-.028-4.954-.51-.765-.222-1.4-.737-2.143-.99-2.015-.681-3.88.686-5.273,2a16.066,16.066,0,0,1-1.839,1.388C1020.679,415.243,1018.309,416.932,1019.2,416.95Z" transform="translate(-784.453 -327.256)" fill="#b36362"/>
    <path id="Path_757" data-name="Path 757" d="M644.576,474.022a8.851,8.851,0,0,1-1.508-1.85,6.715,6.715,0,0,0-3.373-2.508v-.452h.061l-.028-.418h.028l-.071-1.107h0l-.36-5.531a8.545,8.545,0,0,1,.995-7.1c2.3-3.393.143-6.648-2.015-7.921,0,0-1.021-5.375-.143-6.648a37.062,37.062,0,0,0-3.623-1.844q-.028-.1-.054-.2c-.023-.51-.054-1-.082-1.5a5.5,5.5,0,0,1,.143-.765q.042-.157.092-.321a5.518,5.518,0,0,0,3.523-5.118,5.42,5.42,0,0,0-.342-1.9,2.419,2.419,0,0,0,.255-.6,2.457,2.457,0,0,0-.342-1.765,6.366,6.366,0,0,0-3.061-2.867,11.928,11.928,0,0,0-5.311-.281c-.875.1-1.875.4-2.191,1.209a8.355,8.355,0,0,0-.2.931c-.327,1.235-1.742,1.811-2.617,2.755a6.576,6.576,0,0,0-1.362,3.061,28.263,28.263,0,0,0-.51,9.61c.089.74.207,1.475.332,2.209a6.275,6.275,0,0,0-.783,4.337l-1.727,8.2-.719,4.809a4.2,4.2,0,0,0,1.3,3.679,32.394,32.394,0,0,1,3.263,4.1,9.756,9.756,0,0,0-.526,3.26c.018.51.046.992.082,1.457a12.967,12.967,0,0,0,.551,2.883,20.55,20.55,0,0,0,1.383,6.123l.288,8.628s-.431,7.921-1.3,9.477,1.872,14.712,1.872,14.712V516.6l-.462,1.347-.115-.087c-2.161,2.689,0,3.679,0,3.679s.587.028,1.531.064a1.737,1.737,0,0,0,.921,1.916s12.245.566,14.4,0,1.584-2.551.431-2.406a5.269,5.269,0,0,1-1.725-.227,1.009,1.009,0,0,0-.722-1.753,11.814,11.814,0,0,1-3.745-.885v.018a1.945,1.945,0,0,0-.255-.077,28.873,28.873,0,0,1-2.85-.8c-.556-1.191-1.837-4.4-.918-6.888a12.366,12.366,0,0,0,.551-4.066,46.45,46.45,0,0,1,1.9-12.9l1.727-5.936s2.449-7.215,2.592-9.184l-.02-2.888a4.192,4.192,0,0,0,4.661.3,1.11,1.11,0,0,0,.179-1.8Zm-19.223-15.006c.049-.207.089-.434.125-.671h1.02a5.256,5.256,0,0,1,.51,2.783C626.229,460.874,625.06,460.267,625.354,459.017Z" transform="translate(-486.899 -335.768)" fill="url(#linear-gradient-4)"/>
    <path id="Path_758" data-name="Path 758" d="M646.084,783.595l-.554,1.663,1.8,1.8,5.959,1.385,4.3-.416-.278-1.531h0a1.839,1.839,0,0,0-1.365-1.342c-1.765-.416-5.133-1.36-5.842-2.676Z" transform="translate(-506.259 -603.423)" fill="#db8b8b"/>
    <path id="Path_759" data-name="Path 759" d="M646.084,783.595l-.554,1.663,1.8,1.8,5.959,1.385,4.3-.416-.278-1.531h0a1.839,1.839,0,0,0-1.365-1.342c-1.765-.416-5.133-1.36-5.842-2.676Z" transform="translate(-506.259 -603.423)" opacity="0.1"/>
    <path id="Path_760" data-name="Path 760" d="M653.5,794.543l-.832-1.11.832-1.276a11.132,11.132,0,0,0,3.6.867c1.107-.14,1.663,1.8-.416,2.357s-13.86,0-13.86,0-2.079-.969,0-3.6l1.8,1.385s3.061,1.663,4.574,1.385Z" transform="translate(-503.553 -610.35)" fill="#474463"/>
    <path id="Path_761" data-name="Path 761" d="M666.811,795.668l-4.3.416-5.954-1.4-1.8-1.786.148-.441.207-.617.2-.6,4.018-1.11a2.49,2.49,0,0,0,.814.816,17.417,17.417,0,0,0,5.026,1.86,1.451,1.451,0,0,1,.171.051,1.832,1.832,0,0,1,1.194,1.291Z" transform="translate(-513.134 -609.121)" fill="#db8b8b"/>
    <path id="Path_762" data-name="Path 762" d="M666.811,802.477l-4.3.416-5.954-1.4-1.8-1.786.148-.441,1.656,1.276s3.061,1.663,4.574,1.385h4.3l-.832-1.11.747-1.153a1.832,1.832,0,0,1,1.194,1.291Z" transform="translate(-513.134 -615.93)" opacity="0.1"/>
    <path id="Path_763" data-name="Path 763" d="M662.726,802.143l-.832-1.11.832-1.276a11.131,11.131,0,0,0,3.6.867c1.107-.14,1.663,1.8-.416,2.357s-13.86,0-13.86,0-2.079-.969,0-3.6l1.8,1.385s3.061,1.663,4.574,1.385Z" transform="translate(-510.429 -616.011)" fill="#474463"/>
    <path id="Path_764" data-name="Path 764" d="M663.573,473.675s-6.653.694-5.681-2.079a4.99,4.99,0,0,0,.2-2.447,6.784,6.784,0,0,0-1.176-2.819l6.237.969a7.814,7.814,0,0,0-.844,2A4.081,4.081,0,0,0,663.573,473.675Z" transform="translate(-514.743 -367.926)" fill="#db8b8b"/>
    <path id="Path_765" data-name="Path 765" d="M638.46,619s.138,5.959,1.531,8.87l.278,8.454s-.416,7.76-1.248,9.286,1.8,14.414,1.8,14.414v2.217s4.429,1.658,5.684-.281l-1.248-16.493.554-22.868Z" transform="translate(-500.992 -481.648)" fill="#474463"/>
    <path id="Path_766" data-name="Path 766" d="M638.46,619s.138,5.959,1.531,8.87l.278,8.454s-.416,7.76-1.248,9.286,1.8,14.414,1.8,14.414v2.217s4.429,1.658,5.684-.281l-1.248-16.493.554-22.868Z" transform="translate(-500.992 -481.648)" opacity="0.1"/>
    <path id="Path_767" data-name="Path 767" d="M623.024,544l-.832,2.217-.694,4.712a4.169,4.169,0,0,0,1.248,3.6,39.63,39.63,0,0,1,3.88,5.128l2.633-7.908s-2.633-.416-2.217-2.217a25.78,25.78,0,0,0,.278-5.128Z" transform="translate(-488.327 -425.782)" fill="#cbcdda"/>
    <path id="Path_768" data-name="Path 768" d="M623.024,543l-.832,2.217-.694,4.712a4.168,4.168,0,0,0,1.248,3.6,39.637,39.637,0,0,1,3.88,5.128l2.633-7.908s-2.633-.416-2.217-2.217a25.78,25.78,0,0,0,.278-5.128Z" transform="translate(-488.327 -425.037)" opacity="0.05"/>
    <path id="Path_769" data-name="Path 769" d="M661.176,790.919c-1.786,2.806-4.544,1.212-5.036.9l.2-.6,4.018-1.11A2.488,2.488,0,0,0,661.176,790.919Z" transform="translate(-514.162 -609.099)" opacity="0.1"/>
    <path id="Path_770" data-name="Path 770" d="M652.349,595.253c-.138,1.941-2.495,9.008-2.495,9.008l-1.661,5.817a46.279,46.279,0,0,0-1.827,12.654,12.3,12.3,0,0,1-.531,3.982c-1.11,3.061,1.11,7.207,1.11,7.207-1.941,3.464-5.266,1.11-5.266,1.11v-2.217s-2.633-12.057-1.941-14.414.969-8.732.969-8.732v-11.5a13.054,13.054,0,0,1-3.8-8.276c-.033-.454-.059-.931-.076-1.426-.112-3.128,2.026-6.794,2.86-8.1.2-.316.326-.492.326-.492l12.245,4.847h.028v1.523Z" transform="translate(-499.773 -452.501)" fill="#474463"/>
    <path id="Path_771" data-name="Path 771" d="M663.167,467.3a7.81,7.81,0,0,0-.844,2,5.424,5.424,0,0,1-4.217-.153,6.783,6.783,0,0,0-1.176-2.819Z" transform="translate(-514.751 -367.926)" opacity="0.1"/>
    <ellipse id="Ellipse_375" data-name="Ellipse 375" cx="5.406" cy="5.406" rx="5.406" ry="5.406" transform="translate(140.238 90.641)" fill="#db8b8b"/>
    <path id="Path_772" data-name="Path 772" d="M659.236,586.245h-.059c-5.811,1.194-13.108-4.862-13.108-4.862a7.191,7.191,0,0,0,.51-1.02c.2-.316.327-.492.327-.492l12.245,4.847.031.485Z" transform="translate(-506.661 -452.501)" opacity="0.1"/>
    <path id="Path_773" data-name="Path 773" d="M641.524,485.106s-7.76-4.712-10.255-2.773l-3.464,4.434s-2.217.694-1.8,5.128l-1.663,8.039,4.99,1.247a5.457,5.457,0,0,1,.554,6.791s7.345,6.1,13.166,4.847l-.429-6.508a8.438,8.438,0,0,1,.969-6.929c2.217-3.327.138-6.513-1.941-7.76C641.665,491.622,640.693,486.354,641.524,485.106Z" transform="translate(-490.475 -379.498)" fill="#cbcdda"/>
    <path id="Path_774" data-name="Path 774" d="M689.175,605.4a7.148,7.148,0,0,1,4.3,2.773,8.637,8.637,0,0,0,1.452,1.811,1.1,1.1,0,0,1-.171,1.753c-1.1.661-2.893,1.069-5.158-.793C685.711,607.757,689.175,605.4,689.175,605.4Z" transform="translate(-537.71 -471.518)" fill="#db8b8b"/>
    <path id="Path_775" data-name="Path 775" d="M660.7,504.6s-2.773-.278-3.464,6.929-1.8,8.87-1.8,8.87-.694,3.743.969,5.959,4.847,6.929,4.847,6.929,3.464.969,4.158-2.495l-4.3-8.039a5.766,5.766,0,0,1,.969-4.712C663.742,516.1,664.992,503.208,660.7,504.6Z" transform="translate(-513.527 -396.352)" opacity="0.1"/>
    <path id="Path_776" data-name="Path 776" d="M661.786,502.966s-2.773-.278-3.464,6.929-1.8,8.87-1.8,8.87-.694,3.743.969,5.959,4.847,6.929,4.847,6.929,3.464.969,4.158-2.495l-4.3-8.039a5.753,5.753,0,0,1,.969-4.7C664.83,514.487,666.082,501.578,661.786,502.966Z" transform="translate(-514.339 -395.138)" fill="#cbcdda"/>
    <path id="Path_777" data-name="Path 777" d="M680.978,523.64s.278,4.3-.969,6.653-1.247,5.406,0,7.069" transform="translate(-531.244 -410.616)" opacity="0.1"/>
    <path id="Path_778" data-name="Path 778" d="M663.36,496.117s-1.11-1.11-4.3-1.247a9.18,9.18,0,0,1-4.574-1.11" transform="translate(-512.933 -388.359)" opacity="0.1"/>
    <path id="Path_779" data-name="Path 779" d="M633.681,429.248c-.842.1-1.8.393-2.107,1.184a8.361,8.361,0,0,0-.191.913c-.314,1.212-1.676,1.786-2.518,2.7a6.448,6.448,0,0,0-1.311,3,28.186,28.186,0,0,0-.487,9.416c.27,2.3.824,4.561.977,6.87a10.88,10.88,0,0,1-1.39,6.676,16.606,16.606,0,0,0-1.643,2.485,4.744,4.744,0,0,0,2.916.765q1.786.061,3.572,0a3.812,3.812,0,0,0,1.819-.378,2.806,2.806,0,0,0,.954-1.02,7.321,7.321,0,0,0,.824-3.89c-.031-1.339-.242-2.676-.255-4.021a3.517,3.517,0,0,1,.464-2.107,6.736,6.736,0,0,1,1.161-1.074,7.34,7.34,0,0,0,2.041-5.406c.048-1.982-.278-3.967-.11-5.942.066-.765.355-1.7,1.115-1.852a4.29,4.29,0,0,0,.725-.092c.61-.235.551-1.094.724-1.725.2-.707.8-1.253.969-1.967.4-1.676-1.735-3.679-3.133-4.263A11.31,11.31,0,0,0,633.681,429.248Z" transform="translate(-490.974 -340.186)" opacity="0.1"/>
    <path id="Path_780" data-name="Path 780" d="M633.181,428.155c-.842.1-1.8.393-2.107,1.184a8.347,8.347,0,0,0-.191.913c-.314,1.212-1.676,1.786-2.518,2.7a6.447,6.447,0,0,0-1.311,3,28.187,28.187,0,0,0-.487,9.416c.27,2.3.824,4.561.977,6.87a10.88,10.88,0,0,1-1.39,6.676,16.615,16.615,0,0,0-1.643,2.485,4.744,4.744,0,0,0,2.916.765q1.786.061,3.572,0a3.812,3.812,0,0,0,1.819-.378,2.806,2.806,0,0,0,.954-1.02,7.32,7.32,0,0,0,.824-3.89c-.031-1.339-.242-2.676-.255-4.021a3.517,3.517,0,0,1,.464-2.107,6.737,6.737,0,0,1,1.161-1.074,7.34,7.34,0,0,0,2.041-5.406c.049-1.982-.278-3.967-.11-5.942.066-.765.355-1.7,1.115-1.852a4.288,4.288,0,0,0,.724-.092c.61-.235.551-1.094.725-1.725.2-.707.8-1.253.969-1.967.4-1.676-1.735-3.679-3.133-4.263A11.289,11.289,0,0,0,633.181,428.155Z" transform="translate(-490.601 -339.371)" fill="#472727"/>
  </g>
</svg>
