<svg xmlns="http://www.w3.org/2000/svg" xmlns:xlink="http://www.w3.org/1999/xlink" width="283.823" height="179.077" viewBox="0 0 283.823 179.077">
  <defs>
    <linearGradient id="linear-gradient" x1="0.334" y1="0.938" x2="1.334" y2="0.938" gradientUnits="objectBoundingBox">
      <stop offset="0" stop-color="#21c8f6"/>
      <stop offset="1" stop-color="#637bff"/>
    </linearGradient>
  </defs>
  <path id="Path_648" data-name="Path 648" d="M752.867,231.805c44.15,8.944,92.464,5.762,133.871-8.816,15.955-5.617,31.49-13.33,40.045-24.9s8.1-27.69-4.9-36.631c-8.625-5.936-20.753-7.737-31.669-10.891s-22.178-9.165-23.125-17.924c-.722-6.679,4.88-13.158,3.617-19.791-1.237-6.491-8.909-11.382-17.136-13.571-24.776-6.589-50.941,6.285-69.7,20.121s-37.541,30.326-63.548,33.179c-9.846,1.08-20.172.069-29.567,2.533-15.35,4.025-24.448,17.038-23.446,29.231s10.469,23.292,22.6,31.423c32.044,21.476,84.619,22.975,118.735,3.385" transform="translate(-621.985 -200.68) rotate(9)" fill="url(#linear-gradient)"/>
</svg>
